<?xml version="1.0" encoding="UTF-8"?>
<!DOCTYPE svg PUBLIC "-//W3C//DTD SVG 1.1//EN" "http://www.w3.org/Graphics/SVG/1.1/DTD/svg11.dtd">
<svg xmlns="http://www.w3.org/2000/svg" version="1.1" width="512px" height="512px" style="shape-rendering:geometricPrecision; text-rendering:geometricPrecision; image-rendering:optimizeQuality; fill-rule:evenodd; clip-rule:evenodd" xmlns:xlink="http://www.w3.org/1999/xlink">
<g><path style="opacity:0.95" fill="#000000" d="M 231.5,25.5 C 247.503,25.3334 263.503,25.5001 279.5,26C 302.329,31.4961 316.496,45.6628 322,68.5C 322.667,77.1667 322.667,85.8333 322,94.5C 317.523,160.515 312.856,226.515 308,292.5C 299.093,324.057 278.26,338.223 245.5,335C 222.676,329.509 208.509,315.342 203,292.5C 198.144,226.515 193.477,160.515 189,94.5C 184.183,67.9968 192.683,47.1635 214.5,32C 220.058,29.2074 225.725,27.0408 231.5,25.5 Z M 241.5,45.5 C 250.839,45.3335 260.173,45.5002 269.5,46C 285.537,47.0362 296.037,55.2029 301,70.5C 297.618,143.565 292.951,216.565 287,289.5C 280.781,308.698 267.614,316.864 247.5,314C 231.955,308.748 223.788,297.915 223,281.5C 218.667,218.5 214.333,155.5 210,92.5C 205.169,66.0861 215.669,50.4194 241.5,45.5 Z"/></g>
<g><path style="opacity:0.946" fill="#000000" d="M 244.5,365.5 C 281.634,362.497 305.134,378.83 315,414.5C 318.487,451.658 302.321,475.158 266.5,485C 234.972,488.491 212.472,475.991 199,447.5C 189.817,418.055 197.317,393.888 221.5,375C 228.819,370.664 236.486,367.497 244.5,365.5 Z M 247.5,386.5 C 271.48,384.339 286.98,394.673 294,417.5C 296.648,441.501 286.482,457.001 263.5,464C 239.499,466.648 223.999,456.482 217,433.5C 214.559,409.474 224.726,393.807 247.5,386.5 Z"/></g>
</svg>
