<?xml version="1.0" encoding="UTF-8"?>
<svg version="1.1" xmlns="http://www.w3.org/2000/svg" width="512" height="512">
<path d="M0 0 C21.83794279 17.96346907 35.88598935 43.88231558 39 72 C39 74.97 39 77.94 39 81 C45.6 81 52.2 81 59 81 C59 77.7 59 74.4 59 71 C61.69019691 50.11269876 69.90241341 29.7609382 84 14 C84.69738281 13.17242187 85.39476562 12.34484375 86.11328125 11.4921875 C103.76701824 -9.01499543 129.15005437 -22.01976745 156 -25 C187.18773349 -26.70648186 216.77788633 -19.95338622 240.69091797 1.05566406 C242.13786458 2.35878354 243.56954335 3.6788003 245 5 C245.67417969 5.60457031 246.34835937 6.20914063 247.04296875 6.83203125 C265.92858303 24.59401631 277.3592965 51.25949001 278.3125 76.96875 C278.63188171 91.04823448 278.46558652 104.55226343 274 118 C273.67854004 118.97380615 273.67854004 118.97380615 273.35058594 119.96728516 C268.47931081 134.18757956 261.10833213 146.87614764 251 158 C250.52965332 158.51949219 250.05930664 159.03898438 249.57470703 159.57421875 C228.27161347 182.8014182 200.73463159 193.46122039 169.55078125 194.8515625 C165.36439599 195.01068626 161.18908999 195.02872519 157 195 C156.85304688 196.57974609 156.85304688 196.57974609 156.703125 198.19140625 C153.60504734 229.06759113 140.58063332 256.25965726 116.39794922 276.32958984 C91.52459929 296.01210766 61.54227715 303.05233607 30.15087891 299.6953125 C10.27233774 296.76859395 -8.74266723 288.05782677 -24 275 C-24.80953125 274.32324219 -25.6190625 273.64648438 -26.453125 272.94921875 C-47.12866292 255.09595518 -59.75249633 229.98896252 -63 203 C-63.06056151 201.35514934 -63.08781955 199.70827043 -63.0625 198.0625 C-63.05347656 197.29035156 -63.04445313 196.51820313 -63.03515625 195.72265625 C-63.02355469 195.15417969 -63.01195312 194.58570313 -63 194 C-63.57403564 194.16459717 -64.14807129 194.32919434 -64.73950195 194.4987793 C-85.93674818 199.19884912 -112.01482156 188.83926492 -129.80078125 178.046875 C-155.10256795 161.85867447 -171.57687983 137.31157659 -178.6484375 108.34375 C-184.44863629 80.43554715 -179.71130141 50.33157237 -164.49829102 26.15063477 C-146.89288316 -0.65517399 -121.13913404 -17.42720223 -90 -24 C-57.46401964 -29.98845125 -25.41619033 -20.4760461 0 0 Z M-97 -7 C-97.61568848 -6.81195801 -98.23137695 -6.62391602 -98.86572266 -6.43017578 C-121.64777147 0.68108207 -141.70072302 15.91931946 -153.2578125 36.99609375 C-155.32094264 40.9317819 -157.19370853 44.94107903 -159 49 C-159.42152344 49.92167969 -159.84304687 50.84335938 -160.27734375 51.79296875 C-169.21255698 73.54094057 -167.64374034 99.50799629 -159 121 C-154.40260792 131.40743634 -148.76274308 140.62973789 -141 149 C-139.90365234 150.19882812 -139.90365234 150.19882812 -138.78515625 151.421875 C-122.85415907 168.1088246 -99.15629507 179.23710359 -75.98242188 180.07275391 C-71.65241793 180.15541038 -67.32965491 180.10779224 -63 180 C-62.88317871 179.45980225 -62.76635742 178.91960449 -62.64599609 178.36303711 C-61.41369733 172.73304017 -60.07116799 167.14123031 -58.625 161.5625 C-58.4290625 160.78068359 -58.233125 159.99886719 -58.03125 159.19335938 C-56.91640906 154.89981057 -55.58421371 150.81039097 -53.91162109 146.69897461 C-53.5531308 145.81431015 -53.1946405 144.92964569 -52.82528687 144.01817322 C-52.5529422 143.35217606 -52.28059753 142.68617889 -52 142 C-52.83271927 141.99413376 -53.66543854 141.98826752 -54.52339172 141.98222351 C-62.36635235 141.92434891 -70.20902659 141.85230265 -78.05170918 141.76428509 C-82.08385029 141.71953412 -86.11588927 141.68028872 -90.14819336 141.65356445 C-94.03873163 141.62757818 -97.92887783 141.58720977 -101.81917381 141.53681374 C-103.30429398 141.52011319 -104.78948201 141.50861877 -106.274683 141.50238609 C-108.35321905 141.4927791 -110.43074485 141.46476379 -112.5090332 141.43237305 C-114.28441216 141.41571846 -114.28441216 141.41571846 -116.09565735 141.39872742 C-119 141 -119 141 -120.87866211 139.81555176 C-122.42803382 137.3069729 -122.39931177 135.46125215 -122.43237305 132.51879883 C-122.45216721 131.39786331 -122.47196136 130.2769278 -122.49235535 129.12202454 C-122.49874527 127.91257675 -122.50513519 126.70312897 -122.51171875 125.45703125 C-122.52966995 124.21829758 -122.54762115 122.9795639 -122.56611633 121.70329285 C-122.61115077 118.4137054 -122.6434265 115.12431541 -122.66955566 111.83453369 C-122.69935939 108.47613983 -122.74589023 105.11798238 -122.79101562 101.75976562 C-122.8761132 95.17328603 -122.94439613 88.58679101 -123 82 C-123.65597168 81.98018066 -124.31194336 81.96036133 -124.98779297 81.93994141 C-127.95061069 81.84487493 -130.91270532 81.73512248 -133.875 81.625 C-134.90753906 81.5940625 -135.94007813 81.563125 -137.00390625 81.53125 C-137.99003906 81.49257812 -138.97617188 81.45390625 -139.9921875 81.4140625 C-141.35899658 81.36693115 -141.35899658 81.36693115 -142.75341797 81.31884766 C-145 81 -145 81 -147 79 C-147.56214022 75.13048765 -147.92091649 72.51925007 -145.86190605 69.12246895 C-144.16461035 67.13687451 -142.37603021 65.31788753 -140.50170898 63.49829102 C-139.81069595 62.79647202 -139.11968292 62.09465302 -138.4077301 61.37156677 C-136.12323034 59.06209704 -133.81101416 56.78285188 -131.49609375 54.50390625 C-129.89728974 52.90479225 -128.29981943 51.3043438 -126.70362854 49.70262146 C-123.35588489 46.35211005 -119.99463006 43.01596643 -116.62280273 39.68969727 C-112.30350803 35.42717247 -108.01604749 31.1342367 -103.73782253 26.83053684 C-100.44361222 23.52241016 -97.13481612 20.22919768 -93.82124519 16.94047356 C-92.23470718 15.36296188 -90.65232541 13.7812587 -89.07421684 12.19531441 C-86.86517504 9.98044524 -84.63768248 7.78598136 -82.40405273 5.59594727 C-81.75596649 4.93885773 -81.10788025 4.28176819 -80.44015503 3.60476685 C-77.34788839 0.6120312 -75.47448484 -0.86453896 -71.25514221 -2.06912231 C-67.77676326 -1.99525961 -66.90036989 -1.89226224 -64.51367188 0.51000977 C-63.50421509 1.4908403 -63.50421509 1.4908403 -62.47436523 2.4914856 C-61.24955444 3.73320023 -61.24955444 3.73320023 -60 5 C-58.91933238 6.04823363 -57.83584961 7.09356934 -56.75024414 8.13668823 C-48.14470084 16.42918942 -39.6817372 24.86990528 -31.19824219 33.28686523 C-28.0620656 36.39615937 -24.91522529 39.49404085 -21.75878906 42.58276367 C-17.93230962 46.32740525 -14.12572552 50.0912213 -10.33250427 53.86953926 C-8.8880447 55.30175304 -7.43670627 56.72706407 -5.97840881 58.14518547 C-3.94365139 60.12658455 -1.9354519 62.13166348 0.06835938 64.14428711 C0.67293976 64.72167633 1.27752014 65.29906555 1.90042114 65.89395142 C4.85999581 68.92124633 6.37710706 70.98590529 6.55822754 75.30348206 C6.37401245 76.52333298 6.18979736 77.7431839 6 79 C2.81579155 81.12280563 1.79462745 81.28019537 -1.88671875 81.4140625 C-2.82451172 81.45273438 -3.76230469 81.49140625 -4.72851562 81.53125 C-5.70498047 81.5621875 -6.68144531 81.593125 -7.6875 81.625 C-8.67556641 81.66367188 -9.66363281 81.70234375 -10.68164062 81.7421875 C-13.1207861 81.83645399 -15.56036747 81.9193159 -18 82 C-18 88.27 -18 94.54 -18 101 C-16.4325 100.13375 -14.865 99.2675 -13.25 98.375 C-11.16719733 97.24901785 -9.08384813 96.12404616 -7 95 C-6.09765625 94.49726563 -5.1953125 93.99453125 -4.265625 93.4765625 C4.73326271 88.6720716 14.25637875 85.87416443 24 83 C25.41631909 62.22732 16.53669411 40.38043047 3.3125 24.6015625 C-12.91828177 6.34193301 -33.10729403 -6.94300102 -58 -10 C-71.13484169 -10.63077974 -84.36131575 -11.00961877 -97 -7 Z M106 13 C105.52175781 13.42909668 105.04351562 13.85819336 104.55078125 14.30029297 C96.46226073 21.66365371 90.4406279 29.53218568 85 39 C84.50886719 39.84046875 84.01773437 40.6809375 83.51171875 41.546875 C77.58521631 52.48246464 73.81080868 65.45925023 73.9375 77.875 C73.94652344 79.02742188 73.95554687 80.17984375 73.96484375 81.3671875 C73.97644531 82.23601562 73.98804688 83.10484375 74 84 C75.1859375 84.40089844 76.371875 84.80179687 77.59375 85.21484375 C92.84011019 90.51028085 106.96217305 97.02044355 119 108 C119.50096191 108.4532666 120.00192383 108.9065332 120.51806641 109.37353516 C141.20277302 128.3195093 151.02121717 151.72984857 156 179 C177.21867307 183.95236582 200.31080753 176.7247405 218.48046875 165.85644531 C239.21607676 152.89096856 254.52156205 132.6334257 261 109 C267.06121289 82.41343994 263.05206875 56.41138795 249 33 C246.54495096 29.44852129 243.87005952 26.22034238 241 23 C240.38640625 22.24460938 239.7728125 21.48921875 239.140625 20.7109375 C233.87385349 14.37775358 227.75701639 9.66703491 221 5 C220.23300781 4.45472656 219.46601563 3.90945312 218.67578125 3.34765625 C213.3039444 -0.18669365 207.5535734 -2.4947984 201.5625 -4.75 C200.40028931 -5.19110107 200.40028931 -5.19110107 199.21459961 -5.64111328 C189.1534032 -9.27353435 179.34437584 -10.36918551 168.6875 -10.3125 C167.04056152 -10.30512817 167.04056152 -10.30512817 165.36035156 -10.29760742 C143.43224625 -9.98143022 122.36269085 -1.72137155 106 13 Z M-75.88696289 19.75756836 C-76.39429459 20.26314774 -76.90162628 20.76872711 -77.42433167 21.28962708 C-79.10964077 22.97051555 -80.79124311 24.65505874 -82.47265625 26.33984375 C-83.63693322 27.50344774 -84.80135865 28.6669032 -85.96592712 29.83021545 C-88.40966231 32.27247338 -90.85157187 34.71653869 -93.29223633 37.16186523 C-96.42870018 40.30402638 -99.56963074 43.44167808 -102.7119379 46.57799435 C-105.11827537 48.98072696 -107.52223656 51.38582563 -109.92547417 53.7916584 C-111.08302723 54.94988094 -112.24133017 56.10735452 -113.40037727 57.26408195 C-115.01682076 58.87800015 -116.63004766 60.49506467 -118.24243164 62.11303711 C-119.16318985 63.03459091 -120.08394806 63.95614471 -121.03260803 64.90562439 C-123.11411098 66.64255841 -123.11411098 66.64255841 -123 68 C-121.86111328 68.03867188 -121.86111328 68.03867188 -120.69921875 68.078125 C-119.20841797 68.16320312 -119.20841797 68.16320312 -117.6875 68.25 C-116.70136719 68.29640625 -115.71523437 68.3428125 -114.69921875 68.390625 C-112 69 -112 69 -110.35832214 70.69989014 C-108.71771279 73.47801002 -108.6051689 75.19754212 -108.56762695 78.41113281 C-108.54783279 79.49195129 -108.52803864 80.57276978 -108.50764465 81.68634033 C-108.50125473 82.84687927 -108.49486481 84.00741821 -108.48828125 85.203125 C-108.47033005 86.39605164 -108.45237885 87.58897827 -108.43388367 88.8180542 C-108.37969629 92.62866683 -108.3458569 96.43915359 -108.3125 100.25 C-108.27933449 102.83335088 -108.24484555 105.41668513 -108.20898438 108 C-108.12396448 114.33324264 -108.05719283 120.66644739 -108 127 C-101.73 127 -95.46 127 -89 127 C-88.95101562 124.07511719 -88.90203125 121.15023437 -88.8515625 118.13671875 C-88.79756769 115.30699503 -88.7402543 112.47735667 -88.68261719 109.64770508 C-88.64431153 107.67967069 -88.60946145 105.7115659 -88.578125 103.7434082 C-88.53250889 100.91592228 -88.47450902 98.08892166 -88.4140625 95.26171875 C-88.40251129 94.38037766 -88.39096008 93.49903656 -88.37905884 92.59098816 C-88.35918915 91.77036392 -88.33931946 90.94973969 -88.31884766 90.10424805 C-88.30552399 89.38254929 -88.29220032 88.66085052 -88.2784729 87.9172821 C-88 86 -88 86 -86 83 C-81.18229187 81.1850965 -75.62989633 81.81563771 -70.5625 81.8125 C-69.52544922 81.80025391 -68.48839844 81.78800781 -67.41992188 81.77539062 C-65.91461914 81.77249023 -65.91461914 81.77249023 -64.37890625 81.76953125 C-63.4669751 81.76542236 -62.55504395 81.76131348 -61.61547852 81.75708008 C-58.72335046 82.0256946 -56.59452522 82.70572483 -54 84 C-52.28311866 87.43376268 -52.75490998 91.38114365 -52.68359375 95.1640625 C-52.6524221 96.52487442 -52.6524221 96.52487442 -52.62062073 97.91317749 C-52.55512865 100.8170398 -52.49624186 103.72099405 -52.4375 106.625 C-52.39431445 108.59115542 -52.35070015 110.55730147 -52.30664062 112.5234375 C-52.19944761 117.34886362 -52.09817919 122.1743824 -52 127 C-47.3314285 127.42723912 -44.05679008 127.64428047 -39.96655273 125.15063477 C-31.18732608 115.30079187 -31.72058769 105.65137788 -32.0625 92.9375 C-32.10364993 89.98168342 -32.1305992 87.02652621 -32.14268494 84.07044983 C-32.15411731 82.24277826 -32.18442742 80.41510315 -32.2358551 78.58811951 C-32.24833786 77.76618607 -32.26082062 76.94425262 -32.27368164 76.09741211 C-32.30227013 75.01586098 -32.30227013 75.01586098 -32.33143616 73.91246033 C-31.89587771 71.39919124 -30.99509884 70.54125759 -29 69 C-26.30078125 68.48828125 -26.30078125 68.48828125 -23.3125 68.3125 C-22.31863281 68.24675781 -21.32476562 68.18101563 -20.30078125 68.11328125 C-19.16189453 68.05720703 -19.16189453 68.05720703 -18 68 C-23.1842579 61.72483253 -28.85465834 55.99907269 -34.61328125 50.25390625 C-35.63378745 49.23272532 -36.65414526 48.21139608 -37.67436218 47.18992615 C-39.79829792 45.06452538 -41.92400888 42.94092102 -44.05102539 40.81860352 C-46.7827496 38.09261973 -49.50990091 35.36211175 -52.23577595 32.63028049 C-54.33482465 30.52763092 -56.43623338 28.42735308 -58.53838158 26.32780266 C-59.54588486 25.32096771 -60.55264238 24.31338594 -61.55864906 23.30505562 C-62.95636519 21.90481611 -64.3576069 20.50809845 -65.7590332 19.11157227 C-66.55590042 18.31550064 -67.35276764 17.51942902 -68.17378235 16.69923401 C-71.71645706 13.40289453 -72.89813093 16.77131671 -75.88696289 19.75756836 Z M-24.5625 126.6875 C-39.99991287 144.69781502 -48.43234234 166.01253333 -48.3125 189.75 C-48.30758545 190.89944092 -48.3026709 192.04888184 -48.29760742 193.2331543 C-47.99255611 215.3423345 -39.86523258 236.47740873 -25 253 C-24.35635498 253.71736328 -24.35635498 253.71736328 -23.69970703 254.44921875 C-6.57946162 273.25550316 17.1451682 284.44715681 42.6328125 285.94091797 C69.37018288 286.6082492 94.14867936 276.81785285 113.54345703 258.54589844 C132.04195348 240.44098702 141.63664403 215.87002698 142.3125 190.1875 C141.88645338 166.40877297 133.05829971 143.5431425 117 126 C116.2678125 125.19820312 115.535625 124.39640625 114.78125 123.5703125 C97.16016784 105.14263151 72.54845498 95.52753179 47.3125 94.6875 C19.29327343 95.32175679 -5.26272427 106.4462718 -24.5625 126.6875 Z M-74 96 C-74 106.23 -74 116.46 -74 127 C-71.69 127 -69.38 127 -67 127 C-67 116.77 -67 106.54 -67 96 C-69.31 96 -71.62 96 -74 96 Z " fill="#000000" transform="translate(218,55)"/>
<path d="M0 0 C0.92534042 -0.01283524 1.85068085 -0.02567047 2.80406189 -0.03889465 C3.80917313 -0.04628159 4.81428436 -0.05366852 5.84985352 -0.0612793 C7.40459129 -0.07338692 7.40459129 -0.07338692 8.99073792 -0.08573914 C11.19237592 -0.09959345 13.39403554 -0.11030955 15.59570312 -0.11816406 C18.93410315 -0.13526924 22.27148489 -0.17913076 25.60961914 -0.22338867 C27.75219 -0.23352517 29.89476928 -0.24203827 32.03735352 -0.2487793 C33.02424667 -0.26628738 34.01113983 -0.28379547 35.02793884 -0.30183411 C44.03910866 -0.27419175 52.09818529 1.69094719 58.97875977 7.73950195 C65.34409292 14.86292407 66.79848559 22.2799883 66.63500977 31.55200195 C66.62824219 32.28805664 66.62147461 33.02411133 66.61450195 33.7824707 C66.59698646 35.58072821 66.57008935 37.37889024 66.54125977 39.17700195 C67.70359131 39.1612915 68.86592285 39.14558105 70.06347656 39.12939453 C108.8655919 38.65116033 144.03039438 38.67938516 173.54125977 67.17700195 C174.53125977 68.66200195 174.53125977 68.66200195 175.54125977 70.17700195 C178.10581106 70.59566701 178.10581106 70.59566701 181.14233398 70.4699707 C182.31891571 70.46006104 183.49549744 70.45015137 184.70773315 70.43994141 C185.99084381 70.41504639 187.27395447 70.39015137 188.59594727 70.36450195 C189.93521527 70.35126527 191.27450207 70.33982077 192.61380005 70.33007812 C197.59074529 70.29002989 202.56714357 70.21868916 207.54370117 70.14587402 C265.71948396 69.30757715 265.71948396 69.30757715 285.79125977 87.86450195 C292.29631176 94.76539889 295.67220156 101.8271344 296.54125977 111.17700195 C297.19271973 110.80115967 297.84417969 110.42531738 298.51538086 110.03808594 C308.72452799 104.14819336 318.93367513 98.25830078 329.14282227 92.3684082 C330.73018188 91.45260986 330.73018188 91.45260986 332.34960938 90.51831055 C334.49101571 89.28290271 336.63245493 88.04755186 338.77392578 86.81225586 C345.36691811 83.00900674 351.95862338 79.20353794 358.54956055 75.39672852 C361.79958871 73.52077019 365.05113088 71.64746043 368.30297852 69.7746582 C372.39498832 67.41776726 376.48024855 65.04977858 380.56079102 62.6730957 C382.4292037 61.59093166 384.29768939 60.50889368 386.16625977 59.42700195 C387.41789917 58.69284058 387.41789917 58.69284058 388.69482422 57.94384766 C398.74761524 52.14427924 407.80175381 49.43523549 419.54125977 51.17700195 C429.03589351 54.03839842 436.06666477 59.947043 440.88110352 68.5793457 C445.02640208 77.44526896 446.03614363 86.39466697 442.97875977 95.80200195 C437.46192983 109.44990877 424.22058451 116.01696304 411.91625977 122.73950195 C403.42202 127.43808113 394.97744776 132.20410898 386.60375977 137.11450195 C375.04501553 143.88841955 363.44596131 150.59024436 351.83666992 157.27709961 C348.53210988 159.18227713 345.22972497 161.09117184 341.92797852 163.0012207 C340.82631348 163.63809814 339.72464844 164.27497559 338.58959961 164.93115234 C336.55429053 166.10789699 334.51939844 167.28536345 332.48510742 168.46386719 C330.49701401 169.61260608 328.49772131 170.74213217 326.48893738 171.85429382 C323.52301473 173.5405783 320.74847605 175.40950798 317.9539032 177.36532593 C302.24355418 187.8770051 287.9674441 189.00623159 269.63502884 188.59391785 C265.84804861 188.52237608 262.06098664 188.52491475 258.2734375 188.51782227 C251.9289592 188.49591632 245.58656084 188.4265934 239.24291992 188.32250977 C230.34287113 188.17663351 221.44396542 188.12408873 212.54290009 188.08688736 C206.31271338 188.05712213 200.08269055 188.00393046 193.85269928 187.94715118 C192.35943502 187.93377238 190.86616381 187.9211472 189.37288666 187.90929413 C185.11718656 187.8750517 180.86216697 187.82595278 176.60692787 187.75413895 C174.72913272 187.72526421 172.85114784 187.70963357 170.97319031 187.69467163 C158.78780473 187.45336426 147.07307197 185.27486958 135.72875977 180.73950195 C134.86114014 180.40241211 133.99352051 180.06532227 133.09960938 179.71801758 C124.67146944 176.37143006 116.50148246 172.48517825 108.30175781 168.62084961 C94.77979651 162.31321161 80.856161 157.35154695 66.54125977 153.17700195 C66.58283203 153.90838379 66.6244043 154.63976562 66.66723633 155.39331055 C67.10984444 164.65845744 65.30407955 172.60080034 58.97875977 179.61450195 C51.19785256 186.45127743 42.15270997 187.78515019 32.10766602 187.63793945 C31.06730698 187.63702301 30.02694794 187.63610657 28.95506287 187.63516235 C26.77777484 187.62916795 24.60049343 187.6135492 22.42333984 187.58862305 C19.08799019 187.55182799 15.75374557 187.54760637 12.41821289 187.5480957 C10.29385432 187.53827335 8.16950324 187.52662022 6.04516602 187.51293945 C5.05037735 187.51071381 4.05558868 187.50848816 3.03065491 187.50619507 C2.10546555 187.49343536 1.18027618 187.48067566 0.22705078 187.4675293 C-0.58360336 187.4599057 -1.39425751 187.4522821 -2.22947693 187.44442749 C-4.72103714 187.14553645 -6.33696161 186.50409467 -8.45874023 185.17700195 C-9.95042215 182.19363812 -9.59164659 179.49050437 -9.59918213 176.16114807 C-9.60215325 175.43060005 -9.60512437 174.70005202 -9.60818553 173.94736618 C-9.6168927 171.486872 -9.61838246 169.02642636 -9.61987305 166.56591797 C-9.62449973 164.80696508 -9.62952418 163.0480132 -9.63491821 161.2890625 C-9.64805712 156.50194247 -9.65448986 151.71483648 -9.65892887 146.92770123 C-9.66185669 143.93962682 -9.6659609 140.95155628 -9.67043304 137.96348381 C-9.68411079 128.62227475 -9.69377656 119.28107449 -9.69763494 109.93985611 C-9.70211903 99.14196423 -9.71968208 88.34419873 -9.74863553 77.54634529 C-9.77021822 69.20916945 -9.78033736 60.87202924 -9.78167605 52.53482574 C-9.78272637 47.55087841 -9.78868234 42.56704982 -9.80649567 37.58313179 C-9.82291787 32.89722329 -9.82516049 28.21152356 -9.81635666 23.52559662 C-9.81558318 21.80302562 -9.81996966 20.08044366 -9.82981491 18.35790062 C-9.84244176 16.0116282 -9.83670892 13.66610564 -9.82623291 11.31983948 C-9.82769947 10.00519494 -9.82916603 8.6905504 -9.83067703 7.33606815 C-9.45874023 4.17700195 -9.45874023 4.17700195 -8.06077194 2.29307461 C-5.22306608 0.31615624 -3.41867344 0.04128858 0 0 Z M5.54125977 15.17700195 C5.54125977 66.98700195 5.54125977 118.79700195 5.54125977 172.17700195 C26.76460259 173.74113134 26.76460259 173.74113134 46.54125977 169.17700195 C50.60396284 164.78489053 51.66390318 161.62496972 51.68170166 155.73149109 C51.6874118 154.60012726 51.69312195 153.46876343 51.69900513 152.30311584 C51.70012299 151.06097824 51.70124084 149.81884064 51.70239258 148.5390625 C51.70735748 147.23153015 51.71232239 145.9239978 51.71743774 144.57684326 C51.73055522 140.98789004 51.73700548 137.39895551 51.7414484 133.80998206 C51.74438031 131.56712896 51.74848535 129.32428097 51.75295258 127.08143044 C51.76662608 120.06230623 51.77629333 113.04319369 51.78015447 106.02405709 C51.78463437 97.92481111 51.80217962 89.82573396 51.83115506 81.72653931 C51.852781 75.46401299 51.86285924 69.20153413 51.86419559 62.93897086 C51.86524301 59.19962658 51.87113724 55.46044103 51.8890152 51.72113609 C51.90857751 47.54836174 51.90420329 43.37594014 51.89770508 39.203125 C51.90691986 37.96706009 51.91613464 36.73099518 51.92562866 35.45747375 C51.94022987 27.38122413 51.94022987 27.38122413 48.54125977 20.17700195 C36.52133362 9.05857027 24.23857445 15.17700195 5.54125977 15.17700195 Z M66.54125977 54.17700195 C66.54125977 81.89700195 66.54125977 109.61700195 66.54125977 138.17700195 C73.14125977 139.82700195 79.74125977 141.47700195 86.54125977 143.17700195 C90.72395545 144.63250057 94.72922918 146.09145136 98.79125977 147.80200195 C99.82573242 148.22513672 100.86020508 148.64827148 101.92602539 149.08422852 C110.41142721 152.59711292 118.73106003 156.45014294 127.05249023 160.33154297 C143.03802025 167.72574844 157.79847508 172.40218176 175.50463867 172.6262207 C176.7647728 172.64900085 178.02490692 172.67178101 179.32322693 172.69525146 C183.47126444 172.7677112 187.61941319 172.81875413 191.76782227 172.86450195 C192.47922977 172.87239368 193.19063727 172.88028542 193.92360258 172.88841629 C200.66303929 172.96126628 207.40252266 173.02398757 214.14222145 173.06663513 C222.68446827 173.12153659 231.22335198 173.22265784 239.76420081 173.38758373 C245.81224712 173.50030203 251.85939828 173.55726635 257.90845621 173.57558155 C261.500127 173.58792696 265.08783799 173.6225516 268.67833328 173.71835327 C288.02187563 174.21113225 301.2159448 171.12273771 317.17551994 159.82020473 C320.39575093 157.58348687 323.73514329 155.69688961 327.16625977 153.80200195 C328.2286084 153.19735107 329.29095703 152.5927002 330.38549805 151.96972656 C331.42689941 151.37812744 332.46830078 150.78652832 333.54125977 150.17700195 C343.262775 144.64096349 352.94779976 139.04551579 362.60375977 133.39575195 C369.90026861 129.12816521 377.21687672 124.8965426 384.54125977 120.67700195 C386.70272429 119.42831476 388.86418264 118.17961686 391.02563477 116.9309082 C395.44344814 114.38047978 399.87191016 111.84979993 404.30688477 109.3293457 C406.46844612 108.09124429 408.62990825 106.85296963 410.79125977 105.61450195 C411.78512695 105.05504883 412.77899414 104.4955957 413.80297852 103.91918945 C422.74055591 98.84346059 422.74055591 98.84346059 428.67016602 90.68481445 C429.75499074 84.72316508 429.68087363 80.46074236 426.54125977 75.17700195 C423.18855195 70.44211933 420.10109658 66.78967416 414.15527344 65.76635742 C405.95673949 65.46386215 400.74942643 68.10173862 393.85375977 72.30200195 C392.23135376 73.25055054 392.23135376 73.25055054 390.57617188 74.21826172 C388.32486075 75.53734209 386.07950365 76.86663474 383.84008789 78.20581055 C380.73784982 80.05953096 377.62100114 81.88430693 374.49438477 83.6965332 C370.53400797 85.99252256 366.57970533 88.29831893 362.63110352 90.61450195 C356.32555572 94.30913497 349.99832578 97.96554692 343.66625977 101.61450195 C342.59988281 102.2290625 341.53350586 102.84362305 340.43481445 103.47680664 C338.25895126 104.73052763 336.08300651 105.98410711 333.90698242 107.23754883 C330.39232726 109.26282234 326.87870507 111.28987674 323.36547852 113.31762695 C322.77532959 113.65822647 322.18518066 113.99882599 321.57714844 114.3497467 C318.7443322 115.98470102 315.91156977 117.6197485 313.07885742 119.25488281 C312.06227051 119.84148682 311.04568359 120.42809082 309.99829102 121.0324707 C309.11117432 121.54447021 308.22405762 122.05646973 307.31005859 122.58398438 C305.93950317 123.37252808 305.93950317 123.37252808 304.54125977 124.17700195 C303.55471909 124.85951019 302.56817841 125.54201843 301.55174255 126.24520874 C296.7420686 128.97067933 292.01320994 128.73058223 286.60473633 128.67871094 C285.52588669 128.68411392 284.44703705 128.68951691 283.335495 128.69508362 C279.78400914 128.70755023 276.23333692 128.6910971 272.68188477 128.6730957 C270.21042844 128.67325069 267.73897187 128.67473966 265.26751709 128.67750549 C260.09612239 128.67888841 254.92500541 128.66634522 249.75366211 128.64355469 C243.11655883 128.61511127 236.47991485 128.6179251 229.84277725 128.6306448 C224.74365291 128.63758842 219.64463531 128.62982871 214.5455246 128.61738777 C212.09743407 128.61286466 209.64933212 128.61254394 207.20124054 128.61645317 C203.78732142 128.61935391 200.37404332 128.60291431 196.96020508 128.58105469 C195.94405624 128.58555634 194.92790741 128.59005798 193.88096619 128.59469604 C192.48899773 128.5798391 192.48899773 128.5798391 191.06890869 128.56468201 C190.26221363 128.56225211 189.45551857 128.55982222 188.6243782 128.55731869 C185.99389469 128.07706904 185.10954013 127.31933917 183.54125977 125.17700195 C182.88468114 119.04893477 182.88468114 119.04893477 184.81673908 116.48317242 C187.90927388 114.14085339 191.86708251 114.73852007 195.60253906 114.74462891 C196.52956635 114.73443726 197.45659363 114.72424561 198.41171265 114.71374512 C201.47969533 114.68352064 204.54736627 114.6743347 207.61547852 114.6652832 C209.74112493 114.64844354 211.86676135 114.63029427 213.99238586 114.61088562 C219.59010696 114.56330222 225.18778753 114.53354678 230.78564453 114.50744629 C236.49658212 114.47768284 242.2073799 114.43113807 247.91821289 114.38598633 C259.12582217 114.29985831 270.33346016 114.23255528 281.54125977 114.17700195 C280.27223118 105.82369451 276.66933775 100.42192129 269.85375977 95.36450195 C249.7074873 82.47921986 224.02739471 84.84530321 201.10375977 85.17700195 C196.11066041 85.24828003 191.11783115 85.3090111 186.12434196 85.34481812 C184.14943034 85.36409431 182.17472624 85.40181917 180.2000885 85.43994141 C179.00371262 85.44985107 177.80733673 85.45976074 176.57470703 85.4699707 C175.00306541 85.49353638 175.00306541 85.49353638 173.39967346 85.51757812 C169.35051202 85.03512595 166.69436854 83.42314885 163.94360352 80.45043945 C163.46020508 79.82395508 162.97680664 79.1974707 162.47875977 78.55200195 C147.97852438 61.47254899 127.87704182 57.02177289 106.54125977 54.17700195 C93.34125977 54.17700195 80.14125977 54.17700195 66.54125977 54.17700195 Z " fill="#000000" transform="translate(25.458740234375,294.822998046875)"/>
<path d="M0 0 C2.45541703 1.90435397 4.76669798 3.88726965 7.05859375 5.984375 C7.74050781 6.57476562 8.42242187 7.16515625 9.125 7.7734375 C18.43844835 16.33962287 25.04304777 28.07946221 29.05859375 39.984375 C29.37699219 40.91765625 29.69539062 41.8509375 30.0234375 42.8125 C35.89945513 63.50041461 32.40780263 85.66302139 22.2578125 104.2890625 C11.06361722 123.70563107 -7.38726906 135.84837471 -28.63671875 141.73046875 C-49.4329924 146.34126337 -71.57547846 141.99421111 -89.44921875 130.6875 C-107.32713328 118.46999101 -119.68920041 101.44165987 -123.94140625 79.984375 C-127.70931311 57.48307208 -122.86143145 35.85054815 -109.94140625 16.984375 C-83.39753582 -16.83353684 -35.43022502 -24.2788793 0 0 Z M-91.94140625 19.984375 C-92.65296875 20.67273438 -93.36453125 21.36109375 -94.09765625 22.0703125 C-105.78052054 34.15758363 -110.49460074 50.02450675 -110.36132812 66.53735352 C-109.75136906 83.94269176 -102.25238225 98.87196313 -89.94140625 110.984375 C-89.36648437 111.55800781 -88.7915625 112.13164062 -88.19921875 112.72265625 C-81.44616048 118.97488962 -72.69934031 123.29647247 -63.94140625 125.984375 C-63.3278125 126.18933594 -62.71421875 126.39429688 -62.08203125 126.60546875 C-47.05161418 130.82913246 -29.90736459 128.2615554 -16.19140625 121.296875 C-0.12826725 111.74002227 10.47726575 98.38240472 15.80859375 80.484375 C20.21574974 62.65428104 16.89013414 45.59889328 7.87890625 29.75 C-0.2547459 17.39243407 -11.28601636 9.28725045 -24.94140625 3.984375 C-25.73417969 3.66339844 -26.52695312 3.34242188 -27.34375 3.01171875 C-50.54453317 -4.86848407 -75.17997621 3.27881639 -91.94140625 19.984375 Z " fill="#000000" transform="translate(310.94140625,181.015625)"/>
<path d="M0 0 C1.02478958 -0.01606293 2.04957916 -0.03212585 3.10542297 -0.04867554 C7.79423407 -0.09307334 12.48290294 -0.13418799 17.171875 -0.15722656 C19.64625448 -0.17379281 22.12058599 -0.20109123 24.59472656 -0.23925781 C28.15870032 -0.29396741 31.72155179 -0.31589234 35.28588867 -0.33056641 C36.39124466 -0.35323578 37.49660065 -0.37590515 38.63545227 -0.39926147 C46.30425869 -0.37812881 46.30425869 -0.37812881 50.1105957 2.42773438 C50.76012207 3.34022949 51.40964844 4.25272461 52.07885742 5.19287109 C52.64612549 5.96920898 53.21339355 6.74554688 53.79785156 7.54541016 C54.31468506 8.34172852 54.83151855 9.13804688 55.36401367 9.95849609 C64.00179821 22.64084774 71.53957571 29.74438526 86.26977539 34.47290039 C88.07885742 35.19287109 88.07885742 35.19287109 90.07885742 37.19287109 C91.47517629 41.43175567 91.26281105 45.71514197 91.26635742 50.13037109 C91.27860352 50.92894531 91.29084961 51.72751953 91.3034668 52.55029297 C91.31418021 56.860658 91.17915252 60.30916753 89.07885742 64.19287109 C86.15610559 67.11562293 82.99670869 66.65402996 79.06274414 66.80297852 C78.22385084 66.84036479 77.38495754 66.87775106 76.52064323 66.91627026 C65.13161173 67.37660702 53.73329628 67.39778489 42.33666992 67.43115234 C41.1467532 67.43522787 39.95683647 67.4393034 38.73086166 67.44350243 C32.46160823 67.46415804 26.19237552 67.4785604 19.9230957 67.48803711 C13.45915934 67.49920904 6.99555706 67.53378887 0.53174019 67.57320881 C-4.46103572 67.59928435 -9.45372951 67.60771963 -14.44656754 67.61131859 C-16.8316289 67.61618847 -19.2166865 67.6278138 -21.60168076 67.64635658 C-24.92052539 67.67060923 -28.23846764 67.66981112 -31.55737305 67.6628418 C-32.53812805 67.67565186 -33.51888306 67.68846191 -34.52935791 67.70166016 C-38.80135384 67.6688813 -41.27805314 67.56732812 -45.0294342 65.38298035 C-47.71075177 62.27870778 -47.62314035 59.4223884 -47.55004883 55.50537109 C-47.55246078 54.76585205 -47.55487274 54.02633301 -47.55735779 53.2644043 C-47.5563804 51.70437241 -47.54301214 50.14430539 -47.51806641 48.58447266 C-47.48374711 46.20013313 -47.49741 43.81949983 -47.5168457 41.43505859 C-47.50994696 39.91681369 -47.5002743 38.39857834 -47.48754883 36.88037109 C-47.4925087 36.16985596 -47.49746857 35.45934082 -47.50257874 34.72729492 C-47.42403181 31.41658584 -47.11734026 29.4723993 -45.19726562 26.73681641 C-42.51096182 24.91463628 -41.15538544 24.72374322 -37.93676758 24.80224609 C-37.00219727 24.81513672 -36.06762695 24.82802734 -35.10473633 24.84130859 C-34.13665039 24.87482422 -33.16856445 24.90833984 -32.17114258 24.94287109 C-30.69581055 24.96994141 -30.69581055 24.96994141 -29.19067383 24.99755859 C-26.76650475 25.04462984 -24.34432199 25.11036368 -21.92114258 25.19287109 C-21.65237305 24.46293945 -21.38360352 23.73300781 -21.10668945 22.98095703 C-19.94649609 20.2524957 -18.62148994 18.02731047 -16.95239258 15.58349609 C-16.38133789 14.74689453 -15.8102832 13.91029297 -15.22192383 13.04833984 C-14.62766602 12.18853516 -14.0334082 11.32873047 -13.42114258 10.44287109 C-12.82688477 9.56759766 -12.23262695 8.69232422 -11.62036133 7.79052734 C-6.33150472 0.09004763 -6.33150472 0.09004763 0 0 Z M-1.67114258 19.06787109 C-3.49470675 21.92799125 -3.49470675 21.92799125 -3.92114258 25.19287109 C2.01885742 25.19287109 7.95885742 25.19287109 14.07885742 25.19287109 C14.07885742 21.89287109 14.07885742 18.59287109 14.07885742 15.19287109 C5.09615435 13.98238173 5.09615435 13.98238173 -1.67114258 19.06787109 Z M28.07885742 15.19287109 C28.07885742 18.49287109 28.07885742 21.79287109 28.07885742 25.19287109 C34.34885742 25.19287109 40.61885742 25.19287109 47.07885742 25.19287109 C44.2993109 19.51075463 44.2993109 19.51075463 40.07885742 15.19287109 C37.1069298 14.82967801 37.1069298 14.82967801 33.89135742 15.00537109 C32.26133789 15.04597656 32.26133789 15.04597656 30.59838867 15.08740234 C29.76694336 15.12220703 28.93549805 15.15701172 28.07885742 15.19287109 Z M-31.92114258 40.19287109 C-31.92114258 44.15287109 -31.92114258 48.11287109 -31.92114258 52.19287109 C3.71885742 52.19287109 39.35885742 52.19287109 76.07885742 52.19287109 C76.07885742 50.21287109 76.07885742 48.23287109 76.07885742 46.19287109 C64.19268388 39.49179125 53.52311466 39.39389143 40.14916992 39.60693359 C38.06168854 39.61814818 35.97419117 39.62667765 33.88668823 39.63265991 C28.4382433 39.65538012 22.99078452 39.71415568 17.54272461 39.78088379 C11.96506076 39.84267204 6.38723488 39.86975242 0.80932617 39.89990234 C-10.10125926 39.96391745 -21.01111837 40.06608946 -31.92114258 40.19287109 Z " fill="#000000" transform="translate(373.921142578125,84.80712890625)"/>
<path d="M0 0 C1.0209375 -0.01160156 1.0209375 -0.01160156 2.0625 -0.0234375 C4.66972482 0.51272567 5.50492231 1.16709888 7 3.375 C7.29296875 6.29296875 7.29296875 6.29296875 7.1875 9.5625 C7.14689453 11.19251953 7.14689453 11.19251953 7.10546875 12.85546875 C7.07066406 13.68691406 7.03585937 14.51835937 7 15.375 C8.46373047 15.30539063 8.46373047 15.30539063 9.95703125 15.234375 C11.22933594 15.19828125 12.50164062 15.1621875 13.8125 15.125 C15.07707031 15.07859375 16.34164062 15.0321875 17.64453125 14.984375 C21 15.375 21 15.375 22.92578125 17.203125 C24.38113122 20.14557803 24.40555562 22.13055502 24 25.375 C22.83935547 27.53100586 22.83935547 27.53100586 21 29.375 C18.35205078 29.87329102 18.35205078 29.87329102 15.1953125 29.87890625 C13.48408203 29.90694336 13.48408203 29.90694336 11.73828125 29.93554688 C10.54589844 29.93619141 9.35351562 29.93683594 8.125 29.9375 C5.77335038 29.94645623 3.42170685 29.9681184 1.0703125 30.00390625 C-0.49565674 30.0049939 -0.49565674 30.0049939 -2.09326172 30.00610352 C-5.44694463 30.4317221 -7.32310561 31.33172742 -10 33.375 C-11.08393041 37.01390922 -11.24461474 39.77944632 -10 43.375 C-6.80405484 44.37991059 -3.69842662 44.53518275 -0.36499023 44.66455078 C8.29761211 45.01453472 15.13320753 45.50421613 21.8125 51.5625 C26.95938162 57.17941647 28.69362086 63.21585775 28.40234375 70.7890625 C27.5051345 76.55559184 25.21963842 81.32961356 20.91015625 85.30078125 C16.36350583 88.55727104 12.57984198 90.13755992 7 90.375 C7.04640625 91.20644531 7.0928125 92.03789062 7.140625 92.89453125 C7.19476563 94.52455078 7.19476563 94.52455078 7.25 96.1875 C7.29640625 97.26644531 7.3428125 98.34539062 7.390625 99.45703125 C7 102.375 7 102.375 5.171875 104.234375 C2.20242298 105.79387138 0.30864772 105.85751113 -3 105.375 C-5.375 104.0625 -5.375 104.0625 -7 101.375 C-7.32924499 97.68426983 -7.22932778 94.06972534 -7 90.375 C-7.81984375 90.43300781 -8.6396875 90.49101562 -9.484375 90.55078125 C-18.25933546 90.918154 -18.25933546 90.918154 -21.8125 88.3125 C-23.3394525 84.53530171 -23.03180344 82.28111302 -22 78.375 C-18.58283962 74.95783962 -14.9151888 75.24547198 -10.24609375 75.1640625 C-9.14458984 75.13570313 -8.04308594 75.10734375 -6.90820312 75.078125 C-4.59065909 75.02595744 -2.27292345 74.98171164 0.04492188 74.9453125 C1.14513672 74.914375 2.24535156 74.8834375 3.37890625 74.8515625 C4.3851001 74.83174316 5.39129395 74.81192383 6.42797852 74.79150391 C9.02357152 74.5724765 9.02357152 74.5724765 10.82397461 73.02880859 C12.68921875 70.40577272 12.44590733 68.49635131 12 65.375 C10.5058297 63.06629361 10.5058297 63.06629361 8 61.375 C5.35028 61.02404371 3.02049764 60.87191163 0.375 60.875 C-8.01503381 60.59590179 -15.37513191 59.54487384 -21.4375 53.1875 C-25.57275389 47.66599622 -27.36125662 42.07785975 -26.875 35.1875 C-25.62158748 26.81418751 -21.64405668 22.32297312 -15 17.375 C-11.8712611 15.49653688 -10.87140763 15.375 -7 15.375 C-7.05220703 14.12783203 -7.05220703 14.12783203 -7.10546875 12.85546875 C-7.13253906 11.76878906 -7.15960938 10.68210938 -7.1875 9.5625 C-7.22230469 8.48355469 -7.25710938 7.40460938 -7.29296875 6.29296875 C-7 3.375 -7 3.375 -5.73828125 1.51171875 C-3.66060963 0.15306158 -2.46896392 -0.02805641 0 0 Z " fill="#000000" transform="translate(264,192.625)"/>
<path d="M0 0 C5.47676709 3.36074344 7.98521172 8.10652661 9.57421875 14.203125 C10.51099383 19.96479539 9.62987491 24.79101997 7 30 C4.6875 32.8125 4.6875 32.8125 2 35 C1.113125 35.7425 0.22625 36.485 -0.6875 37.25 C-6.56057437 40.35275627 -12.37996966 40.75485718 -18.75 38.875 C-24.61266551 36.55888523 -28.53617994 33.42764012 -31.375 27.75 C-33.93509038 21.2529639 -33.93509038 15.7470361 -31.375 9.25 C-28.61350084 3.70769051 -24.73005137 0.56633684 -19.0625 -1.8125 C-12.14618064 -4.10919049 -6.41318203 -3.1254115 0 0 Z M-18 16 C-18.75 18.5 -18.75 18.5 -18 21 C-15.91170257 23.50397498 -15.91170257 23.50397498 -13 25 C-9.74015326 25 -8.50307043 24.4695324 -6.125 22.25 C-4.78834787 20.03631565 -4.78834787 20.03631565 -5.125 17.4375 C-6.07762554 14.78375743 -6.66940198 13.58147723 -9 12 C-13.43815895 11.20340737 -15.38163641 12.41187212 -18 16 Z " fill="#000000" transform="translate(159,92)"/>
<path d="M0 0 C3.58162867 2.3905289 5.8716311 5.33416918 7.1875 9.4375 C7.96288335 14.48148856 7.7974264 18.2176472 5.5 22.8125 C2.1902718 26.56948877 -0.17651784 28.96558207 -5.0625 30.375 C-10.38397986 30.46369133 -15.37389959 29.61028141 -19.4609375 25.96875 C-23.47423336 21.23630864 -24.17297544 18.07469798 -24.0859375 12.04296875 C-23.59692 7.38333056 -21.90838683 4.26732866 -18.3046875 1.12109375 C-12.65069503 -2.6526175 -6.09628458 -3.01550693 0 0 Z " fill="#000000" transform="translate(440.8125,156.5625)"/>
<path d="M0 0 C3.58162867 2.3905289 5.8716311 5.33416918 7.1875 9.4375 C7.96288335 14.48148856 7.7974264 18.2176472 5.5 22.8125 C2.1902718 26.56948877 -0.17651784 28.96558207 -5.0625 30.375 C-10.38397986 30.46369133 -15.37389959 29.61028141 -19.4609375 25.96875 C-23.47423336 21.23630864 -24.17297544 18.07469798 -24.0859375 12.04296875 C-23.59692 7.38333056 -21.90838683 4.26732866 -18.3046875 1.12109375 C-12.65069503 -2.6526175 -6.09628458 -3.01550693 0 0 Z " fill="#000000" transform="translate(379.8125,156.5625)"/>
</svg>
