<?xml version="1.0" encoding="UTF-8"?>
<svg version="1.1" xmlns="http://www.w3.org/2000/svg" width="512" height="512">
<path d="M0 0 C1.19584717 -0.01393799 2.39169434 -0.02787598 3.6237793 -0.04223633 C10.48212973 -0.00444251 15.42906711 0.27888294 20.765625 4.98828125 C24.71130841 9.70358972 26.60950317 13.47769463 27.3125 19.6875 C26.69422911 25.76716376 24.68326823 31.21010225 20 35.3125 C15.306345 38.47353296 11.58833216 39.60669809 5.94921875 39.8671875 C4.78028076 39.92994873 3.61134277 39.99270996 2.40698242 40.05737305 C1.15892822 40.12093994 -0.08912598 40.18450684 -1.375 40.25 C-58.9005226 43.78920634 -111.13582281 66.75011338 -151.15625 108.5625 C-152.83747529 110.46577392 -154.45120173 112.41228169 -156.0625 114.375 C-156.79339844 115.20644531 -157.52429688 116.03789063 -158.27734375 116.89453125 C-195.28788409 159.63498146 -212.36385135 216.56135275 -208.86035156 272.60888672 C-206.41006452 302.31283814 -198.29521249 331.17128485 -184.0625 357.375 C-183.71074707 358.03693359 -183.35899414 358.69886719 -182.99658203 359.38085938 C-171.03338792 381.85553415 -154.80694349 403.16575211 -135.0625 419.375 C-134.23105469 420.10589844 -133.39960938 420.83679688 -132.54296875 421.58984375 C-89.80251854 458.60038409 -32.87614725 475.67635135 23.17138672 472.17285156 C52.87533814 469.72256452 81.73378485 461.60771249 107.9375 447.375 C108.59943359 447.02324707 109.26136719 446.67149414 109.94335938 446.30908203 C132.41803415 434.34588792 153.72825211 418.11944349 169.9375 398.375 C170.66839844 397.54355469 171.39929688 396.71210938 172.15234375 395.85546875 C204.67331967 358.29964979 221.1971984 310.4108914 223.07910156 261.16992188 C223.47879237 252.95227892 224.42794131 246.29451162 230.8125 240.5 C236.11207153 236.89629136 240.54805867 235.82418609 246.9375 236.375 C253.90742563 237.76623021 257.94000536 241.62787727 261.9375 247.375 C267.18338113 263.11264339 262.79848867 285.28475466 259.9375 301.375 C259.77121094 302.31118164 259.60492188 303.24736328 259.43359375 304.21191406 C251.75859266 345.81326258 233.51323569 384.5577686 206.9375 417.375 C206.49744629 417.91946777 206.05739258 418.46393555 205.60400391 419.02490234 C194.12575137 433.09673929 181.36030936 446.31180647 166.9375 457.375 C166.00679688 458.13425781 165.07609375 458.89351563 164.1171875 459.67578125 C131.86581086 485.5346216 92.41235354 502.00294761 51.9375 509.375 C51.10186523 509.53871094 50.26623047 509.70242188 49.40527344 509.87109375 C21.69586479 515.16156862 -10.41343304 514.79178597 -38.0625 509.375 C-38.97547852 509.20871094 -39.88845703 509.04242188 -40.82910156 508.87109375 C-82.4611228 501.21136923 -121.22302206 482.96875117 -154.0625 456.375 C-154.60696777 455.93494629 -155.15143555 455.49489258 -155.71240234 455.04150391 C-169.78423929 443.56325137 -182.99930647 430.79780936 -194.0625 416.375 C-194.82175781 415.44429688 -195.58101562 414.51359375 -196.36328125 413.5546875 C-222.2221216 381.30331086 -238.69044761 341.84985354 -246.0625 301.375 C-246.22621094 300.53936523 -246.38992187 299.70373047 -246.55859375 298.84277344 C-251.84906862 271.13336479 -251.47928597 239.02406696 -246.0625 211.375 C-245.89621094 210.46202148 -245.72992188 209.54904297 -245.55859375 208.60839844 C-237.89886923 166.9763772 -219.65625117 128.21447794 -193.0625 95.375 C-192.62244629 94.83053223 -192.18239258 94.28606445 -191.72900391 93.72509766 C-180.25075137 79.65326071 -167.48530936 66.43819353 -153.0625 55.375 C-152.13179688 54.61574219 -151.20109375 53.85648438 -150.2421875 53.07421875 C-118.08190382 27.28841585 -78.48771754 10.55552057 -38.0625 3.375 C-36.68143066 3.12943359 -36.68143066 3.12943359 -35.27246094 2.87890625 C-23.52870243 0.88242605 -11.90994567 0.09013931 0 0 Z " fill="#000000" transform="translate(249.0625,-0.375)"/>
<path d="M0 0 C4.73907019 2.77408987 7.72296306 6.47648004 9.75 11.5625 C11.01513785 19.00769972 10.37878995 24.10291694 6.33299887 30.37882125 C3.4990161 34.28817839 0.11127271 37.60549792 -3.31428528 40.99427795 C-4.12145624 41.80471776 -4.92862721 42.61515756 -5.7602579 43.45015615 C-8.45525084 46.15240703 -11.16079285 48.84383555 -13.86645508 51.53540039 C-15.80639761 53.47446881 -17.74407968 55.41579049 -19.68186951 57.35700989 C-24.39346454 62.07422508 -29.11296728 66.7834509 -33.83518104 71.49003346 C-39.33972848 76.9769996 -44.83616691 82.47205916 -50.33225735 87.96749418 C-60.14293268 97.77648305 -69.96064342 107.57839946 -79.7824707 117.3762207 C-89.30190973 126.8724098 -98.81679916 136.37312502 -108.32641602 145.87915039 C-108.9120043 146.4645159 -109.49759258 147.04988142 -110.10092596 147.65298528 C-111.28069907 148.83231578 -112.46047189 150.01164657 -113.64024441 151.19097766 C-114.22229266 151.77280634 -114.80434091 152.35463503 -115.40402699 152.95409489 C-116.27496507 153.82470899 -116.27496507 153.82470899 -117.16349785 154.71291125 C-126.24101496 163.78672142 -135.32235662 172.85670328 -144.40422276 181.92616026 C-147.68957155 185.20708416 -150.97442899 188.48849904 -154.25894312 191.77025849 C-159.47078384 196.97765421 -164.68430359 202.18335697 -169.90117363 207.3857146 C-172.28310207 209.76106629 -174.66401266 212.13741317 -177.04331589 214.51539612 C-179.6281622 217.09848681 -182.21606297 219.6784787 -184.80476379 222.25770569 C-185.92030544 223.37454706 -185.92030544 223.37454706 -187.05838329 224.51395088 C-191.09563832 228.52913273 -195.22509559 232.37479202 -199.54682112 236.08290589 C-201.80966514 238.04869511 -203.92336985 240.13753744 -206.02612305 242.27270508 C-206.87027267 243.12661331 -207.7144223 243.98052155 -208.58415222 244.86030579 C-209.90954765 246.20755989 -209.90954765 246.20755989 -211.26171875 247.58203125 C-212.20192783 248.53175115 -213.14259536 249.48101738 -214.08369446 250.42985535 C-218.04238897 254.42181929 -221.99654661 258.41819985 -225.94067383 262.42456055 C-227.89746755 264.4117417 -229.8582107 266.39486448 -231.82344055 268.373703 C-233.66606846 270.2294632 -235.50273145 272.09116972 -237.33268738 273.95942688 C-238.16738052 274.79757431 -239.00207367 275.63572174 -239.86206055 276.49926758 C-240.59071823 277.2376033 -241.31937592 277.97593903 -242.07011414 278.73664856 C-246.15587848 282.15884549 -249.95474406 282.85479631 -255.1875 282.875 C-256.18652344 282.89175781 -257.18554688 282.90851563 -258.21484375 282.92578125 C-265.07965994 282.10412371 -269.10897335 278.12899115 -273.6875 273.375 C-274.22181641 272.83552734 -274.75613281 272.29605469 -275.30664062 271.74023438 C-278.83497391 268.14412998 -282.16271296 264.40117557 -285.4621582 260.59545898 C-288.43435972 257.21576186 -291.53224557 253.95654824 -294.625 250.6875 C-299.44139906 245.57474333 -304.20281028 240.42541778 -308.87890625 235.18359375 C-311.9639045 231.77332386 -315.10631294 228.41861517 -318.25 225.0625 C-322.12171308 220.92888745 -325.97656041 216.78649954 -329.75 212.5625 C-333.48496128 208.38323106 -337.29535991 204.27973226 -341.125 200.1875 C-347.2101911 193.68460977 -353.24951915 187.14367254 -359.25 180.5625 C-360.09949219 179.64210937 -360.94898438 178.72171875 -361.82421875 177.7734375 C-362.62472656 176.89945313 -363.42523438 176.02546875 -364.25 175.125 C-364.95125 174.36316406 -365.6525 173.60132813 -366.375 172.81640625 C-370.82245073 167.47019985 -372.7166133 162.83881145 -372.5859375 155.84765625 C-371.7971197 150.48186073 -369.39001048 145.5610599 -365.41796875 141.8515625 C-360.09214009 138.21697332 -355.3131243 137.26878017 -348.98046875 137.7265625 C-337.76117075 139.86529782 -330.14014439 151.37846692 -323.0378418 159.53833008 C-320.09889465 162.86576566 -317.04963005 166.08677583 -314 169.3125 C-307.69291919 176.0120214 -301.45187694 182.76554042 -295.25 189.5625 C-293.43809793 191.54221934 -291.6257702 193.52153508 -289.8125 195.5 C-289.13525879 196.23911621 -289.13525879 196.23911621 -288.44433594 196.99316406 C-285.05445248 200.69056353 -281.65385304 204.37796203 -278.25 208.0625 C-276.24966322 210.22885598 -274.24972885 212.39558285 -272.25 214.5625 C-271.7540332 215.0997168 -271.25806641 215.63693359 -270.74707031 216.19042969 C-265.48134267 221.89813316 -260.24889962 227.61786262 -255.25 233.5625 C-250.17119968 229.30968048 -245.41229756 224.86364981 -240.7424469 220.16847229 C-239.65775908 219.08400776 -239.65775908 219.08400776 -238.55115837 217.97763485 C-236.14313305 215.56891837 -233.73869511 213.15665328 -231.33422852 210.74438477 C-229.60257873 209.01081463 -227.87070026 207.27747291 -226.13861084 205.54434204 C-222.41588244 201.81845771 -218.69465574 198.09108333 -214.97473335 194.36239815 C-209.58823943 188.96330991 -204.19847311 183.56749774 -198.80782556 178.17255699 C-190.04973006 169.40740356 -181.29350481 160.64038452 -172.53881836 151.87182617 C-172.01553654 151.34771654 -171.49225472 150.82360691 -170.95311587 150.28361516 C-166.70831526 146.03207127 -162.46360548 141.7804367 -158.21890068 137.52879715 C-154.5098269 133.81367094 -150.80071722 130.09858057 -147.09155273 126.38354492 C-146.56921681 125.86038087 -146.04688088 125.33721681 -145.50871659 124.7981993 C-136.78654721 116.06232446 -128.06239933 107.32842804 -119.33684868 98.59593052 C-113.96259457 93.21720664 -108.59012067 87.8367164 -103.21996426 82.45390128 C-99.10194943 78.32643263 -94.98137011 74.20153084 -90.85986328 70.07754898 C-89.17398136 68.38979893 -87.48896218 66.70118656 -85.80488396 65.01163673 C-83.5004244 62.69992776 -81.19286047 60.39136092 -78.88453674 58.08351135 C-78.22391646 57.41929611 -77.56329619 56.75508087 -76.88265711 56.0707379 C-73.04349802 52.23997833 -69.09041532 48.60007941 -64.97665834 45.06528443 C-62.74803191 43.12561575 -60.66512493 41.06943874 -58.59741211 38.95996094 C-57.37090187 37.71397125 -57.37090187 37.71397125 -56.11961365 36.44281006 C-55.26416458 35.56965149 -54.40871552 34.69649292 -53.52734375 33.796875 C-52.14555592 32.39842948 -50.76375575 30.9999959 -49.3812418 29.60226822 C-46.00809304 26.1912951 -42.63966294 22.77579466 -39.28295898 19.34863281 C-37.38663187 17.41306126 -35.48501596 15.48298826 -33.57728577 13.55865479 C-31.79049152 11.75597469 -30.01148048 9.94553691 -28.24143982 8.12640381 C-20.18815635 0.03822057 -11.42552861 -4.76245743 0 0 Z " fill="#000000" transform="translate(493.25,65.4375)"/>
</svg>
