<?xml version="1.0" encoding="UTF-8"?>
<!DOCTYPE svg PUBLIC "-//W3C//DTD SVG 1.1//EN" "http://www.w3.org/Graphics/SVG/1.1/DTD/svg11.dtd">
<svg xmlns="http://www.w3.org/2000/svg" version="1.1" width="512px" height="512px" style="shape-rendering:geometricPrecision; text-rendering:geometricPrecision; image-rendering:optimizeQuality; fill-rule:evenodd; clip-rule:evenodd" xmlns:xlink="http://www.w3.org/1999/xlink">
<g><path style="opacity:0.998" fill="#009045" d="M 393.5,223.5 C 336.156,283.511 279.156,343.844 222.5,404.5C 175.845,355.01 129.345,305.344 83,255.5C 82.3653,253.365 82.6986,251.365 84,249.5C 96.2637,229.296 108.764,209.296 121.5,189.5C 154.833,216.167 188.167,242.833 221.5,269.5C 259.899,224.44 297.899,179.107 335.5,133.5C 357.832,106.999 379.999,80.3319 402,53.5C 427,79.8333 452,106.167 477,132.5C 477.667,133.167 477.667,133.833 477,134.5C 449.328,164.338 421.495,194.005 393.5,223.5 Z"/></g>
<g><path style="opacity:0.996" fill="#afee8e" d="M 335.5,133.5 C 297.899,179.107 259.899,224.44 221.5,269.5C 188.167,242.833 154.833,216.167 121.5,189.5C 108.764,209.296 96.2637,229.296 84,249.5C 82.6986,251.365 82.3653,253.365 83,255.5C 129.345,305.344 175.845,355.01 222.5,404.5C 279.156,343.844 336.156,283.511 393.5,223.5C 411.295,297.929 392.628,361.429 337.5,414C 285.832,456.403 227.499,469.07 162.5,452C 108.704,434.873 69.8708,400.706 46,349.5C 19.2056,281.072 27.5389,217.406 71,158.5C 118.538,103.648 178.371,81.8146 250.5,93C 282.301,99.5703 310.635,113.07 335.5,133.5 Z"/></g>
</svg>
