<?xml version="1.0" standalone="no"?>
<!DOCTYPE svg PUBLIC "-//W3C//DTD SVG 20010904//EN"
 "http://www.w3.org/TR/2001/REC-SVG-20010904/DTD/svg10.dtd">
<svg version="1.0" xmlns="http://www.w3.org/2000/svg"
 width="800.000000pt" height="800.000000pt" viewBox="0 0 800.000000 800.000000"
 preserveAspectRatio="xMidYMid meet">
<metadata>
Created by potrace 1.16, written by Peter Selinger 2001-2019
</metadata>
<g transform="translate(0.000000,800.000000) scale(0.100000,-0.100000)"
fill="#000000" stroke="none">
<path d="M4160 5994 c-19 -3 -102 -18 -185 -34 -152 -29 -375 -70 -745 -135
-113 -20 -206 -38 -208 -39 -1 -2 -3 -112 -4 -246 l-1 -243 27 -22 c66 -53
348 -128 476 -128 91 0 107 5 370 114 l105 44 185 -4 c288 -7 423 -7 453 2 31
8 59 59 49 86 -9 23 -43 49 -72 55 -35 8 -363 43 -570 61 -222 20 -229 22
-230 70 0 15 10 25 33 33 56 20 132 17 705 -33 223 -19 233 -25 462 -255 116
-116 202 -194 254 -228 90 -58 163 -81 210 -63 27 11 28 14 22 54 -8 52 -23
73 -184 261 -165 191 -311 363 -338 398 -38 49 -95 77 -257 129 -89 28 -209
66 -267 85 -104 34 -210 48 -290 38z"/>
<path d="M2670 5823 c-14 -3 -28 -10 -32 -17 -9 -13 -11 -518 -2 -540 4 -11
19 -16 45 -16 l39 0 0 290 c0 226 -3 290 -12 289 -7 -1 -24 -4 -38 -6z"/>
<path d="M2810 5540 l0 -291 43 3 42 3 2 270 c2 149 -1 276 -6 283 -4 8 -25
16 -45 19 l-36 5 0 -292z"/>
<path d="M3026 5109 c-130 -19 -292 -73 -438 -145 l-87 -44 30 -80 c93 -255
225 -500 334 -619 61 -68 148 -127 222 -153 55 -18 88 -23 173 -22 120 0 166
11 233 54 l49 31 -35 63 c-51 92 -113 170 -213 266 -81 78 -224 189 -282 219
-13 7 -22 15 -19 17 8 9 208 -75 305 -128 163 -88 265 -172 343 -282 80 -113
90 -160 93 -430 l3 -229 131 -1 132 -1 0 127 c0 70 5 151 11 180 34 162 174
305 403 414 91 43 296 109 317 102 6 -2 -26 -18 -70 -36 -156 -64 -316 -189
-393 -306 -21 -33 -38 -63 -38 -67 0 -17 57 -61 107 -85 199 -93 427 -61 559
78 63 66 147 195 209 323 58 117 125 282 125 306 0 14 -134 78 -250 119 -259
92 -484 91 -679 -3 -126 -61 -255 -216 -277 -334 -4 -21 -22 -47 -51 -74 l-44
-41 -36 59 c-35 57 -36 60 -34 153 2 72 -3 111 -19 161 -48 158 -197 307 -371
372 -115 44 -292 58 -443 36z"/>
<path d="M3050 3345 l0 -135 820 0 820 0 0 135 0 135 -820 0 -820 0 0 -135z"/>
<path d="M3190 3063 c1 -5 29 -120 64 -258 l63 -250 43 -27 c23 -15 66 -32 94
-38 63 -13 661 -61 736 -59 38 1 22 4 -50 10 -204 17 -605 60 -642 70 -90 23
-130 136 -69 197 55 55 116 60 439 40 227 -13 231 -13 437 72 77 32 154 62
170 67 31 10 35 21 69 156 l6 27 -680 0 c-374 0 -680 -3 -680 -7z"/>
<path d="M2645 2963 c-22 -21 -15 -71 17 -116 41 -58 518 -616 545 -637 14
-11 153 -62 307 -112 364 -120 324 -119 876 -15 223 42 466 86 540 98 74 12
145 25 157 30 l23 9 0 224 c0 124 -4 236 -10 250 -14 37 -59 61 -185 100 -148
46 -215 59 -310 59 -85 0 -109 -7 -337 -102 -149 -62 -187 -67 -390 -53 -287
20 -369 16 -407 -20 -40 -37 -16 -104 44 -122 27 -7 368 -43 583 -60 175 -14
222 -27 222 -61 0 -7 -12 -23 -26 -34 -36 -28 -89 -27 -518 8 -341 29 -350 30
-410 60 -79 39 -133 85 -235 199 -103 114 -254 242 -334 282 -68 34 -127 39
-152 13z"/>
<path d="M5243 2750 l-23 -9 0 -276 0 -275 23 0 c12 0 32 -3 45 -6 l22 -6 0
291 0 291 -22 -1 c-13 0 -33 -4 -45 -9z"/>
<path d="M5400 2469 l0 -291 31 6 c17 3 38 6 45 6 19 0 21 539 2 558 -7 7 -27
12 -45 12 l-33 0 0 -291z"/>
</g>
</svg>
