<?xml version="1.0" standalone="no"?>
<!DOCTYPE svg PUBLIC "-//W3C//DTD SVG 20010904//EN"
 "http://www.w3.org/TR/2001/REC-SVG-20010904/DTD/svg10.dtd">
<svg version="1.0" xmlns="http://www.w3.org/2000/svg"
 width="800.000000pt" height="800.000000pt" viewBox="0 0 800.000000 800.000000"
 preserveAspectRatio="xMidYMid meet">
<metadata>
Created by potrace 1.16, written by Peter Selinger 2001-2019
</metadata>
<g transform="translate(0.000000,800.000000) scale(0.100000,-0.100000)"
fill="#000000" stroke="none">
<path d="M4750 6486 c-347 -129 -605 -311 -728 -512 -76 -123 -110 -275 -93
-413 12 -92 51 -216 88 -280 l26 -44 32 119 c100 364 282 641 520 790 21 13 8
-6 -44 -66 -95 -110 -179 -237 -246 -375 -58 -117 -135 -336 -158 -447 l-15
-68 88 0 c172 0 317 58 430 170 146 146 225 365 250 693 10 128 -1 445 -16
469 -7 12 -8 11 -134 -36z"/>
<path d="M4031 5095 c-44 -142 -55 -231 -56 -437 0 -109 -2 -197 -5 -195 -3 2
-40 20 -83 41 -63 31 -81 36 -90 26 -9 -10 -9 -14 1 -17 24 -9 130 -101 155
-135 50 -67 67 -122 102 -328 23 -132 36 -698 25 -995 -9 -207 -42 -571 -69
-760 -20 -138 -22 -133 75 -204 47 -34 87 -61 89 -59 4 4 31 289 47 503 12
162 17 868 8 1160 -5 159 -5 160 22 212 15 28 53 79 84 112 43 46 52 62 41 67
-19 7 -46 -7 -114 -57 -29 -22 -54 -39 -56 -39 -3 0 -10 28 -16 63 -7 34 -39
166 -71 292 -33 127 -65 275 -71 330 -12 110 -6 275 15 395 8 41 12 78 9 83
-11 19 -24 2 -42 -58z"/>
<path d="M3025 5014 c-148 -27 -329 -90 -495 -174 -132 -67 -132 -54 -2 -179
390 -378 737 -496 1016 -348 61 32 206 163 206 186 0 7 -51 36 -112 66 -235
111 -489 180 -713 192 l-120 7 45 15 c33 11 92 15 220 15 151 0 188 -3 270
-23 139 -35 268 -86 383 -153 43 -25 47 -26 47 -9 0 10 -19 56 -42 102 -124
249 -382 360 -703 303z"/>
<path d="M4993 4740 c-188 -19 -338 -83 -444 -189 -97 -97 -159 -234 -159
-349 l0 -44 89 85 c204 193 473 320 674 316 51 -1 52 -1 17 -10 -160 -45 -357
-145 -515 -265 -76 -57 -225 -191 -225 -203 0 -11 99 -68 160 -91 87 -34 210
-38 301 -10 176 53 339 196 495 435 59 90 157 275 151 282 -3 2 -56 13 -118
23 -142 22 -319 31 -426 20z"/>
<path d="M3495 3728 c-28 -16 -35 -28 -35 -65 0 -48 30 -73 85 -73 l45 0 0
-281 0 -280 -156 -267 c-86 -147 -169 -287 -184 -312 -15 -25 -66 -111 -114
-192 -119 -205 -237 -405 -345 -588 l-91 -155 0 -70 c0 -91 22 -183 62 -259
45 -85 155 -192 240 -233 l68 -33 1073 0 1074 0 74 37 c184 91 313 311 296
505 -6 63 0 53 -200 393 -72 121 -168 285 -215 365 -46 80 -171 291 -276 470
l-191 325 -5 270 c-3 148 -3 278 -1 288 2 13 13 17 47 17 77 0 112 73 59 125
-24 25 -24 25 -235 25 l-210 0 0 -44 c0 -24 3 -58 6 -75 l7 -31 83 0 84 0 0
-296 0 -296 104 -177 c99 -169 335 -571 476 -811 37 -63 124 -211 194 -329 69
-118 126 -225 126 -237 0 -136 -92 -289 -211 -350 l-48 -24 -1038 0 -1037 0
-45 22 c-107 52 -196 184 -208 310 l-6 65 103 174 c56 96 133 226 170 289 37
63 119 203 182 310 63 107 187 317 274 465 l159 270 5 305 5 305 104 3 104 3
-7 52 c-3 29 -6 62 -6 75 l0 22 -212 0 c-140 -1 -220 -5 -233 -12z"/>
<path d="M3056 1539 c-29 -23 -33 -54 -10 -87 l15 -22 633 0 c490 0 636 3 649
13 9 6 19 24 22 39 5 21 1 33 -19 52 l-25 26 -619 0 c-611 0 -620 0 -646 -21z"/>
<path d="M3715 1315 c-30 -29 -32 -55 -6 -86 l19 -24 632 0 632 0 19 24 c26
31 24 57 -6 86 l-24 25 -621 0 -621 0 -24 -25z"/>
</g>
</svg>
