<?xml version="1.0" encoding="UTF-8"?>
<svg version="1.1" xmlns="http://www.w3.org/2000/svg" width="512" height="512">
<path d="M0 0 C8.01411106 6.55252113 13.51239483 14.03732206 15.75 24.25 C15.89311739 25.81662829 15.99436072 27.38738391 16.06420898 28.95898438 C16.10586685 29.89230591 16.14752472 30.82562744 16.19044495 31.78723145 C16.22943405 32.79588257 16.26842316 33.80453369 16.30859375 34.84375 C16.35084579 35.90170776 16.39309784 36.95966553 16.43663025 38.04968262 C16.88298304 50.28269815 16.86009893 62.51078708 16.8125 74.75 C16.80746441 77.04947817 16.80290522 79.34895743 16.79882812 81.6484375 C16.78800982 87.18231629 16.77144186 92.71615268 16.75 98.25 C17.35328125 97.97285156 17.9565625 97.69570312 18.578125 97.41015625 C19.37734375 97.04792969 20.1765625 96.68570313 21 96.3125 C21.78890625 95.95285156 22.5778125 95.59320313 23.390625 95.22265625 C32.49367122 91.46991038 42.87769771 92.35886131 51.95703125 95.69140625 C60.46397226 100.43863627 67.02997228 107.39915021 73.65625 114.41796875 C75.54998546 116.38671298 77.45135571 118.34805032 79.3515625 120.31054688 C82.30742846 123.36775203 85.2525591 126.43347475 88.16308594 129.53393555 C99.3337915 141.41109011 107.96707858 150.57496262 124.75 152.25 C127.73566798 153.2061279 130.43229262 154.45278118 133.1875 155.9375 C133.84161865 156.2778125 134.4957373 156.618125 135.16967773 156.96875 C141.16644257 160.22424232 146.03856269 164.31922203 150.75 169.25 C151.37003906 169.85070312 151.99007812 170.45140625 152.62890625 171.0703125 C166.67880967 185.59168919 171.35973585 206.86134601 172.28515625 226.375 C172.32813339 227.23955811 172.37111053 228.10411621 172.41539001 228.99487305 C172.50519768 230.82023317 172.59334782 232.64567552 172.67993164 234.47119141 C172.81078953 237.21414627 172.94896141 239.95666231 173.08789062 242.69921875 C173.17492496 244.48695752 173.26152653 246.27471742 173.34765625 248.0625 C173.38826675 248.85994629 173.42887726 249.65739258 173.47071838 250.47900391 C173.82227967 258.09130826 173.75 265.59911715 173.75 273.25 C186.95 273.25 200.15 273.25 213.75 273.25 C213.75 268.3 213.75 263.35 213.75 258.25 C213.83600373 254.94325706 213.93517475 251.64708452 214.08203125 248.34375 C214.11930832 247.49051147 214.15658539 246.63727295 214.19499207 245.75817871 C214.27458032 243.98046037 214.35614621 242.20282947 214.43969727 240.42529297 C214.5623197 237.75392798 214.66889056 235.08220614 214.77539062 232.41015625 C215.84673788 208.10598284 220.83038184 184.95032213 238.75 167.25 C239.36359375 166.61449219 239.9771875 165.97898437 240.609375 165.32421875 C249.91425706 156.35733454 264.09467741 150.59532482 276.79003906 148.82641602 C282.280138 147.23048051 285.85473713 142.70931594 289.70347023 138.70291901 C291.16956549 137.17707045 292.65081711 135.66745535 294.13664246 134.16082764 C297.29293755 130.9544203 300.42836365 127.72804621 303.5625 124.5 C307.18836446 120.76955807 310.8227416 117.04792391 314.47342491 113.34175873 C315.91900324 111.86692268 317.35129284 110.38004179 318.78315735 108.89190674 C328.1256962 99.37824952 336.90730522 93.34778938 350.5 92.875 C358.0098093 92.96325631 364.0879548 94.9189774 370.75 98.25 C370.74777939 97.67689087 370.74555878 97.10378174 370.74327087 96.51330566 C370.72071037 90.41089519 370.70588829 84.30849699 370.69506836 78.20605469 C370.69011687 75.94498207 370.68335393 73.68391251 370.67456055 71.42285156 C370.64532505 63.69780065 370.66383809 55.97466431 370.75 48.25 C370.76218567 47.15107422 370.77437134 46.05214844 370.78692627 44.91992188 C370.83520947 41.70596347 370.91400889 38.49428867 371.00390625 35.28125 C371.01775864 34.33125122 371.03161102 33.38125244 371.04588318 32.40246582 C371.49002664 19.75755543 376.4364777 10.06358355 385.5625 1.5 C395.18957096 -6.59339171 405.63324917 -7.40596302 417.75 -6.75 C427.69159108 -5.26760133 436.32244831 0.60969448 442.5078125 8.4375 C448.33222828 16.93601863 450.0650841 25.61247803 449.98046875 35.76171875 C449.98050903 36.69545822 449.98054932 37.62919769 449.98059082 38.5912323 C449.97716359 41.70679095 449.95810174 44.82201049 449.9375 47.9375 C449.92852867 50.15055233 449.91982802 52.36360578 449.91137695 54.57666016 C449.88267093 60.75699405 449.83509171 66.93707042 449.78320312 73.11724854 C449.75349667 76.71271153 449.72929677 80.30819402 449.7061739 83.90370464 C449.65110123 92.44064327 449.57621472 100.97720171 449.48452759 109.51382446 C449.45203448 112.57123938 449.42561884 115.62861339 449.40438843 118.68612671 C449.37844202 122.33222877 449.33789612 125.9779067 449.28700256 129.62374306 C449.26266977 131.60235525 449.2522075 133.58112318 449.24230957 135.55986023 C448.96492304 152.63558575 444.82457061 165.19667298 433.07568359 177.57226562 C432.41769964 178.26926323 431.75971569 178.96626083 431.08179283 179.68437958 C424.26079884 186.85437025 417.17231834 193.73762962 410.04570389 200.60154724 C405.27252069 205.21199206 400.53933423 209.86361696 395.79808998 214.50685883 C391.66209791 218.55290002 387.51325875 222.58401395 383.3359375 226.58740234 C379.24602482 230.50861848 375.19441757 234.46600966 371.16572189 238.45005798 C369.63920513 239.94658255 368.09951028 241.42979784 366.54616165 242.89845276 C355.88618094 252.74264845 355.88618094 252.74264845 352.30615234 266.28320312 C352.33724265 268.64355159 352.49851288 270.89852532 352.75 273.25 C353.58752808 273.22240601 354.42505615 273.19481201 355.28796387 273.16638184 C358.67085946 273.0615386 362.05356979 273.00019855 365.4375 272.9375 C366.63568359 272.89560547 367.83386719 272.85371094 369.06835938 272.81054688 C370.22529297 272.79443359 371.38222656 272.77832031 372.57421875 272.76171875 C373.63729248 272.73553467 374.70036621 272.70935059 375.7956543 272.68237305 C379.87345065 273.46585181 381.17271957 275.03079079 383.75 278.25 C384.24606821 281.00709489 384.43653282 283.14859311 384.39697266 285.8984375 C384.41011505 287.02865326 384.41011505 287.02865326 384.42352295 288.18170166 C384.44546498 290.66339319 384.43098439 293.14329152 384.4140625 295.625 C384.41743217 297.35465841 384.42228605 299.08431452 384.42855835 300.81396484 C384.43592258 304.43545114 384.42523913 308.05631997 384.40185547 311.67773438 C384.37336739 316.31518705 384.38977385 320.95119292 384.41971779 325.58859253 C384.43780326 329.1592088 384.43202713 332.72948318 384.41907883 336.30010986 C384.41574824 338.00970634 384.41981971 339.71933406 384.43147659 341.42889404 C384.44420671 343.82061727 384.42478212 346.21001232 384.39697266 348.6015625 C384.41215439 349.6568515 384.41215439 349.6568515 384.42764282 350.73345947 C384.34971976 354.35877445 383.89162599 356.07263436 381.60904884 358.93122518 C378.19977898 361.69624584 376.7041474 361.8760628 372.37030029 361.8792057 C371.07457218 361.89224444 369.77884407 361.90528318 368.44385147 361.91871703 C367.00781154 361.90790696 365.5717751 361.89662368 364.13574219 361.88491821 C362.60880478 361.89067888 361.0818743 361.89861964 359.55495834 361.90855443 C355.35713757 361.92945885 351.15988394 361.91909652 346.96206093 361.90362334 C342.43572744 361.89232836 337.9094927 361.90976332 333.38317871 361.92352295 C324.51539902 361.94577974 315.64783069 361.94094332 306.78004265 361.92645974 C299.57433205 361.91517709 292.36868076 361.91363238 285.16296387 361.91907883 C284.13820127 361.91984499 283.11343868 361.92061116 282.05762267 361.92140054 C279.97596898 361.92299913 277.8943153 361.9246202 275.81266165 361.9262635 C256.28367404 361.94052815 236.7548037 361.92411703 217.22583532 361.89726166 C200.46169606 361.87492225 183.69772989 361.87880217 166.93359375 361.90185547 C147.47546156 361.92860082 128.01743221 361.93915479 108.55928421 361.92379415 C106.48520153 361.92220137 104.41111884 361.92062952 102.33703613 361.91907883 C101.31649383 361.91830745 100.29595153 361.91753607 99.24448371 361.91674132 C92.04573588 361.91242052 84.84705317 361.91971905 77.64831543 361.93147659 C68.87783317 361.94548608 60.1075747 361.94173436 51.33711815 361.91507287 C46.86049962 361.90191374 42.38425449 361.89681782 37.90763855 361.91331863 C33.8117117 361.92818812 29.71650532 361.92008036 25.62064409 361.89343087 C24.1368724 361.88783305 22.65304019 361.89071553 21.16930723 361.90280981 C19.15614639 361.91796427 17.14281567 361.89946342 15.12969971 361.8792057 C14.01033649 361.87839394 12.89097328 361.87758218 11.73768997 361.87674582 C7.76140813 361.0426171 6.25311894 359.38478685 3.75 356.25 C3.25393179 353.49290511 3.06346718 351.35140689 3.10302734 348.6015625 C3.09426575 347.84808533 3.08550415 347.09460815 3.07647705 346.31829834 C3.05453502 343.83660681 3.06901561 341.35670848 3.0859375 338.875 C3.08256783 337.14534159 3.07771395 335.41568548 3.07144165 333.68603516 C3.06407742 330.06454886 3.07476087 326.44368003 3.09814453 322.82226562 C3.12663261 318.18481295 3.11022615 313.54880708 3.08028221 308.91140747 C3.06219674 305.3407912 3.06797287 301.77051682 3.08092117 298.19989014 C3.08425176 296.49029366 3.08018029 294.78066594 3.06852341 293.07110596 C3.05579329 290.67938273 3.07521788 288.28998768 3.10302734 285.8984375 C3.09290619 285.1949115 3.08278503 284.4913855 3.07235718 283.76654053 C3.15470005 279.93559744 3.68057921 278.33671157 6.10578918 275.30744934 C9.32361231 272.80367467 10.8920045 272.66236464 14.92578125 272.76171875 C16.08271484 272.77783203 17.23964844 272.79394531 18.43164062 272.81054688 C19.62982422 272.85244141 20.82800781 272.89433594 22.0625 272.9375 C23.28001953 272.96005859 24.49753906 272.98261719 25.75195312 273.00585938 C28.75261863 273.06469595 31.75046534 273.15117449 34.75 273.25 C35.62917663 266.84333696 35.85134485 260.64793579 32.36158371 255.00489044 C27.61991993 248.98986243 21.97274156 243.80479346 16.43359375 238.5390625 C14.65715186 236.79574132 12.88417856 235.04887931 11.11451721 233.29867554 C6.46262336 228.7151034 1.76841426 224.17749179 -2.93731689 219.64929199 C-8.63256773 214.15388937 -14.27885208 208.60828596 -19.92993832 203.06754112 C-24.3304718 198.75408269 -28.73830781 194.44920995 -33.17201233 190.16983032 C-48.65235163 175.18945217 -60.87843888 162.23056859 -61.56884766 139.59008789 C-61.61022046 137.05108272 -61.64137952 134.51189717 -61.6640625 131.97265625 C-61.68310691 130.57823159 -61.70291705 129.18381721 -61.72343445 127.78941345 C-61.77552601 124.06683275 -61.81551863 120.34422394 -61.85190201 116.62145996 C-61.87507029 114.30547377 -61.9008775 111.98953194 -61.92758179 109.67358398 C-62.02637298 101.08850442 -62.11138301 92.5033855 -62.18668842 83.91806984 C-62.2420489 77.7635006 -62.32109394 71.60945188 -62.40368652 65.45518494 C-62.46183533 60.798155 -62.50172202 56.14112395 -62.53509521 51.4838562 C-62.55315806 49.35238 -62.5777829 47.22094783 -62.60943604 45.08963013 C-62.8099164 30.94363982 -62.98196822 17.60024778 -53.23828125 6.25 C-38.82310411 -8.25013889 -17.40554331 -12.1805523 0 0 Z M-41.35546875 15.9453125 C-46.62954004 22.36119304 -47.83603345 29.0896554 -47.67578125 37.18359375 C-47.67299164 38.14649826 -47.67020203 39.10940277 -47.66732788 40.10148621 C-47.65255264 43.29732113 -47.60820616 46.49196876 -47.5625 49.6875 C-47.54332249 51.9490449 -47.52553321 54.21060195 -47.5090332 56.47216797 C-47.46853724 61.38483044 -47.41331904 66.29707078 -47.34863281 71.20947266 C-47.26646463 77.55005189 -47.21113352 83.89042464 -47.16702366 90.23136997 C-47.11949161 96.97448622 -47.05451024 103.71733969 -46.98251343 110.4602356 C-46.95145995 113.39094134 -46.92594373 116.32161645 -46.90493774 119.25241089 C-46.87428146 123.38994206 -46.8190757 127.52681523 -46.76171875 131.6640625 C-46.75530365 132.89118454 -46.74888855 134.11830658 -46.74227905 135.38261414 C-46.45959321 151.89251852 -40.35940302 161.65069504 -28.78198242 173.04272461 C-27.95365906 173.86987976 -27.12533569 174.69703491 -26.27191162 175.54925537 C-23.55668897 178.25734135 -20.83111565 180.95475354 -18.10546875 183.65234375 C-16.20998634 185.53968374 -14.31515708 187.42765637 -12.42121887 189.31654358 C-7.95891635 193.76442444 -3.4894409 198.2050178 0.98309296 202.64260823 C9.00859071 210.60588722 17.02165512 218.58166964 25.03213233 226.56005484 C28.29460248 229.80878737 31.56214307 233.05236693 34.83100891 236.29466248 C36.53040423 237.98404029 38.22972383 239.67349427 39.92895508 241.36303711 C40.71074631 242.13651993 41.49253754 242.91000275 42.29801941 243.70692444 C43.00592621 244.41187042 43.71383301 245.11681641 44.44319153 245.84312439 C45.06129605 246.45641067 45.67940058 247.06969694 46.31623554 247.70156765 C52.73334319 254.63189503 49.26295519 262.53501427 49.75 273.25 C85.72 273.25 121.69 273.25 158.75 273.25 C158.75 262.43998379 158.61298891 251.74368389 158.11523438 240.96240234 C158.03858416 239.24134522 157.9688901 237.51996382 157.90625 235.79833984 C157.37009695 221.11277276 156.14386896 205.92235853 149 192.75 C148.65493408 192.09330322 148.30986816 191.43660645 147.9543457 190.76000977 C140.31869708 176.73849746 128.85270206 169.67449903 113.89886475 164.8057251 C111.65941255 164.18090765 111.65941255 164.18090765 108.94146729 163.87347412 C98.84988288 162.29370186 93.50845482 157.2766279 86.7890625 150.125 C85.70593823 149.01298396 84.62022131 147.90348799 83.53207397 146.79638672 C80.69484729 143.89880674 77.88735308 140.9742193 75.08728027 138.04077148 C70.59338312 133.34087334 66.0591005 128.68021265 61.51704025 124.0269165 C59.94483366 122.4067106 58.38813571 120.77272742 56.83291626 119.13623047 C55.8651004 118.13468962 54.89688975 117.13353008 53.92822266 116.1328125 C53.09473297 115.26027832 52.26124329 114.38774414 51.40249634 113.48876953 C46.24603742 109.13659646 40.93523633 107.66235482 34.23828125 107.90625 C27.62923826 108.81927321 22.98634397 112.21115664 18.94140625 117.40234375 C15.71364768 122.40801524 15.53700171 127.12665837 16.0703125 132.84375 C17.99473725 139.656656 22.41615697 144.34048983 27.33862305 149.16333008 C27.99109009 149.81462891 28.64355713 150.46592773 29.3157959 151.13696289 C31.4575327 153.27155612 33.60957782 155.39543271 35.76171875 157.51953125 C37.25649008 159.00616092 38.7505234 160.49353297 40.24385071 161.98161316 C44.16447766 165.88516814 48.09359936 169.78005344 52.02502441 173.67272949 C58.3302564 179.91861962 64.62269456 186.17739397 70.91468239 192.43662071 C73.11512028 194.62307009 75.31931128 196.80567977 77.52409363 198.98774719 C78.86599633 200.31963133 80.20782285 201.65159222 81.54956055 202.98364258 C82.16618057 203.59195419 82.7828006 204.20026581 83.41810608 204.82701111 C88.67371035 210.05479543 88.67371035 210.05479543 88.9375 214.1875 C88.75 217.25 88.75 217.25 86.75 220.25 C83.59004868 221.47886996 82.15846502 221.41307976 78.99440002 220.14982605 C75.09824622 217.86835199 72.24947689 215.17031022 69.08959961 211.9777832 C68.45301926 211.34645981 67.8164389 210.71513641 67.16056824 210.06468201 C65.06690474 207.98417687 62.98435473 205.89294252 60.90234375 203.80078125 C59.44359902 202.34405894 57.98440932 200.88778208 56.52479553 199.43193054 C53.46955288 196.38110606 50.41978922 193.32493443 47.3737793 190.26489258 C43.48137525 186.35542772 39.57569891 182.45954552 35.66577816 178.56760883 C32.649927 175.56263498 29.64130307 172.55050658 26.63476753 169.53621483 C25.19814415 168.09759878 23.75931261 166.66118416 22.31818962 165.22707558 C20.29841879 163.21498061 18.28860823 161.19341661 16.28100586 159.16918945 C15.69125977 158.58551605 15.10151367 158.00184265 14.49389648 157.40048218 C3.25014088 145.98489285 1.35093246 133.79554782 1.4357605 118.29138184 C1.45442005 116.51716965 1.473233 114.74295906 1.4921875 112.96875 C1.50035012 111.10567809 1.50700366 109.24259904 1.51223755 107.3795166 C1.52925488 102.49469424 1.56340821 97.61015546 1.60229492 92.72546387 C1.66170617 84.93971615 1.69590419 77.15383492 1.72806168 69.36793518 C1.74172146 66.6852769 1.76336507 64.00278283 1.78634644 61.32019043 C1.8466637 52.65307168 1.75058592 44.00591994 1.37939453 35.34570312 C1.34904051 34.51944176 1.31868649 33.69318039 1.28741264 32.8418808 C0.91929546 25.41999204 -0.69095678 19.65805351 -6.18359375 14.3984375 C-17.96454138 5.00040366 -30.06627467 6.70242855 -41.35546875 15.9453125 Z M392.8671875 15.1875 C387.81184069 21.63489884 386.42267652 27.2415809 386.12451172 35.29101562 C386.08662977 36.17220314 386.04874783 37.05339066 386.00971794 37.96128082 C385.67168262 46.61667033 385.6617743 55.26437487 385.73596573 63.92466736 C385.7585608 66.68517248 385.77225911 69.44560372 385.78366089 72.20617676 C385.81674679 80.03761635 385.85904254 87.86893057 385.92138672 95.70019531 C385.95924957 100.53432401 385.98211252 105.36833582 385.99569321 110.20259094 C386.0036718 112.02365933 386.01717072 113.84471324 386.03662491 115.66569519 C386.24288446 135.27753345 382.96586042 146.99989208 369.08374023 161.3203125 C366.4237606 164.02041583 363.74244223 166.69864838 361.05859375 169.375 C359.62529233 170.81286987 358.192361 172.25110874 356.75978088 173.68969727 C353.77168664 176.68667969 350.77804771 179.67798365 347.78051758 182.66552734 C343.94315014 186.49135244 340.12196604 190.33290367 336.30494595 194.17901611 C333.35656832 197.14573678 330.39893992 200.10309638 327.43852425 203.05780029 C326.0252739 204.47089751 324.61511518 205.88709387 323.20815849 207.30645752 C321.24384248 209.28566199 319.2671909 211.25167559 317.28686523 213.21484375 C316.7116362 213.79974075 316.13640717 214.38463776 315.54374695 214.98725891 C312.18636529 218.28406477 309.49634174 220.26217006 304.75 221.25 C301.9375 220.5 301.9375 220.5 299.75 219.25 C298.24110531 216.23221063 298.24973724 214.62677363 298.75 211.25 C303.87213245 203.76397297 311.44728932 197.46549967 317.88056183 191.1054039 C319.92661715 189.08158654 321.96849812 187.05364279 324.00921631 185.02444458 C329.80623999 179.26082494 335.60751406 173.50153617 341.41894531 167.75244141 C344.9866382 164.22243304 348.54694563 160.68511822 352.1026535 157.1430397 C353.45384909 155.79987933 354.80781274 154.45949746 356.16461945 153.12200546 C358.05975084 151.25341009 359.94534449 149.37565725 361.82910156 147.49560547 C362.38706421 146.94999969 362.94502686 146.40439392 363.51989746 145.84225464 C368.53921109 140.79686717 371.24516775 135.69159616 371.80859375 128.546875 C371.64749276 122.23171623 368.63107032 117.26203137 364.40625 112.7265625 C359.65402551 108.48990954 354.55939688 107.9063288 348.47265625 107.75390625 C339.59217631 109.37201379 334.24678035 115.33583583 328.31860352 121.6252594 C326.78054985 123.25255396 325.2261549 124.86250979 323.66601562 126.46862793 C319.23567894 131.03221584 314.82248313 135.61130972 310.45263672 140.23291016 C307.76620565 143.07163752 305.04990001 145.87882794 302.31344604 148.66932678 C301.28792537 149.72664539 300.27351716 150.79488137 299.27175903 151.8747406 C292.40613958 159.26576567 286.32323366 162.75611643 276.4934082 164.54089355 C262.64921258 167.16337227 250.98194186 174.19369654 242.53125 185.484375 C234.07776732 198.60951916 230.96099659 212.82015141 230.21484375 228.19140625 C230.17186661 229.03613998 230.12888947 229.88087372 230.08460999 230.75120544 C229.99482752 232.53368265 229.90667603 234.31624267 229.82006836 236.09887695 C229.68906879 238.78038751 229.55096203 241.46146414 229.41210938 244.14257812 C229.32508848 245.88799933 229.23848716 247.63344152 229.15234375 249.37890625 C229.11173325 250.15964005 229.07112274 250.94037384 229.02928162 251.74476624 C228.68864868 258.9358905 228.75 266.0211481 228.75 273.25 C264.72 273.25 300.69 273.25 337.75 273.25 C338.08 265.99 338.41 258.73 338.75 251.25 C346.62387005 242.25129137 346.62387005 242.25129137 349.58851624 239.31814575 C350.26260025 238.64846771 350.93668427 237.97878967 351.63119507 237.28881836 C352.34466095 236.58523193 353.05812683 235.88164551 353.79321289 235.15673828 C354.56488297 234.39134735 355.33655304 233.62595642 356.13160706 232.83737183 C357.79416411 231.18857985 359.45779191 229.54086699 361.12239265 227.89413834 C363.76189413 225.28147357 366.39682821 222.66428475 369.03038025 220.04562378 C376.51383558 212.60472507 383.99988609 205.16651616 391.50219727 197.74462891 C396.10308934 193.19240207 400.69403589 188.63034656 405.27874565 184.0618248 C407.02011125 182.33031832 408.76511664 180.60246398 410.51390266 178.8784523 C412.96406548 176.46224489 415.40132804 174.03367174 417.83618164 171.60205078 C418.55167175 170.90251282 419.26716187 170.20297485 420.0043335 169.48223877 C431.38986331 158.02795628 434.01432723 147.79497348 434.1640625 132.11328125 C434.18365524 130.82423386 434.20324799 129.53518646 434.22343445 128.20707703 C434.27569198 124.71574398 434.31560502 121.22438085 434.35190201 117.73284912 C434.37504492 115.55827915 434.40086267 113.3837573 434.42758179 111.20922852 C434.5274462 103.05766162 434.61246986 94.90605204 434.68668842 86.75421333 C434.73190033 81.88593848 434.78911807 77.01796907 434.85302734 72.14990234 C434.93333396 65.99171557 434.99316629 59.83370593 435.03509521 53.67514038 C435.05323991 51.40735704 435.07792827 49.13961581 435.10943604 46.87197876 C435.15103488 43.72693673 435.16675603 40.58278142 435.17578125 37.4375 C435.19323898 36.53094162 435.21069672 35.62438324 435.22868347 34.69035339 C435.20398861 27.36393732 433.37081193 21.3208977 428.56640625 15.69140625 C427.82261719 15.07136719 427.07882812 14.45132813 426.3125 13.8125 C425.57128906 13.17441406 424.83007812 12.53632813 424.06640625 11.87890625 C414.41047229 5.08881441 401.01929735 6.79860688 392.8671875 15.1875 Z M18.75 288.25 C18.75 307.39 18.75 326.53 18.75 346.25 C74.19 346.25 129.63 346.25 186.75 346.25 C186.75 327.11 186.75 307.97 186.75 288.25 C131.31 288.25 75.87 288.25 18.75 288.25 Z M201.75 288.25 C201.75 307.39 201.75 326.53 201.75 346.25 C256.86 346.25 311.97 346.25 368.75 346.25 C368.75 327.11 368.75 307.97 368.75 288.25 C313.64 288.25 258.53 288.25 201.75 288.25 Z " fill="#000000" transform="translate(62.25,141.75)"/>
<path d="M0 0 C8.80025975 6.94543577 14.41802494 15.88966946 16.5390625 27.00390625 C17.53648117 39.54521969 15.77479567 51.16678052 7.5390625 61.00390625 C8.17972656 61.11347656 8.82039062 61.22304687 9.48046875 61.3359375 C14.8952316 62.32850953 19.57228889 63.62849278 24.5390625 66.00390625 C24.50425781 65.10929687 24.46945312 64.2146875 24.43359375 63.29296875 C24.12415662 49.47144367 27.21922223 38.62762285 36.7265625 28.25390625 C45.97652637 19.59741352 56.73082898 16.46212556 69.09765625 16.69140625 C82.06632318 17.86903775 92.38921042 23.60492846 100.74609375 33.4296875 C108.06888725 43.9432407 110.243727 56.29939889 108.04296875 68.828125 C106.41363659 74.69187971 103.70224966 79.82778181 100.5390625 85.00390625 C101.7146875 85.37515625 101.7146875 85.37515625 102.9140625 85.75390625 C117.16946169 90.66956114 126.86221807 96.51604047 134.27734375 109.96484375 C137.86406545 118.60406816 137.833458 127.08628268 137.8046875 136.3046875 C137.80603754 137.67229786 137.80798089 139.03990775 137.81048584 140.40751648 C137.81341619 143.25585558 137.80920401 146.10406829 137.79980469 148.95239258 C137.78835673 152.59846337 137.79501626 156.24424138 137.80694962 159.8903017 C137.81417867 162.70674343 137.81187644 165.52311573 137.80669403 168.33955956 C137.80471842 170.33593818 137.81077316 172.33231954 137.81695557 174.32868958 C137.80749908 176.14659248 137.80749908 176.14659248 137.79785156 178.0012207 C137.79626038 179.06661575 137.79466919 180.1320108 137.79302979 181.22969055 C137.53683912 184.0281934 137.07353352 185.66885727 135.5390625 188.00390625 C132.96600381 189.29043559 131.12051993 189.13852323 128.23831177 189.15107727 C126.55161377 189.16181023 126.55161377 189.16181023 124.83084106 189.17276001 C123.59131683 189.17544891 122.3517926 189.17813782 121.07470703 189.1809082 C119.77386169 189.1874794 118.47301636 189.1940506 117.13275146 189.20082092 C113.55834132 189.21823439 109.98394456 189.2287833 106.40950251 189.23702645 C104.1772237 189.24217516 101.94494906 189.24825091 99.71267319 189.25453758 C92.73092844 189.27358939 85.74919427 189.28782136 78.76742852 189.29614955 C70.7031926 189.3059274 62.63923078 189.33226096 54.57509148 189.37265044 C48.34488919 189.40278599 42.11476558 189.41761591 35.8844918 189.42093056 C32.1619062 189.42328372 28.43961341 189.43227816 24.71710587 189.45739174 C20.56529659 189.48494922 16.41410185 189.48084924 12.26220703 189.47387695 C10.40899338 189.49309204 10.40899338 189.49309204 8.51834106 189.51269531 C6.82318359 189.50227959 6.82318359 189.50227959 5.09378052 189.49165344 C4.11190325 189.4940418 3.13002598 189.49643015 2.11839485 189.49889088 C-0.4609375 189.00390625 -0.4609375 189.00390625 -4.4609375 185.00390625 C-4.4609375 178.40390625 -4.4609375 171.80390625 -4.4609375 165.00390625 C-18.3209375 165.00390625 -32.1809375 165.00390625 -46.4609375 165.00390625 C-46.4609375 171.60390625 -46.4609375 178.20390625 -46.4609375 185.00390625 C-50.96106558 189.50403433 -50.96106558 189.50403433 -56.00892639 189.50511169 C-57.13758621 189.51494583 -58.26624603 189.52477997 -59.42910767 189.53491211 C-60.66301239 189.52524414 -61.89691711 189.51557617 -63.16821289 189.50561523 C-65.12232841 189.51371971 -65.12232841 189.51371971 -67.11592102 189.52198792 C-70.68618911 189.53594778 -74.2559756 189.52477012 -77.82621694 189.5082767 C-81.5617557 189.49442692 -85.29726649 189.50088608 -89.03282166 189.50440979 C-95.30491907 189.50711165 -101.57682508 189.49363742 -107.84887695 189.47045898 C-115.10283206 189.44383768 -122.35646739 189.44210584 -129.61045462 189.45384735 C-136.58690173 189.46462104 -143.56323303 189.45844207 -150.53967094 189.44429207 C-153.50972668 189.43852984 -156.47969773 189.43861674 -159.44975471 189.44335747 C-163.59436632 189.44900956 -167.73849895 189.42982319 -171.88305664 189.40795898 C-173.73695007 189.41471146 -173.73695007 189.41471146 -175.6282959 189.42160034 C-176.75413589 189.41169571 -177.87997589 189.40179108 -179.03993225 189.3915863 C-180.02013368 189.38915641 -181.0003351 189.38672651 -182.0102396 189.38422298 C-184.87624631 188.93945567 -185.72419175 188.27583534 -187.4609375 186.00390625 C-188.79902038 183.32774049 -188.60283529 181.25682854 -188.62207031 178.26000977 C-188.63167786 177.05437881 -188.6412854 175.84874786 -188.65118408 174.60658264 C-188.65543396 173.29523849 -188.65968384 171.98389435 -188.6640625 170.6328125 C-188.66981849 169.27196756 -188.67557617 167.91112263 -188.68133545 166.55027771 C-188.69185336 163.6895205 -188.69768896 160.82879141 -188.70117188 157.96801758 C-188.70661904 154.33021692 -188.73056126 150.69279773 -188.75914383 147.0551157 C-188.77793117 144.23838792 -188.78298455 141.4217484 -188.78450775 138.6049633 C-188.78895012 136.62051408 -188.80753029 134.6361124 -188.82647705 132.65174866 C-188.79204708 118.49473201 -185.44941928 107.19716236 -175.7109375 96.69140625 C-169.00783354 90.3713368 -161.40137189 87.59011235 -152.4609375 86.00390625 C-152.4609375 81.39370216 -154.92245044 78.02686765 -157.05078125 74.01171875 C-161.20254126 65.15616416 -160.70186175 53.4868402 -157.5 44.375 C-151.8075522 31.38509093 -143.57695644 23.5592944 -130.46875 18.1875 C-119.75913122 14.90107192 -107.75662266 16.37256975 -97.87109375 21.29296875 C-86.38721546 27.75157098 -80.15259848 36.63805594 -75.76953125 48.9453125 C-75.28067094 52.20644393 -75.35803525 55.46578465 -75.3984375 58.75390625 C-75.40294922 59.45128906 -75.40746094 60.14867188 -75.41210938 60.8671875 C-75.4238373 62.57946428 -75.44177097 64.29169658 -75.4609375 66.00390625 C-74.82027344 65.72675781 -74.17960937 65.44960937 -73.51953125 65.1640625 C-68.44317013 63.03819443 -63.94941762 61.48116539 -58.4609375 61.00390625 C-58.85925781 60.47023438 -59.25757813 59.9365625 -59.66796875 59.38671875 C-66.95917424 49.13290665 -68.62354768 39.54442052 -67.4609375 27.00390625 C-65.0368536 15.39021613 -59.1391554 5.89727282 -49.4609375 -0.99609375 C-33.66198393 -10.61839665 -15.40395924 -10.6318393 0 0 Z M-48.4609375 19.00390625 C-52.52332108 25.48909958 -53.54056859 32.47953858 -52.4609375 40.00390625 C-50.13008849 48.21425641 -45.31948242 54.634848 -37.9609375 58.94140625 C-30.8135305 62.18142057 -23.04069221 62.40122388 -15.5546875 60.1171875 C-7.48493943 56.45906375 -2.45318982 50.61235843 0.84375 42.453125 C2.92521206 35.12123338 1.9744499 28.17028891 -1.13671875 21.29296875 C-5.25066779 14.18154062 -11.63923039 9.70284801 -19.46875 7.41796875 C-31.46218643 4.9252153 -40.72506783 10.0458525 -48.4609375 19.00390625 Z M-138.765625 41.73828125 C-143.20749978 47.67442727 -145.17785741 54.08447258 -144.8515625 61.484375 C-143.85266971 67.92723347 -141.2295557 74.48626796 -136.4609375 79.00390625 C-128.10731688 84.61886047 -121.64397492 87.23063473 -111.4609375 86.00390625 C-103.35092906 83.35912612 -97.63707801 79.46234667 -93.4609375 72.00390625 C-92.5328125 70.39515625 -92.5328125 70.39515625 -91.5859375 68.75390625 C-89.22506661 60.88433661 -89.53946178 54.13377805 -92.9609375 46.62890625 C-96.97819759 39.41481243 -102.49047266 35.03553248 -110.3359375 32.4765625 C-121.39052772 30.01772901 -131.1778412 33.44394268 -138.765625 41.73828125 Z M46.5390625 40.00390625 C40.85223381 48.46445775 38.61954529 54.73596409 39.5390625 65.00390625 C41.71544702 72.81050291 46.09766774 78.79646369 53.1640625 82.81640625 C59.62508281 86.22332651 65.28737891 86.87750088 72.5390625 86.00390625 C81.69498419 83.01804009 87.13996003 78.46350329 91.55859375 70.06640625 C94.6320324 63.10555891 94.50087327 56.01268679 92.0390625 48.87890625 C88.82022307 41.72092765 83.8220411 36.72274568 76.6640625 33.50390625 C66.24709985 29.9360169 54.341915 31.76756194 46.5390625 40.00390625 Z M-74.4609375 84.00390625 C-88.94359999 104.18788836 -81.4609375 120.65671416 -81.4609375 150.00390625 C-44.5009375 150.00390625 -7.5409375 150.00390625 30.5390625 150.00390625 C34.43186889 117.9599902 34.43186889 117.9599902 24.1015625 85.12890625 C22.833125 84.07703125 22.833125 84.07703125 21.5390625 83.00390625 C20.45625 81.95203125 20.45625 81.95203125 19.3515625 80.87890625 C11.04650479 75.34220111 1.56811812 75.56095178 -8.0859375 75.60546875 C-9.48258617 75.60344196 -10.87923381 75.60052553 -12.27587891 75.59677124 C-15.18727809 75.59237624 -18.09839907 75.59868671 -21.00976562 75.61279297 C-24.71475378 75.62988352 -28.41908965 75.620027 -32.12405396 75.60207558 C-35.00338529 75.59116061 -37.88256562 75.59471908 -40.76190186 75.60245895 C-42.78349234 75.60539264 -44.80508904 75.59638856 -46.82666016 75.58706665 C-56.7144743 75.66197192 -67.19898186 76.4939814 -74.4609375 84.00390625 Z M-167.4609375 110.00390625 C-180.56816922 129.87845869 -173.4609375 147.81195656 -173.4609375 175.00390625 C-136.5009375 175.00390625 -99.5409375 175.00390625 -61.4609375 175.00390625 C-61.4609375 171.70390625 -61.4609375 168.40390625 -61.4609375 165.00390625 C-62.31848633 164.98408691 -63.17603516 164.96426758 -64.05957031 164.94384766 C-67.25041392 164.86561104 -70.4408849 164.77891282 -73.63134766 164.68652344 C-75.01048993 164.64831287 -76.38972917 164.61344623 -77.76904297 164.58203125 C-79.75510717 164.53621001 -81.74085429 164.47724362 -83.7265625 164.41796875 C-84.92055664 164.38654785 -86.11455078 164.35512695 -87.34472656 164.32275391 C-90.29146798 164.02124621 -92.02075499 163.63771078 -94.4609375 162.00390625 C-95.78303809 159.35970508 -95.62215872 157.3219101 -95.66625977 154.36083984 C-95.6961776 152.58922989 -95.6961776 152.58922989 -95.72669983 150.78182983 C-95.74341232 149.50159943 -95.76012482 148.22136902 -95.77734375 146.90234375 C-95.79812485 145.59560699 -95.81890594 144.28887024 -95.84031677 142.9425354 C-95.89553044 139.46721725 -95.94494275 135.99183972 -95.99316406 132.51641846 C-96.04338427 128.97052725 -96.09906762 125.42472235 -96.15429688 121.87890625 C-96.26186978 114.92064775 -96.36331667 107.96231129 -96.4609375 101.00390625 C-104.1105606 100.9020114 -111.76000695 100.83223339 -119.41015625 100.78417969 C-122.00950664 100.76413495 -124.60881233 100.73689178 -127.20800781 100.70214844 C-130.9564928 100.6533176 -134.70437861 100.63086499 -138.453125 100.61328125 C-139.60457001 100.59263611 -140.75601501 100.57199097 -141.94235229 100.55072021 C-151.84080707 100.54800248 -160.42162303 102.6371818 -167.4609375 110.00390625 Z M45.5390625 101.00390625 C45.53097565 101.73640091 45.52288879 102.46889557 45.51455688 103.22358704 C45.43663523 110.12466948 45.34935189 117.02557675 45.25153542 123.926404 C45.2015768 127.47425229 45.15524695 131.02207088 45.1171875 134.57006836 C45.07327981 138.64846639 45.0136302 142.7265017 44.953125 146.8046875 C44.94157379 148.07975662 44.93002258 149.35482574 44.91812134 150.66853333 C44.89825165 151.8495311 44.87838196 153.03052887 44.85791016 154.24731445 C44.84458649 155.28878128 44.83126282 156.33024811 44.8175354 157.40327454 C44.5390625 160.00390625 44.5390625 160.00390625 42.5390625 163.00390625 C39.17355127 164.12574333 36.44846018 164.21191593 32.90234375 164.3203125 C31.60361328 164.36220703 30.30488281 164.40410156 28.96679688 164.44726562 C27.59505489 164.48707612 26.22331006 164.52678841 24.8515625 164.56640625 C23.46808605 164.6096146 22.08462223 164.65322964 20.70117188 164.69726562 C17.31390531 164.80348653 13.92656451 164.90552983 10.5390625 165.00390625 C10.5390625 168.30390625 10.5390625 171.60390625 10.5390625 175.00390625 C47.4990625 175.00390625 84.4590625 175.00390625 122.5390625 175.00390625 C126.16786082 140.91669796 126.16786082 140.91669796 115.3515625 108.796875 C109.64773187 103.15450806 102.89661535 100.87235223 95.03613281 100.89038086 C93.38487396 100.89049416 93.38487396 100.89049416 91.70025635 100.89060974 C90.51784363 100.89577103 89.33543091 100.90093231 88.1171875 100.90625 C86.29450348 100.90837242 86.29450348 100.90837242 84.43499756 100.91053772 C80.55299419 100.91613637 76.67104844 100.92868865 72.7890625 100.94140625 C70.15755292 100.94642142 67.52604243 100.9509843 64.89453125 100.95507812 C58.44268867 100.96610536 51.9908797 100.98284217 45.5390625 101.00390625 Z " fill="#000000" transform="translate(281.4609375,16.99609375)"/>
</svg>
