<?xml version="1.0" standalone="no"?>
<!DOCTYPE svg PUBLIC "-//W3C//DTD SVG 20010904//EN"
 "http://www.w3.org/TR/2001/REC-SVG-20010904/DTD/svg10.dtd">
<svg version="1.0" xmlns="http://www.w3.org/2000/svg"
 width="516.000000pt" height="516.000000pt" viewBox="0 0 516.000000 516.000000"
 preserveAspectRatio="xMidYMid meet">
<metadata>
Created by potrace 1.16, written by Peter Selinger 2001-2019
</metadata>
<g transform="translate(0.000000,516.000000) scale(0.100000,-0.100000)"
fill="#000000" stroke="none">
<path d="M2172 5004 c-32 -22 -29 -71 9 -122 24 -32 30 -50 27 -79 -3 -36 -5
-38 -43 -44 -22 -4 -55 -10 -74 -14 l-34 -8 7 45 c5 35 3 49 -9 62 -20 19 -26
20 -59 4 -47 -21 -45 -62 4 -90 38 -22 38 -33 -2 -54 -18 -9 -46 -28 -62 -41
l-29 -24 -25 24 c-16 17 -27 43 -33 79 -14 92 -78 123 -136 65 -58 -58 -27
-123 64 -134 38 -4 58 -13 78 -33 l26 -27 -24 -29 c-13 -16 -32 -44 -41 -61
-9 -18 -20 -33 -25 -33 -5 0 -21 16 -35 35 -15 19 -33 35 -40 35 -40 0 -69
-66 -41 -94 14 -13 27 -15 63 -10 44 7 45 6 38 -17 -4 -13 -9 -48 -13 -76 l-6
-53 -39 0 c-30 0 -50 8 -80 31 -70 56 -138 32 -138 -50 0 -83 62 -106 138 -50
32 24 50 30 79 27 36 -3 38 -5 44 -43 3 -22 9 -55 13 -74 l8 -34 -45 7 c-35 5
-48 3 -62 -10 -19 -20 -13 -62 12 -81 25 -19 32 -16 67 22 18 19 35 35 39 35
4 0 14 -15 23 -32 9 -18 28 -46 41 -62 l24 -29 -24 -25 c-17 -16 -43 -27 -79
-33 -92 -14 -122 -76 -66 -136 56 -60 122 -29 137 66 5 35 17 61 33 78 l25 24
29 -24 c16 -13 44 -32 62 -41 39 -20 40 -30 7 -52 -51 -33 -54 -72 -9 -93 33
-15 40 -14 59 5 12 12 14 27 9 60 -7 48 -5 49 45 34 19 -5 49 -11 68 -12 32
-2 33 -4 33 -43 0 -29 -9 -51 -30 -79 -55 -73 -32 -136 50 -136 82 0 105 63
49 139 -23 33 -29 51 -27 79 3 36 5 37 48 43 25 3 58 9 74 14 l29 8 -7 -45
c-5 -35 -3 -49 9 -62 19 -19 26 -20 59 -5 45 21 42 60 -9 93 -33 22 -32 32 8
52 17 9 45 28 61 41 l29 24 25 -24 c16 -17 27 -43 33 -79 14 -92 76 -122 136
-66 28 26 38 70 21 97 -14 23 -57 41 -99 41 -15 0 -41 12 -58 26 l-30 25 32
48 c18 27 37 57 44 67 12 18 13 18 33 -6 11 -14 25 -31 30 -37 23 -27 65 -5
75 38 10 42 -17 61 -73 53 l-45 -7 8 29 c5 16 11 49 14 74 6 44 7 45 44 48 29
3 47 -3 79 -27 76 -56 138 -33 138 49 0 82 -63 105 -139 49 -33 -23 -51 -29
-79 -27 -35 3 -37 5 -43 43 -3 22 -9 55 -13 74 l-8 34 45 -6 c35 -5 50 -3 62
9 18 18 19 25 3 58 -19 43 -48 44 -84 2 -17 -20 -34 -36 -37 -36 -4 0 -14 15
-23 33 -9 17 -28 45 -41 61 l-24 29 24 25 c17 16 43 28 78 33 92 15 123 68 74
127 -58 69 -129 43 -141 -51 -5 -33 -16 -60 -33 -80 l-27 -29 -29 24 c-17 14
-45 33 -62 42 -18 9 -33 20 -33 24 0 4 16 21 36 37 42 35 41 64 -2 83 -33 16
-39 15 -59 -4 -12 -13 -14 -27 -9 -61 l7 -45 -34 8 c-19 4 -52 10 -74 13 -37
6 -40 8 -43 42 -2 27 5 48 31 86 38 57 39 93 4 118 -28 20 -87 19 -115 -1z
m169 -290 c85 -25 139 -57 198 -115 173 -174 173 -444 1 -617 -99 -98 -245
-147 -375 -125 -244 42 -408 267 -367 505 43 252 306 422 543 352z"/>
<path d="M3240 3793 c-69 -7 -195 -36 -270 -60 -275 -91 -478 -271 -607 -538
l-46 -96 -25 57 c-78 185 -245 340 -442 410 -98 35 -280 44 -381 20 -225 -52
-392 -223 -436 -446 -13 -65 -13 -94 -2 -219 9 -91 18 -146 26 -148 6 -2 31
22 54 54 68 92 128 151 193 190 206 123 256 203 256 404 0 95 6 101 106 92
288 -24 528 -236 580 -514 14 -71 13 -84 -5 -175 -34 -167 -42 -250 -48 -501
l-6 -242 -411 -3 -411 -3 -45 -25 c-51 -29 -97 -90 -110 -146 -5 -21 -10 -90
-10 -151 l0 -113 94 0 c89 0 94 -1 99 -22 3 -13 49 -264 102 -558 106 -585
115 -620 183 -665 21 -13 55 -28 77 -33 22 -4 258 -8 525 -7 431 1 488 3 516
18 52 27 89 64 107 104 9 21 60 268 112 548 53 281 100 534 106 563 l10 52 95
0 94 0 0 130 c0 175 -24 229 -125 283 -39 21 -51 22 -479 25 l-439 3 6 137 c7
207 55 326 180 453 112 113 239 169 403 177 147 7 255 -22 374 -99 l63 -40 -7
-142 -7 -142 30 -61 c30 -60 88 -121 211 -225 40 -33 70 -73 111 -145 31 -54
63 -99 70 -99 8 0 17 11 21 25 18 64 48 231 52 285 13 199 -121 427 -305 519
-39 20 -79 36 -88 36 -9 0 -41 18 -71 41 -119 89 -231 129 -385 136 -178 9
-317 -34 -460 -139 -56 -41 -135 -125 -164 -173 -32 -53 30 270 76 400 109
302 312 519 572 610 24 8 45 14 47 12 2 -1 -6 -31 -16 -66 -11 -34 -20 -73
-20 -84 0 -30 36 -87 73 -117 78 -63 108 -95 136 -146 17 -30 35 -54 40 -54
14 0 25 19 62 105 43 101 46 175 9 248 -25 50 -83 110 -126 129 -13 6 -24 14
-24 18 0 4 34 13 75 19 327 48 612 -69 779 -321 36 -54 37 -58 26 -95 -7 -21
-31 -73 -54 -117 -39 -75 -41 -82 -41 -170 l0 -91 72 -145 c58 -117 74 -159
83 -220 20 -143 20 -140 40 -140 11 0 20 4 20 9 0 5 33 59 74 120 41 61 84
139 96 173 67 195 13 432 -134 582 -33 35 -77 90 -96 122 -52 87 -200 230
-290 281 -161 90 -353 127 -550 106z m-45 -273 c30 -43 40 -87 31 -134 l-7
-36 -74 60 c-79 65 -92 87 -77 128 6 15 13 35 16 45 6 17 8 17 46 -4 22 -12
51 -39 65 -59z m-1734 -228 c-16 -59 -74 -117 -195 -197 -62 -40 -118 -80
-125 -89 -23 -27 -31 -18 -31 32 0 182 132 372 306 441 l49 19 3 -84 c1 -46
-2 -101 -7 -122z m2678 -97 c41 -47 85 -136 101 -204 25 -107 -4 -277 -60
-351 l-19 -25 -12 35 c-7 19 -36 80 -64 135 -95 182 -98 219 -34 353 24 50 47
92 50 92 4 0 21 -16 38 -35z m-691 -554 c20 -10 58 -38 85 -61 103 -91 159
-214 161 -350 1 -128 -1 -129 -82 -51 -39 36 -97 91 -130 122 -33 30 -70 76
-83 101 -20 41 -21 54 -14 152 4 58 11 106 16 106 6 0 26 -9 47 -19z m-276
-676 c45 -34 59 -69 62 -150 1 -41 -1 -79 -4 -85 -4 -7 -329 -9 -971 -8 l-964
3 -3 80 c-3 92 14 130 70 165 32 20 49 20 908 18 857 -3 876 -3 902 -23z
m-132 -328 c0 -2 -47 -253 -105 -557 -75 -398 -110 -562 -123 -580 -10 -14
-34 -33 -53 -43 -31 -16 -71 -17 -515 -15 l-481 3 -35 27 c-20 15 -39 40 -43
55 -17 68 -202 1099 -198 1106 4 6 1553 11 1553 4z"/>
</g>
</svg>
