<?xml version="1.0" encoding="UTF-8"?>
<!DOCTYPE svg PUBLIC "-//W3C//DTD SVG 1.1//EN" "http://www.w3.org/Graphics/SVG/1.1/DTD/svg11.dtd">
<svg xmlns="http://www.w3.org/2000/svg" version="1.1" width="512px" height="512px" style="shape-rendering:geometricPrecision; text-rendering:geometricPrecision; image-rendering:optimizeQuality; fill-rule:evenodd; clip-rule:evenodd" xmlns:xlink="http://www.w3.org/1999/xlink">
<g><path style="opacity:0.929" fill="#000000" d="M 235.5,63.5 C 319.154,58.9016 382.321,92.2349 425,163.5C 449.739,211.926 454.405,262.259 439,314.5C 417.5,376 376,417.5 314.5,439C 247.724,457.977 187.057,446.31 132.5,404C 76.0263,353.486 54.193,290.653 67,215.5C 84.2348,144.265 127.402,96.4318 196.5,72C 209.454,68.3116 222.454,65.4783 235.5,63.5 Z M 254.5,79.5 C 329.079,82.9623 382.912,117.962 416,184.5C 442.42,251.498 433.42,313.165 389,369.5C 342.731,419.812 285.897,438.979 218.5,427C 157.123,411.957 114.623,375.124 91,316.5C 69.7368,252.403 80.0701,194.07 122,141.5C 157.39,102.055 201.556,81.3883 254.5,79.5 Z"/></g>
<g><path style="opacity:0.957" fill="#000000" d="M 251.5,143.5 C 254.187,143.336 256.854,143.503 259.5,144C 261.333,144.5 262.5,145.667 263,147.5C 263.333,195.167 263.667,242.833 264,290.5C 272.863,281.303 282.03,272.469 291.5,264C 302.497,262.464 305.997,266.964 302,277.5C 288.5,291 275,304.5 261.5,318C 257.5,320 253.5,320 249.5,318C 236,304.5 222.5,291 209,277.5C 205.003,266.964 208.503,262.464 219.5,264C 228.97,272.469 238.137,281.303 247,290.5C 247.333,242.833 247.667,195.167 248,147.5C 248.69,145.65 249.856,144.316 251.5,143.5 Z"/></g>
<g><path style="opacity:0.982" fill="#000000" d="M 184.5,231.5 C 198.837,231.333 213.171,231.5 227.5,232C 230.516,233.529 231.849,236.029 231.5,239.5C 231.849,242.971 230.516,245.471 227.5,247C 215.5,247.333 203.5,247.667 191.5,248C 188.506,248.406 186.339,249.906 185,252.5C 183.359,280.105 183.026,307.771 184,335.5C 184.5,340 187,342.5 191.5,343C 234.167,343.667 276.833,343.667 319.5,343C 324,342.5 326.5,340 327,335.5C 327.974,307.771 327.641,280.105 326,252.5C 324.661,249.906 322.494,248.406 319.5,248C 307.5,247.667 295.5,247.333 283.5,247C 280.484,245.471 279.151,242.971 279.5,239.5C 279.151,236.029 280.484,233.529 283.5,232C 297.833,231.333 312.167,231.333 326.5,232C 334.667,234.833 340.167,240.333 343,248.5C 343.667,279.833 343.667,311.167 343,342.5C 340.167,350.667 334.667,356.167 326.5,359C 279.167,359.667 231.833,359.667 184.5,359C 176.333,356.167 170.833,350.667 168,342.5C 167.333,311.167 167.333,279.833 168,248.5C 171.019,240.316 176.519,234.649 184.5,231.5 Z"/></g>
</svg>
