<?xml version="1.0" encoding="UTF-8"?>
<!DOCTYPE svg PUBLIC "-//W3C//DTD SVG 1.1//EN" "http://www.w3.org/Graphics/SVG/1.1/DTD/svg11.dtd">
<svg xmlns="http://www.w3.org/2000/svg" version="1.1" width="512px" height="512px" style="shape-rendering:geometricPrecision; text-rendering:geometricPrecision; image-rendering:optimizeQuality; fill-rule:evenodd; clip-rule:evenodd" xmlns:xlink="http://www.w3.org/1999/xlink">
<g><path style="opacity:0.943" fill="#000000" d="M 181.5,24.5 C 228.57,24.6026 263.07,45.2693 285,86.5C 302.709,129.9 296.709,169.566 267,205.5C 233.206,238.729 193.706,247.895 148.5,233C 104.831,213.865 81.8305,180.365 79.5,132.5C 81.7699,86.0936 103.77,52.9269 145.5,33C 157.258,28.5587 169.258,25.7253 181.5,24.5 Z M 175.5,46.5 C 222.044,43.8389 253.544,64.1722 270,107.5C 279.89,151.539 265.723,185.372 227.5,209C 186.169,227.199 150.336,219.699 120,186.5C 94.7552,151.035 94.4219,115.368 119,79.5C 133.7,61.4007 152.533,50.4007 175.5,46.5 Z"/></g>
<g><path style="opacity:0.948" fill="#000000" d="M 435.5,256.5 C 438.253,257.022 440.92,257.856 443.5,259C 460,275.5 476.5,292 493,308.5C 495.856,312.639 496.19,316.972 494,321.5C 448.167,367.333 402.333,413.167 356.5,459C 331.908,467.531 307.241,475.864 282.5,484C 273.508,486.352 268.508,483.019 267.5,474C 270.061,464.816 272.727,455.65 275.5,446.5C 189.751,446.995 104.085,446.495 18.5,445C 15.0752,440.998 13.7419,436.332 14.5,431C 19.5138,358.905 54.5138,307.572 119.5,277C 185.268,252.241 245.602,261.574 300.5,305C 315.266,318.42 327.766,333.587 338,350.5C 368.167,320.333 398.333,290.167 428.5,260C 430.713,258.384 433.047,257.217 435.5,256.5 Z M 435.5,283.5 C 447.247,293.743 458.58,304.577 469.5,316C 466.167,319.333 462.833,322.667 459.5,326C 458.833,326.667 458.167,326.667 457.5,326C 446.833,315.333 436.167,304.667 425.5,294C 429.037,290.631 432.371,287.131 435.5,283.5 Z M 175.5,284.5 C 240.638,282.887 289.304,310.053 321.5,366C 312.71,375.792 303.543,385.292 294,394.5C 289.797,404.608 286.297,414.942 283.5,425.5C 201.167,425.5 118.833,425.5 36.5,425.5C 44.1696,358.336 79.8363,313.503 143.5,291C 154.159,288.102 164.826,285.935 175.5,284.5 Z M 409.5,309.5 C 420.812,320.146 431.812,331.146 442.5,342.5C 412.167,373.5 381.5,404.167 350.5,434.5C 339.347,423.848 328.347,413.014 317.5,402C 348.368,371.299 379.035,340.465 409.5,309.5 Z M 306.5,422.5 C 314.298,429.798 321.965,437.298 329.5,445C 318.851,449.217 308.018,453.05 297,456.5C 296.5,456.167 296,455.833 295.5,455.5C 299.372,444.55 303.039,433.55 306.5,422.5 Z"/></g>
</svg>
