<?xml version="1.0" encoding="UTF-8"?>
<svg version="1.1" xmlns="http://www.w3.org/2000/svg" width="512" height="512">
<path d="M0 0 C1.37375882 0.00162543 2.74751778 0.00312979 4.12127686 0.0045166 C24.74516922 0.03693875 45.08954071 0.65739095 65.5625 3.3125 C67.33778076 3.5293042 67.33778076 3.5293042 69.14892578 3.75048828 C112.4731559 9.09572394 157.57689352 14.83711266 186.3984375 51.296875 C201.86309673 72.84690556 206.70242408 95.89730367 206.765625 121.94921875 C206.76845238 122.73885324 206.77127975 123.52848774 206.77419281 124.34205055 C206.78909613 128.51164704 206.79838448 132.68120964 206.80273438 136.85083008 C206.80824114 141.1446798 206.83234044 145.43821598 206.86070633 149.73196697 C206.87935012 153.04945285 206.88453898 156.36686291 206.88607025 159.68439674 C206.88908764 161.2675837 206.89708519 162.8507696 206.91025543 164.43390465 C206.92737149 166.64717965 206.9254239 168.85968315 206.91894531 171.07299805 C206.92259094 172.32936569 206.92623657 173.58573334 206.92999268 174.88017273 C206.51632411 178.74377595 205.68786096 181.06545698 203.5625 184.3125 C199.60233019 187.29385678 196.6809274 187.68860556 191.77954197 187.69281673 C191.10697435 187.69747665 190.43440673 187.70213657 189.74145827 187.7069377 C187.48341099 187.71890702 185.22596327 187.70948521 182.96791077 187.70018005 C181.33444697 187.70435213 179.70098607 187.70982896 178.06753057 187.71649987 C173.57533021 187.73098972 169.08331277 187.72669873 164.59110224 187.71933305 C159.747795 187.71461243 154.90452797 187.72710141 150.06123352 187.73735046 C140.57152815 187.75456543 131.08188891 187.7553729 121.59217197 187.75013756 C113.88066455 187.74609971 106.1691767 187.74753483 98.45767021 187.75288582 C97.36103695 187.75363424 96.26440368 187.75438266 95.13453911 187.75515376 C92.90688916 187.75668521 90.67923922 187.75822355 88.45158928 187.75976873 C67.55105984 187.77350349 46.65056781 187.76804919 25.75003921 187.75658352 C6.61992149 187.74664968 -12.51009953 187.75959271 -31.64020234 187.78351771 C-51.27323513 187.80788711 -70.90622284 187.81752193 -90.53927046 187.81086498 C-101.56566242 187.80736801 -112.59197997 187.80963632 -123.61836052 187.82711601 C-133.00471514 187.84181099 -142.39094298 187.84250889 -151.77729505 187.8250451 C-156.5679079 187.81651048 -161.35829401 187.81444544 -166.14889526 187.82969666 C-170.53281063 187.84348059 -174.91630367 187.8388622 -179.30019421 187.81945742 C-180.88762292 187.81567768 -182.47508495 187.81867588 -184.06248414 187.82906907 C-186.21840091 187.84218277 -188.37284785 187.83070829 -190.52870083 187.81307125 C-192.32564881 187.81291025 -192.32564881 187.81291025 -194.15889877 187.81274599 C-198.13603425 187.20591828 -200.31263286 185.80127766 -203.4375 183.3125 C-205.74008294 179.39881747 -205.69056078 175.74250394 -205.69628906 171.26586914 C-205.6997937 170.57561646 -205.70329834 169.88536377 -205.70690918 169.17419434 C-205.71568833 166.89857829 -205.70988511 164.62327534 -205.703125 162.34765625 C-205.70447413 160.75166261 -205.70641672 159.15566937 -205.70892334 157.55967712 C-205.71187061 154.21153864 -205.70759488 150.86350691 -205.69824219 147.51538086 C-205.68693109 143.26261002 -205.69335617 139.01009399 -205.70538712 134.7573328 C-205.712688 131.45666155 -205.71027909 128.1560485 -205.70513153 124.85537529 C-205.70381328 123.28998216 -205.70537739 121.72458344 -205.71009064 120.15919685 C-205.78217572 89.45154777 -197.22915084 62.96209072 -175.78515625 40.5390625 C-157.75226898 23.32705556 -135.50960821 15.6225303 -111.4375 10.875 C-110.69260315 10.72664703 -109.9477063 10.57829407 -109.18023682 10.42544556 C-97.27592856 8.07075585 -85.33618604 6.13318979 -73.3125 4.5 C-72.59513672 4.40099396 -71.87777344 4.30198792 -71.13867188 4.19998169 C-47.46042408 0.97029428 -23.88529524 -0.06495031 0 0 Z M-105.4375 34.3125 C-104.73683607 38.23057505 -104.02527007 42.14661077 -103.3125 46.0625 C-103.12429687 47.11566406 -102.93609375 48.16882813 -102.7421875 49.25390625 C-100.28611153 62.68557173 -97.30325668 75.93896881 -94.4375 89.3125 C-31.7375 89.3125 30.9625 89.3125 95.5625 89.3125 C100.24925507 67.72846447 100.24925507 67.72846447 104.4375 46.0625 C104.64890625 44.90105469 104.8603125 43.73960937 105.078125 42.54296875 C105.5768179 39.80015782 106.07175118 37.05674107 106.5625 34.3125 C97.01797162 31.64995203 87.41896956 30.09875277 77.625 28.75 C76.8541507 28.64200073 76.08330139 28.53400146 75.28909302 28.42272949 C50.68119448 24.97817804 26.16540746 23.09241631 1.3125 23.125 C0.01590454 23.12590637 0.01590454 23.12590637 -1.30688477 23.12683105 C-54.62713169 21.93225275 -54.62713169 21.93225275 -105.4375 34.3125 Z M128.5625 39.3125 C127.11592469 46.55198359 125.68083819 53.79364842 124.25983429 61.03819752 C123.59944722 64.40312953 122.93532669 67.76722855 122.26220703 71.12963867 C121.48610935 75.00734761 120.72708713 78.88830841 119.96875 82.76953125 C119.72813843 83.95956253 119.48752686 85.14959381 119.23962402 86.37568665 C116.886509 98.56022341 117.51697387 108.72932593 119.96875 120.85546875 C120.33498474 122.72988396 120.33498474 122.72988396 120.70861816 124.64216614 C121.35225582 127.92661805 122.00470172 131.20905445 122.66168213 134.49084473 C123.33282359 137.85503454 123.99215747 141.22153689 124.65234375 144.58789062 C125.94315473 151.16536163 127.25324003 157.73856967 128.5625 164.3125 C146.3825 164.3125 164.2025 164.3125 182.5625 164.3125 C182.62577972 156.88533603 182.68583935 149.45917435 182.71775055 142.03197479 C182.73345455 138.57173374 182.75436213 135.11172077 182.78881836 131.65161133 C183.0699221 102.64190461 180.08662217 79.46657676 159.5625 57.3125 C151.92532567 50.1644058 142.84939204 43.97266127 132.86547852 40.71606445 C132.05861099 40.45154984 131.25174347 40.18703522 130.42042542 39.914505 C129.80731003 39.71584335 129.19419464 39.5171817 128.5625 39.3125 Z M-153.4375 53.3125 C-154.21738281 53.91707031 -154.99726563 54.52164063 -155.80078125 55.14453125 C-170.04002162 66.82611877 -179.20094222 85.20032028 -181.4375 103.3125 C-182.0316458 113.11199274 -181.83877034 122.94520991 -181.7121582 132.75708008 C-181.67062652 136.324282 -181.65261984 139.89160662 -181.6328125 143.45898438 C-181.59254727 150.41077637 -181.51419846 157.36063703 -181.4375 164.3125 C-163.6175 164.3125 -145.7975 164.3125 -127.4375 164.3125 C-125.99678801 157.07853542 -124.55826126 149.84463879 -123.13877869 142.60655975 C-122.47699197 139.23505877 -121.81164494 135.86435646 -121.13720703 132.49536133 C-120.36110935 128.61765239 -119.60208713 124.73669159 -118.84375 120.85546875 C-118.60313843 119.66543747 -118.36252686 118.47540619 -118.11462402 117.24931335 C-115.761509 105.06477659 -116.39197387 94.89567407 -118.84375 82.76953125 C-119.20998474 80.89511604 -119.20998474 80.89511604 -119.58361816 78.98283386 C-120.22725582 75.69838195 -120.87970172 72.41594555 -121.53668213 69.13415527 C-122.20782368 65.76996499 -122.86704444 62.40344128 -123.52734375 59.03710938 C-124.81988746 52.46006193 -126.12411658 45.88541583 -127.4375 39.3125 C-136.1490131 39.3125 -147.17356378 48.21394726 -153.4375 53.3125 Z M-94.4375 112.3125 C-101.20224073 138.13426136 -101.20224073 138.13426136 -104.4375 164.3125 C-35.1375 164.3125 34.1625 164.3125 105.5625 164.3125 C102.87854831 146.86681403 99.1093523 129.60340496 95.5625 112.3125 C32.8625 112.3125 -29.8375 112.3125 -94.4375 112.3125 Z " fill="#000000" transform="translate(255.4375,296.6875)"/>
<path d="M0 0 C0.65138443 -0.0049649 1.30276886 -0.00992981 1.97389221 -0.01504517 C4.11411632 -0.02956327 6.25426612 -0.0364541 8.39453125 -0.04199219 C9.13280151 -0.04481956 9.87107178 -0.04764694 10.63171387 -0.05056 C14.54468132 -0.0655165 18.45761229 -0.07476622 22.37060547 -0.07910156 C26.37342662 -0.08455734 30.37590265 -0.1085337 34.37861633 -0.13707352 C37.48969428 -0.15588773 40.60069253 -0.16091552 43.71182251 -0.16243744 C45.18512848 -0.16542626 46.65843437 -0.1733237 48.13168335 -0.18662262 C66.80351355 -0.34303761 83.3669084 3.45039336 98.20703125 15.16113281 C99.36525391 16.07185547 99.36525391 16.07185547 100.546875 17.00097656 C117.45123906 31.13129114 123.58582484 50.03729292 126.20703125 71.16113281 C127.73457031 71.56332031 127.73457031 71.56332031 129.29296875 71.97363281 C145.18286008 76.30999991 159.9355565 82.26121394 173.20703125 92.16113281 C173.81804687 92.60070312 174.4290625 93.04027344 175.05859375 93.49316406 C182.70677569 99.35677022 188.13372621 108.1298896 189.58984375 117.66894531 C190.02824752 126.99233207 186.23928664 134.88151641 180.359375 141.94238281 C166.14019901 156.60026296 145.52831391 164.03570886 126.20703125 169.16113281 C125.21703125 169.16113281 124.22703125 169.16113281 123.20703125 169.16113281 C123.07748047 170.01771484 123.07748047 170.01771484 122.9453125 170.89160156 C118.75706444 195.06048255 103.77000269 216.3811647 83.97143555 230.43774414 C62.12699732 245.27910403 35.21486663 250.80912321 9.20703125 245.97363281 C-16.42770965 239.90224681 -38.98757595 226.34058112 -53.38354492 203.80737305 C-59.90912776 193.13476789 -65.08897253 181.64731205 -66.79296875 169.16113281 C-67.76234375 168.94199219 -68.73171875 168.72285156 -69.73046875 168.49707031 C-91.79513568 163.34855536 -116.12481493 155.14568529 -129.41796875 135.65332031 C-133.39447396 128.44590461 -133.74616668 121.22467207 -132.79296875 113.16113281 C-127.87479287 97.5463919 -115.06427682 89.57191117 -101.29296875 82.31738281 C-79.00166108 71.16113281 -79.00166108 71.16113281 -68.79296875 71.16113281 C-68.839375 70.61328125 -68.88578125 70.06542969 -68.93359375 69.50097656 C-69.6733935 53.25180342 -62.36316732 36.64180456 -51.9375 24.46191406 C-38.07996062 9.5947179 -20.67507553 0.12063426 0 0 Z M-33.79296875 40.16113281 C-40.12512602 47.92006372 -43.45795451 56.30378536 -44.79296875 66.16113281 C-43.44102417 65.98723022 -43.44102417 65.98723022 -42.06176758 65.80981445 C-38.65323592 65.37296876 -35.24435199 64.93908802 -31.83520508 64.50708008 C-30.37184232 64.32105531 -28.90862052 64.13391764 -27.44555664 63.94555664 C-25.31825115 63.67188955 -23.19043647 63.40250099 -21.0625 63.13378906 C-19.78995361 62.97144775 -18.51740723 62.80910645 -17.20629883 62.6418457 C-7.27026081 61.49816832 2.6391897 60.99934348 12.63671875 60.95800781 C13.77844543 60.95112946 14.92017212 60.9442511 16.09649658 60.93716431 C19.75837441 60.92010037 23.42011578 60.91371082 27.08203125 60.91113281 C28.33014587 60.90946106 29.5782605 60.90778931 30.86419678 60.90606689 C49.82998383 60.90454351 68.41131452 61.50591101 87.20703125 64.16113281 C88.49448242 64.34192383 89.78193359 64.52271484 91.10839844 64.70898438 C94.47557613 65.18664006 97.84170067 65.67065713 101.20703125 66.16113281 C99.67152864 52.72091502 93.76752422 41.71668768 83.20703125 33.16113281 C73.75479103 26.38826778 63.84393491 23.0781668 52.20849609 23 C51.04643646 22.99039246 49.88437683 22.98078491 48.68710327 22.97088623 C47.44328888 22.96663635 46.19947449 22.96238647 44.91796875 22.95800781 C43.62315582 22.95230774 42.3283429 22.94660767 40.99429321 22.94073486 C38.25579439 22.93026087 35.51732459 22.92439549 32.77880859 22.92089844 C29.30263927 22.91543753 25.82686632 22.8914464 22.35082054 22.86292648 C18.99821261 22.83959525 15.64565347 22.83783664 12.29296875 22.83300781 C11.06129974 22.82066101 9.82963074 22.80831421 8.56063843 22.79559326 C-8.42442774 22.83875587 -22.02344933 27.71965121 -33.79296875 40.16113281 Z M-105.79296875 113.16113281 C-107.8102589 115.54315623 -108.71839584 116.86284118 -109.48046875 119.91113281 C-108.34828445 125.26327679 -105.04725417 127.90785573 -100.79296875 131.16113281 C-91.89534297 136.72600628 -79.5184063 144.16113281 -68.79296875 144.16113281 C-68.77838623 143.39969971 -68.76380371 142.6382666 -68.7487793 141.85375977 C-68.67416334 138.39321393 -68.57754616 134.93361836 -68.48046875 131.47363281 C-68.45791016 130.27544922 -68.43535156 129.07726562 -68.41210938 127.84277344 C-68.37666016 126.68583984 -68.34121094 125.52890625 -68.3046875 124.33691406 C-68.27850342 123.27384033 -68.25231934 122.2107666 -68.2253418 121.11547852 C-67.7347345 117.76322615 -66.79824754 115.87318292 -64.79296875 113.16113281 C-61.64202742 111.06050526 -60.57053215 110.81799995 -56.91796875 110.72363281 C-55.65339844 110.66369141 -55.65339844 110.66369141 -54.36328125 110.60253906 C-50.55714208 111.42970913 -49.20388845 113.14079719 -46.79296875 116.16113281 C-46.31960793 119.09045431 -46.1396097 121.4449649 -46.19140625 124.36425781 C-46.18339996 125.16031433 -46.17539368 125.95637085 -46.16714478 126.77655029 C-46.14413707 129.32192892 -46.15346769 131.86571303 -46.16796875 134.41113281 C-46.20943364 161.02122792 -42.23364587 183.46210782 -22.79296875 203.16113281 C-8.84188072 216.9164161 8.43923815 223.84622689 28.01953125 224.47363281 C49.02675536 224.03483962 67.44520508 215.65336203 82.04345703 200.79785156 C96.75821112 185.1778 102.31877208 165.37438001 102.34765625 144.36425781 C102.36595876 142.73012901 102.38552663 141.09601396 102.40625 139.46191406 C102.43533006 136.92504881 102.45703545 134.38909441 102.45751953 131.85205078 C102.4608531 129.37616092 102.49534691 126.90229522 102.53515625 124.42675781 C102.52808655 123.6714679 102.52101685 122.91617798 102.51373291 122.13800049 C102.60606594 118.13686459 103.05939542 116.34537544 105.59277344 113.18383789 C109.20713554 110.38733154 111.41575986 110.50786794 115.828125 110.73144531 C119.18901228 111.33850213 120.96213302 112.62657029 123.20703125 115.16113281 C124.26539786 118.33623263 124.40946914 120.80395664 124.5234375 124.14160156 C124.5862793 125.88666992 124.5862793 125.88666992 124.65039062 127.66699219 C124.68970703 128.88193359 124.72902344 130.096875 124.76953125 131.34863281 C124.83430664 133.18844727 124.83430664 133.18844727 124.90039062 135.06542969 C125.00656215 138.09721662 125.10861077 141.12908596 125.20703125 144.16113281 C131.58179946 142.97339896 137.30202893 141.14088046 143.20703125 138.47363281 C143.99158691 138.12131592 144.77614258 137.76899902 145.58447266 137.40600586 C151.43292986 134.69573038 156.53926854 131.66218971 161.20703125 127.16113281 C162.07328125 126.33613281 162.93953125 125.51113281 163.83203125 124.66113281 C165.44372505 122.14114144 165.44372505 122.14114144 165.45703125 118.78613281 C162.58984765 110.47130037 154.46057203 106.81649869 146.93994141 103.14624023 C110.73565383 86.32285306 68.83492412 82.93767897 29.39453125 82.91113281 C28.48306335 82.91045807 27.57159546 82.90978333 26.63250732 82.90908813 C-15.0787789 82.95761389 -72.96652955 84.05542347 -105.79296875 113.16113281 Z " fill="#000000" transform="translate(227.79296875,27.8388671875)"/>
</svg>
