<?xml version="1.0" encoding="UTF-8"?>
<!DOCTYPE svg PUBLIC "-//W3C//DTD SVG 1.1//EN" "http://www.w3.org/Graphics/SVG/1.1/DTD/svg11.dtd">
<svg xmlns="http://www.w3.org/2000/svg" version="1.1" width="512px" height="512px" style="shape-rendering:geometricPrecision; text-rendering:geometricPrecision; image-rendering:optimizeQuality; fill-rule:evenodd; clip-rule:evenodd" xmlns:xlink="http://www.w3.org/1999/xlink">
<g><path style="opacity:0.942" fill="#000000" d="M 225.5,1.5 C 233.943,1.06187 242.277,1.56187 250.5,3C 256.048,9.29217 255.715,15.2922 249.5,21C 218.636,22.2991 189.636,30.2991 162.5,45C 153.813,50.3648 145.146,55.6981 136.5,61C 128.5,62.3333 123.833,59 122.5,51C 123.145,46.3369 125.478,42.6702 129.5,40C 158.361,19.2159 190.361,6.38253 225.5,1.5 Z"/></g>
<g><path style="opacity:0.937" fill="#000000" d="M 273.5,1.5 C 327.284,6.14507 372.784,27.8117 410,66.5C 413.312,75.2063 410.645,81.2063 402,84.5C 399.755,83.8629 397.588,83.0296 395.5,82C 382.029,69.5241 367.696,58.1908 352.5,48C 326.542,33.9234 298.876,24.9234 269.5,21C 265.741,17.2566 264.574,12.7566 266,7.5C 267.707,4.40957 270.207,2.40957 273.5,1.5 Z"/></g>
<g><path style="opacity:0.941" fill="#000000" d="M 237.5,41.5 C 271.657,40.5643 303.991,47.7309 334.5,63C 339.944,69.2557 339.61,75.2557 333.5,81C 329.992,82.2741 326.325,82.2741 322.5,81C 261.066,51.9477 203.733,58.2811 150.5,100C 141.334,103.251 136,100.084 134.5,90.5C 134.515,88.3659 135.015,86.3659 136,84.5C 164.853,58.4925 198.686,44.1591 237.5,41.5 Z"/></g>
<g><path style="opacity:0.938" fill="#000000" d="M 355.5,77.5 C 359.035,78.0516 362.368,79.2182 365.5,81C 404.17,107.781 430.003,143.948 443,189.5C 445.149,196.764 446.983,204.098 448.5,211.5C 447.443,220.377 442.443,223.877 433.5,222C 431.714,221.215 430.214,220.049 429,218.5C 420.727,184.626 406.06,153.959 385,126.5C 373.552,114.712 361.219,104.046 348,94.5C 344.573,86.0322 347.073,80.3655 355.5,77.5 Z"/></g>
<g><path style="opacity:0.94" fill="#000000" d="M 229.5,83.5 C 286.494,83.3198 334.661,103.653 374,144.5C 377.333,149.167 380.667,153.833 384,158.5C 387.256,165.759 385.423,171.259 378.5,175C 375.366,175.79 372.366,175.457 369.5,174C 363.292,167.461 357.459,160.627 352,153.5C 314.534,118.341 270.034,102.175 218.5,105C 213.144,100.553 212.31,95.3864 216,89.5C 220.275,86.7748 224.775,84.7748 229.5,83.5 Z"/></g>
<g><path style="opacity:0.94" fill="#000000" d="M 188.5,95.5 C 199.49,93.9918 204.324,98.6585 203,109.5C 201.878,111.624 200.378,113.457 198.5,115C 164.257,131.263 143.424,158.096 136,195.5C 132.344,213.104 129.01,230.771 126,248.5C 122.244,269.514 113.077,287.68 98.5,303C 90.912,307.507 85.0787,306.007 81,298.5C 80.3333,296.167 80.3333,293.833 81,291.5C 92.6096,278.616 100.276,263.616 104,246.5C 107.57,226.41 111.57,206.41 116,186.5C 125.474,144.1 149.641,113.767 188.5,95.5 Z"/></g>
<g><path style="opacity:0.937" fill="#000000" d="M 116.5,104.5 C 126.777,103.612 131.611,108.278 131,118.5C 114.42,137.657 103.087,159.657 97,184.5C 92.3325,203.838 87.6659,223.172 83,242.5C 80.5748,248.795 76.0748,250.962 69.5,249C 64.6732,247.031 62.3399,243.364 62.5,238C 67.7343,208.562 75.2343,179.729 85,151.5C 92.0549,133.35 102.555,117.684 116.5,104.5 Z"/></g>
<g><path style="opacity:0.943" fill="#000000" d="M 231.5,126.5 C 267.181,124.338 298.515,134.838 325.5,158C 354.196,184.385 372.529,216.719 380.5,255C 380.864,262.305 377.364,266.138 370,266.5C 366.145,266.405 363.145,264.738 361,261.5C 353.563,228.443 337.729,200.277 313.5,177C 293.591,159.217 270.258,149.384 243.5,147.5C 213.142,148.699 192.308,163.366 181,191.5C 177.484,202.571 173.817,213.571 170,224.5C 164.965,229.232 159.465,229.732 153.5,226C 152.095,224.023 151.095,221.857 150.5,219.5C 154.227,196.468 162.727,175.468 176,156.5C 191.082,140.044 209.582,130.044 231.5,126.5 Z"/></g>
<g><path style="opacity:0.941" fill="#000000" d="M 242.5,169.5 C 255.729,168.538 268.395,170.705 280.5,176C 286.189,180.657 287.022,186.157 283,192.5C 280.694,194.888 277.861,195.888 274.5,195.5C 236.715,184.133 213.215,197.467 204,235.5C 200.52,262.049 195.853,288.382 190,314.5C 178.15,356.404 155.65,391.237 122.5,419C 113.907,421.705 108.574,418.705 106.5,410C 106.796,408.112 107.296,406.278 108,404.5C 120.075,392.429 131.408,379.763 142,366.5C 159.119,342.159 169.786,315.159 174,285.5C 176.721,266.786 179.721,248.12 183,229.5C 189.762,196.239 209.595,176.239 242.5,169.5 Z"/></g>
<g><path style="opacity:0.944" fill="#000000" d="M 387.5,183.5 C 395.661,182.165 400.828,185.499 403,193.5C 412.535,219.642 420.202,246.308 426,273.5C 431.161,308.666 430.161,343.666 423,378.5C 418.401,385.062 412.568,386.229 405.5,382C 403.808,379.425 402.808,376.592 402.5,373.5C 410.491,331.452 408.991,289.785 398,248.5C 392.9,230.969 387.233,213.636 381,196.5C 380.011,190.477 382.178,186.144 387.5,183.5 Z"/></g>
<g><path style="opacity:0.943" fill="#000000" d="M 301.5,194.5 C 306.894,195.114 311.394,197.447 315,201.5C 354.863,255.132 367.529,314.799 353,380.5C 344.899,425.54 325.065,464.373 293.5,497C 283.561,503.446 276.894,501.113 273.5,490C 274.227,488.601 274.727,487.101 275,485.5C 291.617,468.272 305.283,448.939 316,427.5C 331.414,390.684 338.08,352.351 336,312.5C 332.545,273.428 318.212,239.095 293,209.5C 291.123,201.928 293.956,196.928 301.5,194.5 Z"/></g>
<g><path style="opacity:0.944" fill="#000000" d="M 255.5,213.5 C 268.186,214.003 279.186,218.503 288.5,227C 309.424,250.071 321.257,277.238 324,308.5C 324.667,319.833 324.667,331.167 324,342.5C 321.517,350.079 316.35,352.579 308.5,350C 307.333,348.833 306.167,347.667 305,346.5C 303.667,331.182 302.334,315.849 301,300.5C 296.865,277.731 287.032,257.897 271.5,241C 259.384,233.065 249.218,235.232 241,247.5C 233.791,260.86 230.125,275.194 230,290.5C 229.364,300.471 224.198,304.305 214.5,302C 212.061,301.226 210.227,299.726 209,297.5C 207.824,277.557 211.49,258.557 220,240.5C 227.454,225.545 239.287,216.545 255.5,213.5 Z"/></g>
<g><path style="opacity:0.938" fill="#000000" d="M 148.5,244.5 C 154.898,243.053 159.731,245.053 163,250.5C 159.53,281.243 149.864,309.909 134,336.5C 125.073,350.095 113.573,360.928 99.5,369C 88.5555,370.385 84.0555,365.552 86,354.5C 92.9178,348.186 99.9178,341.852 107,335.5C 116.356,324.453 123.689,312.119 129,298.5C 133.955,283.345 138.289,268.012 142,252.5C 143.305,249.039 145.471,246.372 148.5,244.5 Z"/></g>
<g><path style="opacity:0.943" fill="#000000" d="M 259.5,259.5 C 267.168,259.417 273.334,262.417 278,268.5C 283.936,276.967 287.936,286.3 290,296.5C 296.93,342.52 288.93,385.853 266,426.5C 249.429,455.438 228.262,480.605 202.5,502C 191.67,504.835 186.503,500.669 187,489.5C 187.667,488.167 188.333,486.833 189,485.5C 229.809,452.225 256.142,409.892 268,358.5C 272.085,339.889 272.418,321.223 269,302.5C 267.897,297.628 266.23,292.962 264,288.5C 262.873,291.377 262.206,294.377 262,297.5C 261.667,311.5 261.333,325.5 261,339.5C 259.416,363.251 252.416,385.251 240,405.5C 221.507,434.006 199.341,459.506 173.5,482C 162.387,486.981 156.554,483.481 156,471.5C 156.901,468.929 158.234,466.596 160,464.5C 187.522,440.661 210.189,412.994 228,381.5C 232.72,371.623 236.053,361.29 238,350.5C 239.234,332.534 239.9,314.534 240,296.5C 240.643,286.262 243.309,276.595 248,267.5C 251.15,263.689 254.983,261.023 259.5,259.5 Z"/></g>
<g><path style="opacity:0.945" fill="#000000" d="M 374.5,280.5 C 380.327,279.937 384.494,282.27 387,287.5C 396.634,327.884 395.3,367.884 383,407.5C 379.591,418.73 375.591,429.73 371,440.5C 365.691,444.327 360.191,444.494 354.5,441C 353.042,438.923 352.376,436.59 352.5,434C 355.714,420.687 359.547,407.521 364,394.5C 368.505,378.303 371.005,361.803 371.5,345C 370.786,327.576 369.12,310.242 366.5,293C 366.218,286.809 368.885,282.642 374.5,280.5 Z"/></g>
<g><path style="opacity:0.938" fill="#000000" d="M 209.5,317.5 C 214.121,316.993 218.454,317.826 222.5,320C 224.038,322.928 224.704,326.094 224.5,329.5C 223.017,348.097 217.517,365.431 208,381.5C 190.117,408.724 169.284,433.558 145.5,456C 132.118,457.297 127.951,451.797 133,439.5C 145.295,424.87 157.962,410.536 171,396.5C 189.332,375.163 200.665,350.496 205,322.5C 206.025,320.313 207.525,318.646 209.5,317.5 Z"/></g>
<g><path style="opacity:0.937" fill="#000000" d="M 304.5,365.5 C 316.039,364.873 320.539,370.207 318,381.5C 305.374,429.941 281.541,471.774 246.5,507C 241.657,509.835 236.657,510.168 231.5,508C 226.899,503.229 226.399,498.062 230,492.5C 263.219,459.084 285.886,419.417 298,373.5C 299.305,370.039 301.471,367.372 304.5,365.5 Z"/></g>
</svg>
