<?xml version="1.0" encoding="UTF-8"?>
<!DOCTYPE svg PUBLIC "-//W3C//DTD SVG 1.1//EN" "http://www.w3.org/Graphics/SVG/1.1/DTD/svg11.dtd">
<svg xmlns="http://www.w3.org/2000/svg" version="1.1" width="512px" height="512px" style="shape-rendering:geometricPrecision; text-rendering:geometricPrecision; image-rendering:optimizeQuality; fill-rule:evenodd; clip-rule:evenodd" xmlns:xlink="http://www.w3.org/1999/xlink">
<g><path style="opacity:0.947" fill="#000000" d="M 249.5,-0.5 C 252.833,-0.5 256.167,-0.5 259.5,-0.5C 261.103,0.596413 262.603,1.92975 264,3.5C 288.833,55.8333 313.667,108.167 338.5,160.5C 392.093,169.085 445.76,177.251 499.5,185C 504.599,185.379 508.599,187.545 511.5,191.5C 511.5,194.833 511.5,198.167 511.5,201.5C 471.216,243.453 430.882,285.453 390.5,327.5C 400.38,384.781 410.047,442.114 419.5,499.5C 418.038,508.738 412.705,512.238 403.5,510C 354.5,483.167 305.5,456.333 256.5,429.5C 207.276,456.608 158.276,483.941 109.5,511.5C 106.5,511.5 103.5,511.5 100.5,511.5C 96.4074,509.229 94.0741,505.729 93.5,501C 102.566,443.44 111.899,385.94 121.5,328.5C 80.7847,286.786 40.118,245.119 -0.5,203.5C -0.5,200.167 -0.5,196.833 -0.5,193.5C 1.61147,189.602 4.9448,187.435 9.5,187C 63.9987,178.806 118.332,169.972 172.5,160.5C 196.274,109.953 219.774,59.2867 243,8.5C 244.611,5.06241 246.777,2.06241 249.5,-0.5 Z M 254.5,36.5 C 277.212,84.2592 300.212,131.926 323.5,179.5C 324.7,180.531 326.034,181.365 327.5,182C 377.288,189.112 426.955,196.779 476.5,205C 443.363,239.804 409.863,274.304 376,308.5C 373.333,311.833 370.667,315.167 368,318.5C 367.333,321.5 367.333,324.5 368,327.5C 376.651,378.065 384.818,428.398 392.5,478.5C 349.673,455.254 307.006,431.754 264.5,408C 257.48,404.376 250.813,405.043 244.5,410C 203.242,433.547 161.742,456.714 120,479.5C 127.768,428.885 135.768,378.218 144,327.5C 144.667,325.167 144.667,322.833 144,320.5C 141.413,316.239 138.413,312.239 135,308.5C 100.805,274.639 66.972,240.472 33.5,206C 84.6297,198.22 135.63,189.887 186.5,181C 188.617,179.269 190.117,177.102 191,174.5C 212.452,128.598 233.619,82.5979 254.5,36.5 Z"/></g>
<g><path style="opacity:0.957" fill="#000000" d="M 219.5,212.5 C 243.502,212.333 267.502,212.5 291.5,213C 297.603,216.04 299.769,220.874 298,227.5C 296.5,230.333 294.333,232.5 291.5,234C 272.503,234.5 253.503,234.667 234.5,234.5C 234.5,248.5 234.5,262.5 234.5,276.5C 244.172,276.334 253.839,276.5 263.5,277C 288.997,284.136 300.497,300.969 298,327.5C 293.833,346.333 282.333,357.833 263.5,362C 248.833,362.667 234.167,362.667 219.5,362C 213.397,358.96 211.231,354.126 213,347.5C 214.122,345.376 215.622,343.543 217.5,342C 232.461,340.965 247.461,339.965 262.5,339C 277,330.834 279.833,319.667 271,305.5C 268.436,303.273 265.603,301.439 262.5,300C 248.221,298.736 233.888,298.069 219.5,298C 217.376,296.878 215.543,295.378 214,293.5C 212.353,268.921 212.02,244.254 213,219.5C 214.694,216.642 216.861,214.309 219.5,212.5 Z"/></g>
</svg>
