<?xml version="1.0" encoding="UTF-8"?>
<!DOCTYPE svg PUBLIC "-//W3C//DTD SVG 1.1//EN" "http://www.w3.org/Graphics/SVG/1.1/DTD/svg11.dtd">
<svg xmlns="http://www.w3.org/2000/svg" version="1.1" width="512px" height="512px" style="shape-rendering:geometricPrecision; text-rendering:geometricPrecision; image-rendering:optimizeQuality; fill-rule:evenodd; clip-rule:evenodd" xmlns:xlink="http://www.w3.org/1999/xlink">
<g><path style="opacity:0.94" fill="#000000" d="M -0.5,481.5 C -0.5,478.5 -0.5,475.5 -0.5,472.5C 1.01027,471.164 2.67694,469.997 4.5,469C 18.8295,468.5 33.1628,468.333 47.5,468.5C 47.5,408.5 47.5,348.5 47.5,288.5C 23.6104,292.901 7.61036,283.901 -0.5,261.5C -0.5,256.167 -0.5,250.833 -0.5,245.5C 1.26898,239.397 4.10231,233.731 8,228.5C 70.8333,165.667 133.667,102.833 196.5,40C 223.044,21.4701 250.044,20.8035 277.5,38C 307.333,66.5 336.5,95.6667 365,125.5C 365.568,136.803 360.735,139.969 350.5,135C 322.139,106.305 293.472,77.9718 264.5,50C 243.669,38.749 224.003,40.4157 205.5,55C 144.333,116.167 83.1667,177.333 22,238.5C 14.2402,249.183 14.7402,259.35 23.5,269C 32.2549,274.69 40.9216,274.356 49.5,268C 111.167,206.333 172.833,144.667 234.5,83C 237.964,82.1834 241.298,82.5167 244.5,84C 267.695,106.861 290.528,130.028 313,153.5C 313.568,164.803 308.735,167.969 298.5,163C 278.653,142.986 258.653,123.153 238.5,103.5C 180.514,160.986 122.68,218.653 65,276.5C 64.5,340.499 64.3333,404.499 64.5,468.5C 89.8333,468.5 115.167,468.5 140.5,468.5C 140.333,421.165 140.5,373.832 141,326.5C 142.967,317.199 148.467,311.032 157.5,308C 189.833,307.333 222.167,307.333 254.5,308C 262.307,310.474 267.474,315.641 270,323.5C 271.476,371.795 271.976,420.128 271.5,468.5C 297.169,468.333 322.835,468.5 348.5,469C 354.367,471.97 355.867,476.47 353,482.5C 352.097,483.701 350.931,484.535 349.5,485C 234.5,485.667 119.5,485.667 4.5,485C 2.67694,484.003 1.01027,482.836 -0.5,481.5 Z M 165.5,323.5 C 192.835,323.333 220.169,323.5 247.5,324C 249.848,324.346 251.681,325.513 253,327.5C 254.485,374.44 254.985,421.44 254.5,468.5C 222.167,468.5 189.833,468.5 157.5,468.5C 157.333,422.165 157.5,375.832 158,329.5C 159.542,326.108 162.042,324.108 165.5,323.5 Z"/></g>
<g><path style="opacity:0.93" fill="#000000" d="M 511.5,248.5 C 511.5,257.5 511.5,266.5 511.5,275.5C 505.662,299.843 497.496,323.51 487,346.5C 467.055,389.73 445.055,431.73 421,472.5C 409.564,485.022 396.064,487.856 380.5,481C 376.701,478.203 373.201,475.036 370,471.5C 338.787,420.408 311.787,367.075 289,311.5C 267.549,255.801 279.383,208.635 324.5,170C 360.623,145.275 399.29,140.609 440.5,156C 480.444,174.408 504.111,205.242 511.5,248.5 Z M 393.5,163.5 C 437,165.203 468.166,185.536 487,224.5C 496.631,248.675 496.965,273.008 488,297.5C 474.469,334.232 458.469,369.898 440,404.5C 429.333,423.833 418.667,443.167 408,462.5C 397.853,471.397 389.186,470.064 382,458.5C 362.983,425.805 344.983,392.471 328,358.5C 315.771,334.043 305.771,308.71 298,282.5C 290.632,231.732 309.799,194.899 355.5,172C 367.859,167.165 380.526,164.331 393.5,163.5 Z M 389.5,205.5 C 427.654,206.322 448.987,225.655 453.5,263.5C 449.833,298.5 430.5,317.833 395.5,321.5C 360.5,317.833 341.167,298.5 337.5,263.5C 340.505,231.168 357.838,211.835 389.5,205.5 Z"/></g>
<g><path style="opacity:0.933" fill="#000000" d="M 387.5,188.5 C 428.112,187.543 454.945,206.209 468,244.5C 475.053,281.703 462.553,310.203 430.5,330C 394.67,345.501 363.503,339.001 337,310.5C 315.392,279.754 315.059,248.754 336,217.5C 349.7,201.407 366.867,191.74 387.5,188.5 Z M 389.5,205.5 C 357.838,211.835 340.505,231.168 337.5,263.5C 341.167,298.5 360.5,317.833 395.5,321.5C 430.5,317.833 449.833,298.5 453.5,263.5C 448.987,225.655 427.654,206.322 389.5,205.5 Z"/></g>
<g><path style="opacity:0.895" fill="#000000" d="M 171.5,383.5 C 179.99,383.933 183.323,388.433 181.5,397C 183.12,404.608 180.287,409.441 173,411.5C 165.868,409.585 163.034,404.918 164.5,397.5C 163.188,390.789 165.521,386.122 171.5,383.5 Z"/></g>
</svg>
