<?xml version="1.0" encoding="UTF-8"?>
<!DOCTYPE svg PUBLIC "-//W3C//DTD SVG 1.1//EN" "http://www.w3.org/Graphics/SVG/1.1/DTD/svg11.dtd">
<svg xmlns="http://www.w3.org/2000/svg" version="1.1" width="512px" height="512px" style="shape-rendering:geometricPrecision; text-rendering:geometricPrecision; image-rendering:optimizeQuality; fill-rule:evenodd; clip-rule:evenodd" xmlns:xlink="http://www.w3.org/1999/xlink">
<g><path style="opacity:0.966" fill="#000000" d="M 445.5,46.5 C 456.556,46.8899 462.89,52.5565 464.5,63.5C 463.945,67.0537 462.779,70.387 461,73.5C 439.833,94.6667 418.667,115.833 397.5,137C 439.676,166.172 472.176,203.672 495,249.5C 496.301,255.922 495.301,261.922 492,267.5C 461.766,316.503 421.933,355.67 372.5,385C 311.549,418.41 247.882,424.743 181.5,404C 169.242,399.787 157.409,394.621 146,388.5C 121.833,412.667 97.6667,436.833 73.5,461C 55.0904,467.246 46.5904,460.746 48,441.5C 48.6667,440.167 49.3333,438.833 50,437.5C 72.1667,415.333 94.3333,393.167 116.5,371C 74.9212,341.761 41.4212,305.261 16,261.5C 15.3333,257.5 15.3333,253.5 16,249.5C 46.2598,197.785 87.0931,156.618 138.5,126C 198.925,93.3232 262.258,86.3232 328.5,105C 341.955,109.705 355.289,114.372 368.5,119C 391.5,96 414.5,73 437.5,50C 440.158,48.522 442.825,47.3554 445.5,46.5 Z M 254.5,127.5 C 284.219,127.787 312.886,133.453 340.5,144.5C 341.521,145.002 341.688,145.668 341,146.5C 331,156.5 321,166.5 311,176.5C 282.005,157.831 251.171,154.331 218.5,166C 180.439,183.597 160.439,213.43 158.5,255.5C 158.999,275.829 164.999,294.329 176.5,311C 164.833,322.667 153.167,334.333 141.5,346C 104.785,322.785 74.7854,292.618 51.5,255.5C 82.3753,206.901 123.709,170.068 175.5,145C 200.881,134.234 227.215,128.401 254.5,127.5 Z M 372.5,161.5 C 410.036,184.704 439.37,215.704 460.5,254.5C 429.482,303.664 387.816,340.831 335.5,366C 280.478,389.407 225.811,388.573 171.5,363.5C 180.819,353.681 190.319,344.014 200,334.5C 228.995,353.169 259.829,356.669 292.5,345C 330.722,327.241 350.722,297.241 352.5,255C 351.906,234.884 345.906,216.551 334.5,200C 347.369,187.298 360.035,174.465 372.5,161.5 Z M 254.5,191.5 C 265.968,191.934 276.635,195.1 286.5,201C 258,229.5 229.5,258 201,286.5C 185.755,256.056 190.589,229.222 215.5,206C 227.15,197.286 240.15,192.453 254.5,191.5 Z M 309.5,224.5 C 313.226,229.141 315.726,234.474 317,240.5C 322.534,270.925 312.367,294.425 286.5,311C 265.748,321.999 245.082,321.665 224.5,310C 253.035,281.632 281.368,253.132 309.5,224.5 Z"/></g>
</svg>
