<?xml version="1.0" encoding="UTF-8"?>
<!DOCTYPE svg PUBLIC "-//W3C//DTD SVG 1.1//EN" "http://www.w3.org/Graphics/SVG/1.1/DTD/svg11.dtd">
<svg xmlns="http://www.w3.org/2000/svg" version="1.1" width="50px" height="50px" style="shape-rendering:geometricPrecision; text-rendering:geometricPrecision; image-rendering:optimizeQuality; fill-rule:evenodd; clip-rule:evenodd" xmlns:xlink="http://www.w3.org/1999/xlink">
<g><path style="opacity:0.646" fill="#000000" d="M 9.5,-0.5 C 10.5,-0.5 11.5,-0.5 12.5,-0.5C 14.0361,2.09219 16.3695,3.09219 19.5,2.5C 19.7412,6.13501 20.5745,9.46834 22,12.5C 19.6043,14.8928 17.1043,16.2262 14.5,16.5C 11.3148,16.9804 8.48146,16.3137 6,14.5C 5.50999,15.7932 5.34332,17.1266 5.5,18.5C 4.5,18.5 3.5,18.5 2.5,18.5C 2.97542,15.6874 1.97542,13.6874 -0.5,12.5C -0.5,11.5 -0.5,10.5 -0.5,9.5C 2.09219,7.96386 3.09219,5.63053 2.5,2.5C 5.63053,3.09219 7.96386,2.09219 9.5,-0.5 Z M 10.5,3.5 C 13.1368,5.15382 12.8034,5.65382 9.5,5C 10.056,4.61742 10.3893,4.11742 10.5,3.5 Z M 5.5,5.5 C 8.00092,5.51092 8.16758,6.17759 6,7.5C 5.53566,6.90558 5.36899,6.23891 5.5,5.5 Z M 14.5,6.5 C 15.0768,5.22671 15.7435,5.22671 16.5,6.5C 16.0302,7.46295 15.3635,7.46295 14.5,6.5 Z M 8.5,8.5 C 10.1667,8.5 11.8333,8.5 13.5,8.5C 13.5,10.1667 13.5,11.8333 13.5,13.5C 11.8333,13.5 10.1667,13.5 8.5,13.5C 8.5,11.8333 8.5,10.1667 8.5,8.5 Z M 4.5,9.5 C 5.57346,10.2506 5.74012,11.2506 5,12.5C 3.27165,11.6477 3.10498,10.6477 4.5,9.5 Z M 16.5,9.5 C 18.7602,10.2376 18.9269,11.2376 17,12.5C 16.5172,11.552 16.3505,10.552 16.5,9.5 Z"/></g>
<g><path style="opacity:0.736" fill="#000000" d="M 49.5,16.5 C 49.5,27.5 49.5,38.5 49.5,49.5C 32.8333,49.5 16.1667,49.5 -0.5,49.5C -0.5,40.5 -0.5,31.5 -0.5,22.5C 4.42281,20.0863 9.42281,18.0863 14.5,16.5C 26.2201,15.2549 37.8868,15.2549 49.5,16.5 Z M 29.5,18.5 C 30.2389,18.369 30.9056,18.5357 31.5,19C 21.5796,26.0044 14.4129,35.1711 10,46.5C 7.28086,47.4438 4.44753,47.7771 1.5,47.5C 0.957882,43.4557 1.79122,39.789 4,36.5C 11.4614,28.8679 19.9614,22.8679 29.5,18.5 Z M 44.5,18.5 C 45.0431,18.56 45.3764,18.8933 45.5,19.5C 41.6926,28.5885 38.6926,37.9218 36.5,47.5C 33.1501,47.665 29.8168,47.4983 26.5,47C 30.8736,36.4073 36.8736,26.9073 44.5,18.5 Z M 19.5,19.5 C 12.925,23.5705 7.09171,28.5705 2,34.5C 1.17638,31.1177 1.34305,27.7844 2.5,24.5C 7.88728,21.8146 13.5539,20.148 19.5,19.5 Z M 38.5,19.5 C 32.23,27.6986 27.23,36.6986 23.5,46.5C 20.1667,47.8333 16.8333,47.8333 13.5,46.5C 18.7955,34.5432 27.1288,25.5432 38.5,19.5 Z M 46.5,24.5 C 47.492,31.9818 47.8254,39.6484 47.5,47.5C 44.7531,47.8134 42.0865,47.48 39.5,46.5C 41.8376,39.1543 44.171,31.821 46.5,24.5 Z"/></g>
</svg>
