<?xml version="1.0" encoding="UTF-8"?>
<!DOCTYPE svg PUBLIC "-//W3C//DTD SVG 1.1//EN" "http://www.w3.org/Graphics/SVG/1.1/DTD/svg11.dtd">
<svg xmlns="http://www.w3.org/2000/svg" version="1.1" width="512px" height="512px" style="shape-rendering:geometricPrecision; text-rendering:geometricPrecision; image-rendering:optimizeQuality; fill-rule:evenodd; clip-rule:evenodd" xmlns:xlink="http://www.w3.org/1999/xlink">
<g><path style="opacity:0.944" fill="#000000" d="M 233.5,-0.5 C 248.167,-0.5 262.833,-0.5 277.5,-0.5C 369.217,10.5913 437.717,56.258 483,136.5C 498.511,167.187 508.011,199.521 511.5,233.5C 511.5,248.167 511.5,262.833 511.5,277.5C 499.018,377.805 447.018,449.305 355.5,492C 330.313,502.297 304.313,508.797 277.5,511.5C 262.833,511.5 248.167,511.5 233.5,511.5C 133.195,499.018 61.6947,447.018 19,355.5C 8.70332,330.313 2.20332,304.313 -0.5,277.5C -0.5,262.833 -0.5,248.167 -0.5,233.5C 11.9821,133.195 63.9821,61.6947 155.5,19C 180.687,8.70332 206.687,2.20332 233.5,-0.5 Z M 243.5,17.5 C 244.5,17.5 245.5,17.5 246.5,17.5C 246.667,51.1683 246.5,84.835 246,118.5C 208.909,119.603 172.076,123.603 135.5,130.5C 134.5,130.333 133.5,130.167 132.5,130C 144.439,97.4208 162.772,69.0874 187.5,45C 203.707,30.7296 222.374,21.5629 243.5,17.5 Z M 264.5,17.5 C 293.063,22.3651 316.896,35.6985 336,57.5C 354.116,79.2156 368.283,103.382 378.5,130C 358.227,127.247 337.893,124.581 317.5,122C 300.205,120.336 282.872,119.336 265.5,119C 264.504,85.2398 264.171,51.4065 264.5,17.5 Z M 175.5,30.5 C 176.239,30.369 176.906,30.5357 177.5,31C 146.617,59.5753 124.95,94.0753 112.5,134.5C 89.4625,138.562 66.4625,142.395 43.5,146C 73.5799,91.4795 117.58,52.9795 175.5,30.5 Z M 333.5,31.5 C 333.56,30.9569 333.893,30.6236 334.5,30.5C 393.668,52.6247 437.668,91.2913 466.5,146.5C 443.874,142.284 421.207,138.284 398.5,134.5C 386.701,95.7191 366.367,62.2191 337.5,34C 336.016,33.3378 334.683,32.5045 333.5,31.5 Z M 220.5,137.5 C 229.167,137.5 237.833,137.5 246.5,137.5C 246.5,173.833 246.5,210.167 246.5,246.5C 201.5,246.5 156.5,246.5 111.5,246.5C 112.045,213.896 116.712,181.896 125.5,150.5C 157.088,144.558 188.755,140.225 220.5,137.5 Z M 264.5,137.5 C 305.249,137.969 345.582,142.302 385.5,150.5C 394.288,181.896 398.955,213.896 399.5,246.5C 354.5,246.5 309.5,246.5 264.5,246.5C 264.5,210.167 264.5,173.833 264.5,137.5 Z M 105.5,154.5 C 97.893,184.689 93.893,215.356 93.5,246.5C 68.1667,246.5 42.8333,246.5 17.5,246.5C 18.5843,219.245 24.0843,192.912 34,167.5C 57.5801,162.085 81.4134,157.752 105.5,154.5 Z M 405.5,154.5 C 429.587,157.752 453.42,162.085 477,167.5C 486.916,192.912 492.416,219.245 493.5,246.5C 468.167,246.5 442.833,246.5 417.5,246.5C 417.107,215.356 413.107,184.689 405.5,154.5 Z M 105.5,356.5 C 81.4134,353.248 57.5801,348.915 34,343.5C 24.0843,318.088 18.5843,291.755 17.5,264.5C 42.8333,264.5 68.1667,264.5 93.5,264.5C 93.893,295.644 97.893,326.311 105.5,356.5 Z M 111.5,264.5 C 156.5,264.5 201.5,264.5 246.5,264.5C 246.5,300.833 246.5,337.167 246.5,373.5C 205.751,373.031 165.418,368.698 125.5,360.5C 116.712,329.104 112.045,297.104 111.5,264.5 Z M 264.5,264.5 C 309.5,264.5 354.5,264.5 399.5,264.5C 398.955,297.104 394.288,329.104 385.5,360.5C 345.582,368.698 305.249,373.031 264.5,373.5C 264.5,337.167 264.5,300.833 264.5,264.5 Z M 405.5,356.5 C 413.107,326.311 417.107,295.644 417.5,264.5C 442.833,264.5 468.167,264.5 493.5,264.5C 492.416,291.755 486.916,318.088 477,343.5C 453.42,348.915 429.587,353.248 405.5,356.5 Z M 43.5,365.5 C 66.3235,368.58 89.3235,372.246 112.5,376.5C 124.95,416.925 146.617,451.425 177.5,480C 133.546,464.919 97.0462,439.086 68,402.5C 58.8164,390.788 50.6498,378.454 43.5,365.5 Z M 465.5,364.5 C 466.239,364.369 466.906,364.536 467.5,365C 437.208,420.307 392.541,458.64 333.5,480C 364.383,451.425 386.05,416.925 398.5,376.5C 421.014,372.805 443.347,368.805 465.5,364.5 Z M 132.5,381.5 C 133.274,380.853 134.274,380.52 135.5,380.5C 171.883,387.357 208.55,391.357 245.5,392.5C 246.5,426.16 246.833,459.827 246.5,493.5C 217.414,488.54 193.248,474.874 174,452.5C 156.567,430.972 142.734,407.305 132.5,381.5 Z M 372.5,380.5 C 374.527,380.338 376.527,380.505 378.5,381C 366.561,413.579 348.228,441.913 323.5,466C 306.662,481.084 286.996,490.25 264.5,493.5C 264.167,459.827 264.5,426.16 265.5,392.5C 301.625,391.56 337.292,387.56 372.5,380.5 Z"/></g>
</svg>
