<?xml version="1.0" encoding="UTF-8"?>
<!DOCTYPE svg PUBLIC "-//W3C//DTD SVG 1.1//EN" "http://www.w3.org/Graphics/SVG/1.1/DTD/svg11.dtd">
<svg xmlns="http://www.w3.org/2000/svg" version="1.1" width="512px" height="512px" style="shape-rendering:geometricPrecision; text-rendering:geometricPrecision; image-rendering:optimizeQuality; fill-rule:evenodd; clip-rule:evenodd" xmlns:xlink="http://www.w3.org/1999/xlink">
<g><path style="opacity:0.974" fill="#000000" d="M 249.5,-0.5 C 253.833,-0.5 258.167,-0.5 262.5,-0.5C 342.741,39.6207 423.075,79.7874 503.5,120C 506.976,122.157 509.643,124.99 511.5,128.5C 511.5,134.5 511.5,140.5 511.5,146.5C 509.643,150.01 506.976,152.843 503.5,155C 476.011,168.578 448.678,182.411 421.5,196.5C 448.678,210.589 476.011,224.422 503.5,238C 506.976,240.157 509.643,242.99 511.5,246.5C 511.5,252.5 511.5,258.5 511.5,264.5C 509.643,268.01 506.976,270.843 503.5,273C 476.011,286.578 448.678,300.411 421.5,314.5C 448.678,328.589 476.011,342.422 503.5,356C 506.976,358.157 509.643,360.99 511.5,364.5C 511.5,370.5 511.5,376.5 511.5,382.5C 509.643,386.01 506.976,388.843 503.5,391C 423.075,431.213 342.741,471.379 262.5,511.5C 258.167,511.5 253.833,511.5 249.5,511.5C 169.716,471.108 89.716,430.941 9.5,391C 0.955726,384.965 -1.87761,376.798 1,366.5C 2.77657,362.096 5.6099,358.596 9.5,356C 36.989,342.422 64.3223,328.589 91.5,314.5C 64.3223,300.411 36.989,286.578 9.5,273C 0.955726,266.965 -1.87761,258.798 1,248.5C 2.43943,245.397 4.27276,242.564 6.5,240C 34.8333,225.5 63.1667,211 91.5,196.5C 63.1667,182 34.8333,167.5 6.5,153C -0.0667104,144.948 -1.23338,136.115 3,126.5C 4.5,123.667 6.66667,121.5 9.5,120C 89.716,80.0588 169.716,39.8922 249.5,-0.5 Z M 255.5,42.5 C 319.09,73.6284 382.423,105.295 445.5,137.5C 382.655,169.422 319.655,201.089 256.5,232.5C 193.345,201.089 130.345,169.422 67.5,137.5C 130.228,105.803 192.894,74.1365 255.5,42.5 Z M 137.5,219.5 C 174.935,237.717 212.268,256.217 249.5,275C 254.921,275.839 260.254,275.506 265.5,274C 301.833,255.833 338.167,237.667 374.5,219.5C 398.322,231.244 421.989,243.244 445.5,255.5C 382.655,287.422 319.655,319.089 256.5,350.5C 193.345,319.089 130.345,287.422 67.5,255.5C 90.8945,243.47 114.228,231.47 137.5,219.5 Z M 137.5,337.5 C 174.935,355.717 212.268,374.217 249.5,393C 254.921,393.839 260.254,393.506 265.5,392C 301.833,373.833 338.167,355.667 374.5,337.5C 398.322,349.244 421.989,361.244 445.5,373.5C 382.655,405.422 319.655,437.089 256.5,468.5C 193.345,437.089 130.345,405.422 67.5,373.5C 90.8945,361.47 114.228,349.47 137.5,337.5 Z"/></g>
</svg>
