<?xml version="1.0" encoding="UTF-8"?>
<!DOCTYPE svg PUBLIC "-//W3C//DTD SVG 1.1//EN" "http://www.w3.org/Graphics/SVG/1.1/DTD/svg11.dtd">
<svg xmlns="http://www.w3.org/2000/svg" version="1.1" width="512px" height="512px" style="shape-rendering:geometricPrecision; text-rendering:geometricPrecision; image-rendering:optimizeQuality; fill-rule:evenodd; clip-rule:evenodd" xmlns:xlink="http://www.w3.org/1999/xlink">
<g><path style="opacity:0.977" fill="#000000" d="M 162.5,41.5 C 194.835,41.3334 227.168,41.5 259.5,42C 272.389,45.5699 278.223,54.0699 277,67.5C 275.167,77.3333 269.333,83.1667 259.5,85C 226.833,85.3333 194.167,85.6667 161.5,86C 130.426,92.4068 112.26,111.24 107,142.5C 106.018,219.864 106.351,297.197 108,374.5C 115.133,402.632 132.966,419.465 161.5,425C 194.167,425.333 226.833,425.667 259.5,426C 272.389,429.57 278.223,438.07 277,451.5C 275.167,461.333 269.333,467.167 259.5,469C 227.167,469.667 194.833,469.667 162.5,469C 112.403,463.038 80.2359,435.872 66,387.5C 65.2255,383.853 64.5588,380.186 64,376.5C 63.3333,295.833 63.3333,215.167 64,134.5C 71.5251,89.9732 96.6917,60.4732 139.5,46C 147.223,44.0502 154.889,42.5502 162.5,41.5 Z"/></g>
<g><path style="opacity:0.973" fill="#000000" d="M 335.5,148.5 C 341.892,147.791 347.892,148.957 353.5,152C 383.667,182.167 413.833,212.333 444,242.5C 448.667,251.167 448.667,259.833 444,268.5C 413.833,298.667 383.667,328.833 353.5,359C 341.153,365.28 330.653,363.114 322,352.5C 318.184,343.445 318.85,334.778 324,326.5C 340.167,310.333 356.333,294.167 372.5,278C 317.833,277.667 263.167,277.333 208.5,277C 194.645,272.469 189.145,262.969 192,248.5C 195.023,240.808 200.523,235.975 208.5,234C 263.167,233.667 317.833,233.333 372.5,233C 354.605,215.774 337.439,197.94 321,179.5C 316.222,164.399 321.055,154.065 335.5,148.5 Z"/></g>
</svg>
