<svg width="17" height="16" viewBox="0 0 17 16" fill="none" xmlns="http://www.w3.org/2000/svg">
<circle opacity="0.1" cx="8.31818" cy="8" r="8" fill="#A3DA5A"/>
<path d="M11.3181 12.125V3.875C11.3181 3.46079 10.9823 3.125 10.5681 3.125L6.06805 3.125C5.65384 3.125 5.31805 3.46079 5.31805 3.875L5.31805 12.125C5.31805 12.5392 5.65384 12.875 6.06805 12.875H10.5681C10.9823 12.875 11.3181 12.5392 11.3181 12.125Z" stroke="#A3DA5A" stroke-linecap="round" stroke-linejoin="round"/>
<path d="M8.31842 5.375C8.62908 5.375 8.88092 5.12316 8.88092 4.8125C8.88092 4.50184 8.62908 4.25 8.31842 4.25C8.00776 4.25 7.75592 4.50184 7.75592 4.8125C7.75592 5.12316 8.00776 5.375 8.31842 5.375Z" fill="#A3DA5A"/>
</svg>
