<svg width="39" height="32" viewBox="0 0 39 32" fill="none" xmlns="http://www.w3.org/2000/svg">
<path d="M31.929 31.4805H6.61646C5.05995 31.4806 3.5624 30.8718 2.43102 29.7791C1.29964 28.6864 0.620203 27.1925 0.53208 25.604L0.522705 25.2513V5.12633C0.522574 4.03358 0.928259 2.98154 1.65777 2.1828C2.38729 1.38406 3.38622 0.898203 4.45271 0.823411L4.74146 0.813828H28.179C29.2479 0.813693 30.2771 1.22839 31.0585 1.97412C31.8399 2.71984 32.3152 3.74098 32.3883 4.83116L32.3977 5.12633V6.56383H33.804C34.8729 6.56369 35.9021 6.97839 36.6835 7.72412C37.4649 8.46984 37.9402 9.49098 38.0133 10.5812L38.0227 10.8763V25.2513C38.0228 26.8424 37.4273 28.3732 36.3583 29.5298C35.2893 30.6863 33.828 31.3808 32.274 31.4709L31.929 31.4805ZM6.61646 28.6055H31.929C32.7527 28.6054 33.5464 28.2886 34.1522 27.718C34.758 27.1474 35.1316 26.3647 35.199 25.5254L35.2102 25.2513V10.8763C35.2102 10.529 35.0871 10.1933 34.8638 9.93154C34.6404 9.66975 34.3319 9.49949 33.9952 9.45224L33.804 9.43883H32.3977V24.293C32.3977 24.6404 32.2746 24.976 32.0513 25.2378C31.8279 25.4996 31.5194 25.6698 31.1827 25.7171L30.9915 25.7305C30.6516 25.7305 30.3233 25.6047 30.0672 25.3764C29.8111 25.148 29.6445 24.8326 29.5983 24.4885L29.5852 24.293V5.12633C29.5852 4.77895 29.4621 4.44334 29.2388 4.18154C29.0154 3.91975 28.7069 3.74949 28.3702 3.70224L28.179 3.68883H4.74146C4.40163 3.68884 4.07331 3.81464 3.81721 4.04296C3.56111 4.27129 3.39455 4.58668 3.34833 4.93083L3.33521 5.12633V25.2513C3.33524 26.0931 3.6449 26.9041 4.20273 27.5233C4.76056 28.1425 5.52577 28.5247 6.34646 28.594L6.61646 28.6055ZM19.734 20.9388H25.3702C25.7265 20.9389 26.0695 21.0773 26.3298 21.3259C26.5902 21.5746 26.7485 21.915 26.7728 22.2783C26.797 22.6417 26.6855 23.001 26.4606 23.2835C26.2358 23.566 25.9144 23.7508 25.5615 23.8004L25.3702 23.8138H19.734C19.3777 23.8137 19.0347 23.6754 18.7743 23.4267C18.514 23.1781 18.3557 22.8377 18.3314 22.4743C18.3071 22.1109 18.4187 21.7517 18.6435 21.4692C18.8684 21.1866 19.1897 21.0019 19.5427 20.9522L19.734 20.9388ZM19.734 14.2401H25.3702C25.7265 14.2402 26.0695 14.3785 26.3298 14.6272C26.5902 14.8758 26.7485 15.2162 26.7728 15.5796C26.797 15.943 26.6855 16.3022 26.4606 16.5847C26.2358 16.8673 25.9144 17.052 25.5615 17.1017L25.3702 17.1151H19.734C19.3751 17.1188 19.0285 16.9822 18.765 16.7331C18.5015 16.4841 18.3411 16.1415 18.3167 15.7756C18.2922 15.4096 18.4056 15.0479 18.6335 14.7646C18.8614 14.4813 19.1867 14.2977 19.5427 14.2516L19.734 14.2401ZM7.55021 7.52599H25.3702C25.729 7.52226 26.0757 7.6589 26.3392 7.90793C26.6027 8.15696 26.763 8.49953 26.7875 8.8655C26.8119 9.23148 26.6986 9.59315 26.4707 9.87648C26.2427 10.1598 25.9175 10.3433 25.5615 10.3895L25.3702 10.401H7.55021C7.19391 10.4009 6.85094 10.2625 6.5906 10.0139C6.33025 9.76523 6.17194 9.42484 6.14766 9.06147C6.12337 8.69811 6.23492 8.33887 6.45977 8.05634C6.68461 7.77381 7.00599 7.58905 7.35895 7.53941L7.55021 7.52599Z" fill="#A3DA5A"/>
</svg>
