<?xml version="1.0" encoding="UTF-8"?>
<!DOCTYPE svg PUBLIC "-//W3C//DTD SVG 1.1//EN" "http://www.w3.org/Graphics/SVG/1.1/DTD/svg11.dtd">
<svg xmlns="http://www.w3.org/2000/svg" version="1.1" width="512px" height="512px" style="shape-rendering:geometricPrecision; text-rendering:geometricPrecision; image-rendering:optimizeQuality; fill-rule:evenodd; clip-rule:evenodd" xmlns:xlink="http://www.w3.org/1999/xlink">
<g><path style="opacity:0.897" fill="#000000" d="M 82.5,106.5 C 86.247,106.392 89.9137,106.892 93.5,108C 106.833,114 120.167,120 133.5,126C 141.033,131.258 143.866,138.425 142,147.5C 139.571,152.801 137.571,158.135 136,163.5C 151.958,170.909 167.458,170.075 182.5,161C 199.534,155.26 216.867,154.094 234.5,157.5C 249.278,138.286 268.611,131.12 292.5,136C 304.565,140.866 316.231,146.532 327.5,153C 334.017,155.21 340.684,155.876 347.5,155C 354.558,153.203 361.558,151.203 368.5,149C 366.929,139.67 369.929,132.003 377.5,126C 390.833,120 404.167,114 417.5,108C 426.119,105.319 433.619,107.152 440,113.5C 461.861,161.416 483.527,209.416 505,257.5C 507.2,266.039 505.033,273.205 498.5,279C 483.618,285.941 468.618,292.608 453.5,299C 446.399,300.185 440.232,298.351 435,293.5C 413.088,304.873 391.254,316.373 369.5,328C 367.309,342.938 358.642,350.771 343.5,351.5C 344.01,371.149 334.344,379.982 314.5,378C 312.481,377.55 310.648,376.717 309,375.5C 301.316,391.007 289.482,395.34 273.5,388.5C 264.849,404.197 252.516,408.03 236.5,400C 230.57,393.911 225.236,387.411 220.5,380.5C 216.71,384.792 212.71,388.958 208.5,393C 197.514,398.707 187.681,397.207 179,388.5C 177.139,386.112 175.806,383.446 175,380.5C 161.039,385.514 150.872,381.348 144.5,368C 132.516,371.007 123.016,367.507 116,357.5C 113.795,352.756 113.295,347.923 114.5,343C 95.4456,337.837 89.7789,326.17 97.5,308C 89.5143,303.757 81.3476,299.924 73,296.5C 65.9085,300.2 58.7418,300.366 51.5,297C 38.4153,291.194 25.4153,285.194 12.5,279C 5.00264,271.263 3.50264,262.43 8,252.5C 28.7259,206.048 49.7259,159.714 71,113.5C 74.2635,110.037 78.0968,107.704 82.5,106.5 Z M 82.5,118.5 C 84.8568,118.337 87.1902,118.503 89.5,119C 102.62,124.726 115.62,130.726 128.5,137C 129.966,138.552 130.966,140.386 131.5,142.5C 110.608,189.952 89.4411,237.285 68,284.5C 66.4675,286.562 64.4675,287.896 62,288.5C 48.1229,282.479 34.2896,276.312 20.5,270C 18.2738,268.38 16.9404,266.214 16.5,263.5C 36.0559,218.721 55.8892,174.054 76,129.5C 77.6743,125.476 79.841,121.809 82.5,118.5 Z M 421.5,118.5 C 425.287,117.814 428.454,118.814 431,121.5C 452.459,168.714 473.626,216.047 494.5,263.5C 494.06,266.214 492.726,268.38 490.5,270C 477.917,275.861 465.25,281.527 452.5,287C 448.726,288.183 445.559,287.349 443,284.5C 421.559,237.285 400.392,189.952 379.5,142.5C 380.034,140.386 381.034,138.552 382.5,137C 395.591,130.785 408.591,124.619 421.5,118.5 Z M 273.5,145.5 C 279.988,145.166 286.322,145.999 292.5,148C 302.167,153 311.833,158 321.5,163C 331.25,166.269 341.25,167.269 351.5,166C 358.928,164.135 366.261,161.968 373.5,159.5C 392.569,200.473 411.236,241.64 429.5,283C 408.887,294.224 388.054,305.057 367,315.5C 343.303,282.128 319.97,248.461 297,214.5C 291.245,207.963 284.078,205.797 275.5,208C 273.754,208.471 272.087,209.138 270.5,210C 259.679,218.576 248.679,226.91 237.5,235C 222.171,242.912 206.505,243.578 190.5,237C 187.165,234.321 186.665,231.155 189,227.5C 207,206.833 225,186.167 243,165.5C 247.167,161.333 251.333,157.167 255.5,153C 261.24,149.623 267.24,147.123 273.5,145.5 Z M 211.5,166.5 C 216.196,166.671 220.863,167.171 225.5,168C 210.373,186.129 194.873,203.962 179,221.5C 173.187,232.753 175.687,241.586 186.5,248C 206.909,256.412 226.576,255.079 245.5,244C 255.962,234.938 266.962,226.605 278.5,219C 280.5,218.333 282.5,218.333 284.5,219C 308.723,252.89 332.556,287.057 356,321.5C 358.847,333.655 354.014,339.489 341.5,339C 340.167,338.333 338.833,337.667 337.5,337C 327.964,324.095 318.797,310.929 310,297.5C 306.598,292.677 302.931,292.343 299,296.5C 298.333,298.5 298.333,300.5 299,302.5C 310.248,318.661 321.248,334.994 332,351.5C 333.037,362.13 328.204,367.297 317.5,367C 316.167,366.333 314.833,365.667 313.5,365C 301.556,349.721 290.389,333.888 280,317.5C 277.441,314.651 274.274,313.817 270.5,315C 268.718,317.243 268.218,319.743 269,322.5C 278,335.5 287,348.5 296,361.5C 299.707,370.245 297.207,376.412 288.5,380C 284.88,380.841 281.546,380.174 278.5,378C 268.167,363.667 257.833,349.333 247.5,335C 241.703,333.474 238.87,335.641 239,341.5C 245.941,352.772 253.274,363.772 261,374.5C 264.408,384.582 260.908,390.582 250.5,392.5C 246.808,392.404 243.642,391.071 241,388.5C 236.818,382.323 232.652,376.156 228.5,370C 232.551,365.402 235.718,360.235 238,354.5C 239.449,336.782 231.283,327.782 213.5,327.5C 211.124,313.462 202.79,306.795 188.5,307.5C 186.495,293.101 178.329,286.434 164,287.5C 161.307,272.063 152.14,265.23 136.5,267C 134.051,267.725 131.717,268.725 129.5,270C 120.813,279.219 112.48,288.719 104.5,298.5C 96.7063,294.268 88.7063,290.601 80.5,287.5C 96.2885,249.644 112.955,212.144 130.5,175C 137.663,176.955 144.997,178.622 152.5,180C 160.734,180.954 168.734,179.954 176.5,177C 187.486,170.722 199.153,167.222 211.5,166.5 Z M 140.5,277.5 C 150.872,279.335 154.038,285.001 150,294.5C 140.5,306 131,317.5 121.5,329C 108.667,332.167 103.833,327.333 107,314.5C 115.667,303.833 124.333,293.167 133,282.5C 135.17,280.177 137.67,278.51 140.5,277.5 Z M 163.5,298.5 C 174.127,298.284 178.293,303.284 176,313.5C 164.543,327.959 152.71,342.126 140.5,356C 134.046,358.514 129.212,356.681 126,350.5C 125.088,346.548 125.755,342.881 128,339.5C 137.239,328.684 146.239,317.684 155,306.5C 157.64,303.471 160.473,300.805 163.5,298.5 Z M 189.5,318.5 C 196.944,318.215 201.277,321.715 202.5,329C 201.773,330.399 201.273,331.899 201,333.5C 191.38,345.242 181.88,357.075 172.5,369C 165.415,373.292 159.915,371.792 156,364.5C 155.21,361.366 155.543,358.366 157,355.5C 165,345.5 173,335.5 181,325.5C 183.464,322.519 186.297,320.186 189.5,318.5 Z M 215.5,338.5 C 225.441,340.383 228.608,346.05 225,355.5C 217.474,364.058 210.307,372.892 203.5,382C 195.594,386.621 189.761,384.787 186,376.5C 185.516,374.087 185.85,371.754 187,369.5C 194.047,361.455 200.713,353.122 207,344.5C 209.322,341.605 212.155,339.605 215.5,338.5 Z"/></g>
<g><path style="opacity:0.855" fill="#000000" d="M 38.5,252.5 C 45.1718,253.494 51.5052,255.66 57.5,259C 60.7828,264.267 59.4495,267.767 53.5,269.5C 48.0582,267.613 42.7249,265.446 37.5,263C 34.6516,259.107 34.9849,255.607 38.5,252.5 Z"/></g>
<g><path style="opacity:0.845" fill="#000000" d="M 468.5,252.5 C 475.503,251.673 478.003,254.673 476,261.5C 471.063,264.385 465.896,266.885 460.5,269C 453.523,269.224 451.356,266.057 454,259.5C 458.962,257.246 463.796,254.912 468.5,252.5 Z"/></g>
</svg>
