<?xml version="1.0" encoding="UTF-8"?>
<!DOCTYPE svg PUBLIC "-//W3C//DTD SVG 1.1//EN" "http://www.w3.org/Graphics/SVG/1.1/DTD/svg11.dtd">
<svg xmlns="http://www.w3.org/2000/svg" version="1.1" width="512px" height="512px" style="shape-rendering:geometricPrecision; text-rendering:geometricPrecision; image-rendering:optimizeQuality; fill-rule:evenodd; clip-rule:evenodd" xmlns:xlink="http://www.w3.org/1999/xlink">
<g><path style="opacity:0.941" fill="#000000" d="M 511.5,68.5 C 511.5,97.8333 511.5,127.167 511.5,156.5C 510.354,158.475 508.687,159.975 506.5,161C 477.502,161.5 448.502,161.667 419.5,161.5C 419.667,249.834 419.5,338.167 419,426.5C 411.026,463.806 388.026,484.14 350,487.5C 255.248,487.655 160.414,487.489 65.5,487C 29.6694,482.329 7.66941,462.496 -0.5,427.5C -0.5,408.833 -0.5,390.167 -0.5,371.5C 1.43331,369.404 3.76664,367.904 6.5,367C 28.1641,366.5 49.8308,366.333 71.5,366.5C 72.3575,268.501 73.1908,170.501 74,72.5C 78.2799,43.8869 94.7799,27.7203 123.5,24C 235.5,23.3333 347.5,23.3333 459.5,24C 479.648,25.1483 494.815,34.315 505,51.5C 507.89,57.0196 510.057,62.6863 511.5,68.5 Z M 121.5,41.5 C 219.834,41.3333 318.167,41.5 416.5,42C 410.011,50.1462 405.511,59.3128 403,69.5C 402.667,186.167 402.333,302.833 402,419.5C 398.586,446.843 383.419,463.343 356.5,469C 328.706,470.356 309.539,458.189 299,432.5C 298.206,429.529 297.539,426.529 297,423.5C 296.667,406.833 296.333,390.167 296,373.5C 295.315,370.943 293.815,369.109 291.5,368C 224.225,366.51 156.892,366.01 89.5,366.5C 89.82,267.829 90.6533,169.162 92,70.5C 95.7968,54.5353 105.63,44.8686 121.5,41.5 Z M 452.5,41.5 C 475.364,41.2012 489.197,52.2012 494,74.5C 494.5,97.831 494.667,121.164 494.5,144.5C 469.5,144.5 444.5,144.5 419.5,144.5C 419.059,119.795 419.559,95.1285 421,70.5C 425.648,54.3473 436.148,44.6807 452.5,41.5 Z M 239.5,98.5 C 258.815,106.655 277.815,115.655 296.5,125.5C 297.666,145.158 297.833,164.825 297,184.5C 294.183,198.298 287.016,209.131 275.5,217C 263.99,224.515 252.49,232.015 241,239.5C 226.735,230.238 212.735,220.572 199,210.5C 186.135,194.202 181.635,175.702 185.5,155C 185.833,145.167 186.167,135.333 186.5,125.5C 204.384,116.726 222.05,107.726 239.5,98.5 Z M 16.5,384.5 C 103.833,384.5 191.167,384.5 278.5,384.5C 278.333,396.171 278.5,407.838 279,419.5C 279.988,439.307 287.821,455.807 302.5,469C 222.5,469.667 142.5,469.667 62.5,469C 36.8927,463.726 21.726,448.226 17,422.5C 16.5001,409.838 16.3334,397.171 16.5,384.5 Z"/></g>
<g><path style="opacity:0.928" fill="#000000" d="M 238.5,79.5 C 243.134,79.4796 247.467,80.6462 251.5,83C 272.726,93.1956 293.56,104.029 314,115.5C 314.333,116.833 314.667,118.167 315,119.5C 315.667,139.833 315.667,160.167 315,180.5C 313.451,200.435 304.951,216.602 289.5,229C 275.66,238.086 261.993,247.419 248.5,257C 246.361,258.404 244.028,259.237 241.5,259.5C 236.63,258.398 232.297,256.232 228.5,253C 217.007,244.753 205.34,236.753 193.5,229C 178.049,216.602 169.549,200.435 168,180.5C 167.045,158.783 167.378,137.116 169,115.5C 170.167,114.333 171.333,113.167 172.5,112C 194.715,101.392 216.715,90.5587 238.5,79.5 Z M 239.5,98.5 C 222.05,107.726 204.384,116.726 186.5,125.5C 186.167,135.333 185.833,145.167 185.5,155C 181.635,175.702 186.135,194.202 199,210.5C 212.735,220.572 226.735,230.238 241,239.5C 252.49,232.015 263.99,224.515 275.5,217C 287.016,209.131 294.183,198.298 297,184.5C 297.833,164.825 297.666,145.158 296.5,125.5C 277.815,115.655 258.815,106.655 239.5,98.5 Z"/></g>
<g><path style="opacity:0.902" fill="#000000" d="M 262.5,144.5 C 272.295,143.786 276.128,148.12 274,157.5C 262.5,170.333 250.333,182.5 237.5,194C 233.467,195.04 229.801,194.374 226.5,192C 220.301,186.136 214.468,179.969 209,173.5C 206.795,164.032 210.628,159.865 220.5,161C 224.8,164.298 228.8,167.965 232.5,172C 233.167,172.667 233.833,172.667 234.5,172C 243.728,162.604 253.062,153.437 262.5,144.5 Z"/></g>
<g><path style="opacity:0.918" fill="#000000" d="M 144.5,280.5 C 211.501,280.333 278.501,280.5 345.5,281C 352.637,283.069 354.804,287.569 352,294.5C 350.786,296.049 349.286,297.215 347.5,298C 279.167,298.667 210.833,298.667 142.5,298C 136.698,294.291 135.531,289.458 139,283.5C 140.876,282.391 142.709,281.391 144.5,280.5 Z"/></g>
<g><path style="opacity:0.969" fill="#000000" d="M 141.5,319.5 C 210.501,319.333 279.501,319.5 348.5,320C 355.152,325.381 355.152,330.715 348.5,336C 279.5,336.667 210.5,336.667 141.5,336C 134.939,330.511 134.939,325.011 141.5,319.5 Z"/></g>
</svg>
