<?xml version="1.0" encoding="UTF-8"?>
<!DOCTYPE svg PUBLIC "-//W3C//DTD SVG 1.1//EN" "http://www.w3.org/Graphics/SVG/1.1/DTD/svg11.dtd">
<svg xmlns="http://www.w3.org/2000/svg" version="1.1" width="512px" height="512px" style="shape-rendering:geometricPrecision; text-rendering:geometricPrecision; image-rendering:optimizeQuality; fill-rule:evenodd; clip-rule:evenodd" xmlns:xlink="http://www.w3.org/1999/xlink">
<g><path style="opacity:0.957" fill="#000000" d="M 83.5,30.5 C 155.501,30.3333 227.501,30.5 299.5,31C 322.393,32.5607 336.893,44.3941 343,66.5C 343.5,111.832 343.667,157.165 343.5,202.5C 374.196,202.064 404.863,202.564 435.5,204C 454.667,208.5 466.5,220.333 471,239.5C 471.667,290.167 471.667,340.833 471,391.5C 464.248,415.412 448.415,427.412 423.5,427.5C 423.667,443.17 423.5,458.837 423,474.5C 421.058,477.978 418.058,479.978 414,480.5C 410.5,479.666 407.333,478.166 404.5,476C 384.5,460 364.5,444 344.5,428C 297.5,427.667 250.5,427.333 203.5,427C 184.333,422.5 172.5,410.667 168,391.5C 167.667,346.167 167.333,300.833 167,255.5C 146.833,271.667 126.667,287.833 106.5,304C 101.553,308.554 96.2196,309.221 90.5,306C 89.2986,305.097 88.4652,303.931 88,302.5C 87.5001,286.837 87.3334,271.17 87.5,255.5C 62.585,255.412 46.7517,243.412 40,219.5C 39.3333,168.833 39.3333,118.167 40,67.5C 46.1077,45.2089 60.6077,32.8756 83.5,30.5 Z M 82.5,47.5 C 155.167,47.3333 227.834,47.5 300.5,48C 316.704,50.5362 325.538,60.0362 327,76.5C 327.667,121.167 327.667,165.833 327,210.5C 325.828,224.34 318.661,233.507 305.5,238C 256.788,238.019 208.121,238.686 159.5,240C 141,254.5 122.5,269 104,283.5C 103.964,270.072 103.297,256.739 102,243.5C 100.786,241.951 99.286,240.785 97.5,240C 91.2303,238.848 84.8969,238.182 78.5,238C 64.7686,233.935 57.2686,224.768 56,210.5C 55.035,163.472 55.3684,116.472 57,69.5C 61.403,57.254 69.903,49.9207 82.5,47.5 Z M 189.5,102.5 C 218.417,105.578 231.917,121.578 230,150.5C 228.914,156.291 226.414,161.291 222.5,165.5C 216.344,159.176 210.344,152.676 204.5,146C 197.181,142.993 192.515,145.326 190.5,153C 191,154.5 191.5,156 192,157.5C 197.333,163.5 202.667,169.5 208,175.5C 208.483,176.448 208.649,177.448 208.5,178.5C 183.057,186.69 164.89,178.69 154,154.5C 149.236,125.665 161.07,108.331 189.5,102.5 Z M 343.5,219.5 C 371.835,219.333 400.169,219.5 428.5,220C 441.266,222.099 449.766,229.266 454,241.5C 455.132,266.137 455.632,290.803 455.5,315.5C 455.632,340.197 455.132,364.863 454,389.5C 450.404,400.096 443.238,406.929 432.5,410C 426.103,410.182 419.77,410.848 413.5,412C 411.714,412.785 410.214,413.951 409,415.5C 407.703,428.739 407.036,442.072 407,455.5C 390.167,442 373.333,428.5 356.5,415C 353.874,412.854 350.874,411.521 347.5,411C 300.5,410.667 253.5,410.333 206.5,410C 192.776,405.942 185.276,396.775 184,382.5C 183.5,340.168 183.333,297.835 183.5,255.5C 224.835,255.667 266.168,255.5 307.5,255C 326.625,250.375 338.625,238.541 343.5,219.5 Z M 318.5,291.5 C 320.335,292.122 321.502,293.456 322,295.5C 325.643,304.765 329.476,313.932 333.5,323C 324.167,323.667 314.833,323.667 305.5,323C 309.975,312.551 314.308,302.051 318.5,291.5 Z"/></g>
<g><path style="opacity:0.931" fill="#000000" d="M 185.5,85.5 C 217.927,85.1145 238.427,100.448 247,131.5C 249.983,149.436 245.817,165.436 234.5,179.5C 239.547,183.558 241.047,188.558 239,194.5C 235.763,198.249 231.93,199.082 227.5,197C 224.781,195.403 222.614,193.237 221,190.5C 202.124,200.573 182.957,201.073 163.5,192C 140.6,177.354 131.433,156.521 136,129.5C 143.301,104.36 159.801,89.6929 185.5,85.5 Z M 189.5,102.5 C 161.07,108.331 149.236,125.665 154,154.5C 164.89,178.69 183.057,186.69 208.5,178.5C 208.649,177.448 208.483,176.448 208,175.5C 202.667,169.5 197.333,163.5 192,157.5C 191.5,156 191,154.5 190.5,153C 192.515,145.326 197.181,142.993 204.5,146C 210.344,152.676 216.344,159.176 222.5,165.5C 226.414,161.291 228.914,156.291 230,150.5C 231.917,121.578 218.417,105.578 189.5,102.5 Z"/></g>
<g><path style="opacity:0.932" fill="#000000" d="M 315.5,259.5 C 320.223,258.553 324.056,259.886 327,263.5C 340.528,295.085 353.862,326.752 367,358.5C 369.216,367.61 365.716,371.777 356.5,371C 354.714,370.215 353.214,369.049 352,367.5C 348.296,358.593 344.462,349.76 340.5,341C 326.5,340.333 312.5,340.333 298.5,341C 294.538,349.76 290.704,358.593 287,367.5C 282,372.833 277,372.833 272,367.5C 271.063,362.597 271.73,357.93 274,353.5C 286.528,324.248 298.862,294.915 311,265.5C 312.332,263.34 313.832,261.34 315.5,259.5 Z M 318.5,291.5 C 314.308,302.051 309.975,312.551 305.5,323C 314.833,323.667 324.167,323.667 333.5,323C 329.476,313.932 325.643,304.765 322,295.5C 321.502,293.456 320.335,292.122 318.5,291.5 Z"/></g>
</svg>
