<?xml version="1.0" encoding="UTF-8"?>
<!DOCTYPE svg PUBLIC "-//W3C//DTD SVG 1.1//EN" "http://www.w3.org/Graphics/SVG/1.1/DTD/svg11.dtd">
<svg xmlns="http://www.w3.org/2000/svg" version="1.1" width="512px" height="512px" style="shape-rendering:geometricPrecision; text-rendering:geometricPrecision; image-rendering:optimizeQuality; fill-rule:evenodd; clip-rule:evenodd" xmlns:xlink="http://www.w3.org/1999/xlink">
<g><path style="opacity:0.943" fill="#000000" d="M 215.5,63.5 C 276.448,59.2408 326.948,79.9075 367,125.5C 408.056,180.234 416.056,239.567 391,303.5C 383.83,319.19 374.663,333.523 363.5,346.5C 391.514,374.681 419.348,403.014 447,431.5C 449.167,444 444,449.167 431.5,447C 403.014,419.348 374.681,391.514 346.5,363.5C 299.63,401.963 246.63,413.797 187.5,399C 126.921,380.088 87.4213,340.255 69,279.5C 53.1722,209.993 71.3389,151.16 123.5,103C 150.514,81.3262 181.181,68.1596 215.5,63.5 Z M 220.5,85.5 C 290.183,83.4051 340.349,113.405 371,175.5C 392.8,232.807 384.467,285.14 346,332.5C 299.328,380.626 244.162,394.126 180.5,373C 125.12,349.27 93.62,307.437 86,247.5C 83.3893,181.871 110.556,133.038 167.5,101C 184.431,92.8559 202.097,87.6892 220.5,85.5 Z"/></g>
</svg>
