<?xml version="1.0" standalone="no"?>
<!DOCTYPE svg PUBLIC "-//W3C//DTD SVG 20010904//EN"
 "http://www.w3.org/TR/2001/REC-SVG-20010904/DTD/svg10.dtd">
<svg version="1.0" xmlns="http://www.w3.org/2000/svg"
 width="512.000000pt" height="512.000000pt" viewBox="0 0 512.000000 512.000000"
 preserveAspectRatio="xMidYMid meet">

<g transform="translate(0.000000,512.000000) scale(0.100000,-0.100000)"
fill="#000000" stroke="none">
<path d="M2340 5030 c-192 -19 -284 -54 -361 -137 -62 -68 -88 -134 -99 -255
-5 -56 -15 -121 -21 -143 -22 -80 -80 -174 -145 -234 -163 -153 -393 -184
-595 -81 -75 38 -152 60 -210 60 -71 0 -171 -35 -227 -79 -87 -69 -233 -285
-343 -506 -91 -183 -114 -256 -106 -347 11 -128 71 -220 203 -309 231 -155
307 -424 189 -665 -44 -90 -100 -153 -189 -213 -129 -87 -191 -180 -202 -303
-9 -87 13 -163 89 -322 113 -233 267 -464 360 -537 55 -44 156 -79 226 -79 58
0 135 22 210 60 202 103 432 72 595 -81 65 -60 123 -154 145 -234 6 -22 16
-87 21 -145 8 -84 16 -117 40 -167 34 -69 105 -139 176 -173 94 -46 418 -71
653 -51 231 20 292 41 382 131 70 70 98 138 110 274 10 115 19 146 66 239 64
123 203 227 341 256 118 25 242 7 353 -49 75 -38 152 -60 210 -60 66 0 165 34
222 75 88 65 257 317 367 547 74 155 95 230 86 316 -11 123 -73 216 -202 303
-234 157 -309 432 -185 677 39 78 100 144 185 201 88 60 140 117 174 190 23
48 27 69 26 146 0 78 -5 101 -32 167 -105 256 -303 571 -415 659 -55 44 -156
79 -226 79 -58 0 -135 -22 -210 -60 -291 -148 -626 -11 -736 301 -8 23 -19 91
-25 151 -11 130 -36 193 -104 266 -62 66 -134 101 -248 118 -117 18 -423 26
-548 14z m420 -160 c155 -14 206 -30 252 -77 47 -48 68 -99 68 -163 0 -183
100 -392 243 -512 206 -171 491 -205 736 -88 147 71 220 65 307 -24 136 -140
364 -562 364 -674 0 -66 -44 -137 -114 -184 -98 -67 -143 -107 -193 -172 -189
-249 -189 -584 0 -831 49 -65 97 -108 194 -173 82 -56 119 -125 110 -208 -7
-72 -134 -333 -238 -488 -163 -247 -237 -279 -430 -186 -351 168 -758 21 -918
-332 -32 -70 -61 -193 -61 -260 0 -68 -18 -117 -62 -164 -53 -58 -100 -71
-305 -86 -180 -13 -428 0 -520 27 -90 27 -152 114 -153 213 -1 185 -99 394
-242 512 -208 174 -490 208 -737 90 -147 -71 -220 -65 -307 24 -136 140 -364
562 -364 674 0 21 12 62 26 90 21 43 40 62 103 104 165 112 264 253 305 435
43 190 -5 397 -127 559 -50 65 -95 105 -194 172 -49 33 -67 53 -89 97 -42 86
-33 131 64 328 90 182 200 355 276 433 87 89 160 95 307 24 351 -168 758 -21
918 332 34 74 61 194 61 270 1 102 71 194 166 217 116 28 371 37 554 21z"/>
<path d="M2460 3450 c-308 -38 -565 -220 -703 -495 -173 -346 -98 -772 184
-1041 80 -76 137 -114 241 -164 243 -116 533 -113 771 7 97 48 150 85 226 157
276 263 353 677 191 1023 -123 263 -362 450 -640 502 -84 15 -198 20 -270 11z
m189 -160 c159 -20 327 -103 437 -215 151 -155 230 -388 204 -601 -60 -481
-551 -775 -1000 -597 -369 146 -556 561 -421 933 103 282 362 469 676 489 11
0 58 -4 104 -9z"/>
</g>
</svg>
