<?xml version="1.0" encoding="UTF-8"?>
<!DOCTYPE svg PUBLIC "-//W3C//DTD SVG 1.1//EN" "http://www.w3.org/Graphics/SVG/1.1/DTD/svg11.dtd">
<svg xmlns="http://www.w3.org/2000/svg" version="1.1" width="512px" height="512px" style="shape-rendering:geometricPrecision; text-rendering:geometricPrecision; image-rendering:optimizeQuality; fill-rule:evenodd; clip-rule:evenodd" xmlns:xlink="http://www.w3.org/1999/xlink">
<g><path style="opacity:0.961" fill="#000000" d="M 279.5,37.5 C 336.698,43.8462 384.198,68.5128 422,111.5C 468.25,168.17 483.916,232.503 469,304.5C 454.129,364.654 420.296,410.487 367.5,442C 351.388,442.886 344.888,435.386 348,419.5C 349.167,417.667 350.333,415.833 351.5,414C 414.245,373.016 444.078,314.85 441,239.5C 432.526,167.381 395.693,115.548 330.5,84C 314.453,77.1547 297.787,72.488 280.5,70C 270.608,66.7247 266.442,59.8914 268,49.5C 270.019,43.6498 273.852,39.6498 279.5,37.5 Z"/></g>
<g><path style="opacity:0.957" fill="#000000" d="M 185.5,46.5 C 199.85,47.0129 206.016,54.3462 204,68.5C 203.439,70.7254 202.439,72.7254 201,74.5C 189.607,80.1122 178.107,85.6122 166.5,91C 126.635,113.532 98.1345,146.032 81,188.5C 74.6896,195.811 67.1896,197.311 58.5,193C 51.7653,187.548 49.5987,180.715 52,172.5C 78.5066,111.348 123.007,69.3478 185.5,46.5 Z"/></g>
<g><path style="opacity:0.962" fill="#000000" d="M 46.5,238.5 C 57.4224,236.375 64.9224,240.375 69,250.5C 71.4206,330.179 107.921,388.012 178.5,424C 216.652,440.609 256.152,444.776 297,436.5C 307.408,436.739 313.242,442.072 314.5,452.5C 314.208,459.626 310.874,464.793 304.5,468C 207.961,485.505 130.794,455.005 73,376.5C 46.8375,337.021 35.1709,293.687 38,246.5C 40.1565,243.024 42.9898,240.357 46.5,238.5 Z"/></g>
</svg>
