<?xml version="1.0" encoding="UTF-8"?>
<!DOCTYPE svg PUBLIC "-//W3C//DTD SVG 1.1//EN" "http://www.w3.org/Graphics/SVG/1.1/DTD/svg11.dtd">
<svg xmlns="http://www.w3.org/2000/svg" version="1.1" width="127px" height="144px" style="shape-rendering:geometricPrecision; text-rendering:geometricPrecision; image-rendering:optimizeQuality; fill-rule:evenodd; clip-rule:evenodd" xmlns:xlink="http://www.w3.org/1999/xlink">
<g><path style="opacity:0.944" fill="#222222" d="M 52.5,-0.5 C 59.5,-0.5 66.5,-0.5 73.5,-0.5C 104.063,8.55537 118.397,29.222 116.5,61.5C 121.152,63.1578 124.486,66.1578 126.5,70.5C 126.5,77.8333 126.5,85.1667 126.5,92.5C 123.747,98.4047 119.08,101.905 112.5,103C 110.093,105.285 107.593,107.451 105,109.5C 98.9556,126.043 87.7889,137.377 71.5,143.5C 65.8333,143.5 60.1667,143.5 54.5,143.5C 36.111,136.146 24.111,122.813 18.5,103.5C 9.77806,103.648 3.44473,99.9817 -0.5,92.5C -0.5,85.1667 -0.5,77.8333 -0.5,70.5C 1.51431,66.1578 4.84765,63.1578 9.5,61.5C 7.56028,29.1657 21.8936,8.49904 52.5,-0.5 Z M 101.5,38.5 C 86.1703,20.4533 67.1703,15.2866 44.5,23C 36.2772,27.3492 29.2772,32.5159 23.5,38.5C 33.2233,15.9697 50.2233,7.13637 74.5,12C 87.9933,16.3272 96.9933,25.1605 101.5,38.5 Z M 31.5,52.5 C 41.7473,56.6166 52.414,58.95 63.5,59.5C 67.8776,59.3778 72.2109,58.8778 76.5,58C 82.5403,56.0921 88.5403,54.4255 94.5,53C 97.2272,55.9563 98.7272,59.4563 99,63.5C 99.6984,69.5236 99.5318,75.5236 98.5,81.5C 98.8333,82.5 99.1667,83.5 99.5,84.5C 100.736,83.7542 102.07,83.4208 103.5,83.5C 104.364,91.553 102.364,98.7197 97.5,105C 91.7684,107.799 85.7684,109.799 79.5,111C 74.4646,110.106 69.298,109.272 64,108.5C 54.8942,106.939 51.2275,110.605 53,119.5C 54.008,121.259 55.508,122.426 57.5,123C 61.8333,123.667 66.1667,123.667 70.5,123C 72.1161,122.385 73.4495,121.385 74.5,120C 80.822,119.004 86.9887,117.504 93,115.5C 86.8877,127.554 76.8877,134.22 63,135.5C 47.8951,133.777 36.8951,126.11 30,112.5C 24.5582,103.185 22.2248,93.1854 23,82.5C 25.5307,85.258 27.0307,84.9246 27.5,81.5C 26.4682,75.5236 26.3016,69.5236 27,63.5C 27.4135,59.3459 28.9135,55.6793 31.5,52.5 Z"/></g>
</svg>
