<?xml version="1.0" encoding="UTF-8"?>
<!DOCTYPE svg PUBLIC "-//W3C//DTD SVG 1.1//EN" "http://www.w3.org/Graphics/SVG/1.1/DTD/svg11.dtd">
<svg xmlns="http://www.w3.org/2000/svg" version="1.1" width="512px" height="512px" style="shape-rendering:geometricPrecision; text-rendering:geometricPrecision; image-rendering:optimizeQuality; fill-rule:evenodd; clip-rule:evenodd" xmlns:xlink="http://www.w3.org/1999/xlink">
<g><path style="opacity:0.95" fill="#000000" d="M 181.5,-0.5 C 195.167,-0.5 208.833,-0.5 222.5,-0.5C 270.461,5.06498 311.628,24.7317 346,58.5C 349.934,68.2997 346.768,74.2997 336.5,76.5C 334.803,76.1012 333.137,75.6012 331.5,75C 271.88,20.3445 204.213,7.67788 128.5,37C 65.8307,67.7085 30.3307,117.875 22,187.5C 21.6667,228.833 21.3333,270.167 21,311.5C 17.5546,319.56 11.7213,321.726 3.5,318C 1.92975,316.603 0.596413,315.103 -0.5,313.5C -0.5,269.5 -0.5,225.5 -0.5,181.5C 9.55856,108.63 46.8919,54.797 111.5,20C 133.856,9.41561 157.19,2.58228 181.5,-0.5 Z"/></g>
<g><path style="opacity:0.944" fill="#000000" d="M 191.5,41.5 C 266.333,40.9225 319.499,74.2559 351,141.5C 359.88,163.103 363.213,185.436 361,208.5C 354.667,215.167 348.333,215.167 342,208.5C 340.023,147.65 312.19,103.484 258.5,76C 207.752,55.4409 160.419,61.4409 116.5,94C 106.96,97.0676 101.293,93.7343 99.5,84C 99.6148,81.2682 100.448,78.7682 102,76.5C 128.318,55.7547 158.151,44.088 191.5,41.5 Z"/></g>
<g><path style="opacity:0.951" fill="#000000" d="M 189.5,84.5 C 195.952,84.0845 202.285,84.5845 208.5,86C 215.589,93.46 214.923,100.127 206.5,106C 149.731,109.108 116.564,138.608 107,194.5C 106.667,233.833 106.333,273.167 106,312.5C 102.903,319.132 97.7364,321.299 90.5,319C 87.6193,317.749 85.786,315.583 85,312.5C 84.3333,271.5 84.3333,230.5 85,189.5C 91.8451,141.662 117.678,108.829 162.5,91C 171.492,88.2401 180.492,86.0734 189.5,84.5 Z"/></g>
<g><path style="opacity:0.948" fill="#000000" d="M 258.5,102.5 C 262.463,102.089 266.13,102.922 269.5,105C 297.512,125.046 314.012,152.213 319,186.5C 319.667,211.167 319.667,235.833 319,260.5C 314.803,266.471 309.303,267.971 302.5,265C 300.383,263.269 298.883,261.102 298,258.5C 297.667,236.167 297.333,213.833 297,191.5C 293.08,163.146 279.58,140.646 256.5,124C 248.051,115.882 248.718,108.715 258.5,102.5 Z"/></g>
<g><path style="opacity:0.949" fill="#000000" d="M 63.5,126.5 C 72.4385,125.112 77.4385,128.779 78.5,137.5C 74.1752,149.309 70.3418,161.309 67,173.5C 65.1426,183.073 64.1426,192.739 64,202.5C 63.1008,243.182 63.4341,283.849 65,324.5C 74.4174,384.252 107.917,423.418 165.5,442C 179.313,445.307 193.313,447.307 207.5,448C 216.003,455.964 215.336,462.964 205.5,469C 135.853,467.606 85.6861,435.773 55,373.5C 47.3652,355.96 43.0319,337.627 42,318.5C 41.3333,276.167 41.3333,233.833 42,191.5C 43.2754,170.397 48.6087,150.397 58,131.5C 59.7297,129.598 61.563,127.931 63.5,126.5 Z"/></g>
<g><path style="opacity:0.946" fill="#000000" d="M 380.5,126.5 C 384.986,125.994 388.819,127.328 392,130.5C 399.524,149.783 403.857,169.783 405,190.5C 405.667,207.5 405.667,224.5 405,241.5C 402.202,248.648 397.036,251.148 389.5,249C 387,247.833 385.167,246 384,243.5C 383.691,223.487 383.024,203.487 382,183.5C 380.074,167.798 376.574,152.465 371.5,137.5C 372.4,131.993 375.4,128.327 380.5,126.5 Z"/></g>
<g><path style="opacity:0.94" fill="#000000" d="M 189.5,127.5 C 219.632,124.162 244.132,134.162 263,157.5C 272.115,170.344 276.948,184.677 277.5,200.5C 276.572,211.299 270.905,215.133 260.5,212C 259,210.5 257.5,209 256,207.5C 255.717,182.075 244.217,163.909 221.5,153C 208.073,148.553 194.573,148.387 181,152.5C 174.128,152.13 170.294,148.463 169.5,141.5C 169.887,136.211 172.554,132.711 177.5,131C 181.623,129.808 185.623,128.641 189.5,127.5 Z"/></g>
<g><path style="opacity:0.958" fill="#000000" d="M 143.5,157.5 C 152.742,156.096 157.742,159.93 158.5,169C 154.892,177.156 152.059,185.656 150,194.5C 149.667,233.5 149.333,272.5 149,311.5C 145.555,319.56 139.721,321.726 131.5,318C 129.951,316.786 128.785,315.286 128,313.5C 127.333,272.167 127.333,230.833 128,189.5C 129.754,176.996 134.921,166.329 143.5,157.5 Z"/></g>
<g><path style="opacity:0.947" fill="#000000" d="M 198.5,180.5 C 205.617,179.14 210.451,181.807 213,188.5C 213.667,203.5 213.667,218.5 213,233.5C 210.052,241.379 204.552,243.879 196.5,241C 194.622,239.457 193.122,237.624 192,235.5C 191.333,219.167 191.333,202.833 192,186.5C 193.494,183.686 195.66,181.686 198.5,180.5 Z"/></g>
<g><path style="opacity:0.949" fill="#000000" d="M 262.5,244.5 C 268.07,243.416 272.57,245.083 276,249.5C 277.135,260.932 277.635,272.432 277.5,284C 277.582,297.198 277.082,310.365 276,323.5C 268.684,354.149 249.851,373.649 219.5,382C 200.146,386.045 181.813,383.378 164.5,374C 158.532,366.515 159.532,360.182 167.5,355C 170.5,354.333 173.5,354.333 176.5,355C 201.059,366.354 222.892,362.52 242,343.5C 247.865,336.102 251.865,327.768 254,318.5C 255.218,295.858 255.885,273.191 256,250.5C 257.494,247.686 259.66,245.686 262.5,244.5 Z"/></g>
<g><path style="opacity:0.949" fill="#000000" d="M 199.5,262.5 C 205.957,261.975 210.457,264.642 213,270.5C 213.667,287.833 213.667,305.167 213,322.5C 208.909,330.879 202.742,332.712 194.5,328C 193.299,327.097 192.465,325.931 192,324.5C 191.333,305.833 191.333,287.167 192,268.5C 194.109,265.878 196.609,263.878 199.5,262.5 Z"/></g>
<g><path style="opacity:0.962" fill="#000000" d="M 511.5,372.5 C 511.5,411.833 511.5,451.167 511.5,490.5C 508.167,501.167 501.167,508.167 490.5,511.5C 426.167,511.5 361.833,511.5 297.5,511.5C 287.083,507.581 280.25,500.247 277,489.5C 276.333,450.833 276.333,412.167 277,373.5C 279.574,363.923 285.407,357.09 294.5,353C 307.426,351.557 320.426,351.057 333.5,351.5C 328.828,325.701 335.494,303.534 353.5,285C 373.226,269.593 394.892,266.26 418.5,275C 437.687,283.518 449.52,298.018 454,318.5C 455.319,329.456 455.819,340.456 455.5,351.5C 467.171,351.333 478.838,351.5 490.5,352C 501.348,355.016 508.348,361.849 511.5,372.5 Z M 387.5,292.5 C 410.472,291.324 425.305,301.657 432,323.5C 432.5,332.827 432.666,342.161 432.5,351.5C 406.833,351.5 381.167,351.5 355.5,351.5C 355.334,342.494 355.5,333.494 356,324.5C 360.014,307.32 370.514,296.653 387.5,292.5 Z M 302.5,373.5 C 364.25,373.008 425.916,373.508 487.5,375C 488.126,375.75 488.626,376.584 489,377.5C 489.167,395.5 489.333,413.5 489.5,431.5C 489.655,450.254 489.155,468.921 488,487.5C 487.25,488.126 486.416,488.626 485.5,489C 424.5,489.667 363.5,489.667 302.5,489C 300.951,487.786 299.785,486.286 299,484.5C 298.333,449.167 298.333,413.833 299,378.5C 299.997,376.677 301.164,375.01 302.5,373.5 Z"/></g>
<g><path style="opacity:0.942" fill="#000000" d="M 109.5,357.5 C 113.792,357.035 117.792,357.868 121.5,360C 141.01,388.511 168.177,403.344 203,404.5C 213.865,403.189 224.699,402.023 235.5,401C 241.603,404.04 243.769,408.874 242,415.5C 240.5,418.333 238.333,420.5 235.5,422C 182.679,434.617 139.512,419.784 106,377.5C 100.597,369.58 101.764,362.914 109.5,357.5 Z"/></g>
<g><path style="opacity:0.942" fill="#000000" d="M 207.5,511.5 C 199.167,511.5 190.833,511.5 182.5,511.5C 108.329,501.465 53.8291,463.465 19,397.5C 15.9903,385.174 20.8237,379.674 33.5,381C 35.286,381.785 36.786,382.951 38,384.5C 67.0739,442.968 113.907,477.468 178.5,488C 187.474,488.999 196.474,489.665 205.5,490C 212.8,493.438 214.967,498.938 212,506.5C 210.293,508.037 208.793,509.704 207.5,511.5 Z"/></g>
<g><path style="opacity:0.946" fill="#000000" d="M 390.5,409.5 C 409.303,410.139 417.47,419.806 415,438.5C 409.36,451.05 399.86,455.55 386.5,452C 373.836,445.906 369.67,436.073 374,422.5C 377.41,415.393 382.91,411.06 390.5,409.5 Z"/></g>
</svg>
