<?xml version="1.0" encoding="UTF-8"?>
<!DOCTYPE svg PUBLIC "-//W3C//DTD SVG 1.1//EN" "http://www.w3.org/Graphics/SVG/1.1/DTD/svg11.dtd">
<svg xmlns="http://www.w3.org/2000/svg" version="1.1" width="512px" height="512px" style="shape-rendering:geometricPrecision; text-rendering:geometricPrecision; image-rendering:optimizeQuality; fill-rule:evenodd; clip-rule:evenodd" xmlns:xlink="http://www.w3.org/1999/xlink">
<g><path style="opacity:0.932" fill="#000000" d="M 240.5,30.5 C 332.886,28.5945 402.719,66.9279 450,145.5C 488.443,222.059 487.11,298.059 446,373.5C 407.953,434.141 353.12,468.974 281.5,478C 209.211,484.907 147.044,463.407 95,413.5C 49.5667,361.869 29.2334,301.536 34,232.5C 45.4144,147.455 89.581,86.2887 166.5,49C 190.344,39.0391 215.01,32.8724 240.5,30.5 Z M 252.5,48.5 C 315.101,48.9598 367.601,71.9598 410,117.5C 442.946,158.489 459.779,205.489 460.5,258.5C 457.583,328.512 428.249,384.346 372.5,426C 308.128,468.271 240.462,474.271 169.5,444C 102.854,409.936 63.6876,355.769 52,281.5C 46.3765,220.056 62.7098,165.389 101,117.5C 141.759,73.2051 192.259,50.2051 252.5,48.5 Z"/></g>
<g><path style="opacity:0.923" fill="#000000" d="M 252.5,127.5 C 255.32,127.248 257.986,127.748 260.5,129C 281,149.5 301.5,170 322,190.5C 325.344,198.479 322.844,203.479 314.5,205.5C 313.062,205.281 311.729,204.781 310.5,204C 295.333,188.833 280.167,173.667 265,158.5C 264.667,217.167 264.333,275.833 264,334.5C 262.839,338.833 260.005,340.833 255.5,340.5C 250.995,340.833 248.161,338.833 247,334.5C 246.667,275.833 246.333,217.167 246,158.5C 230.833,173.667 215.667,188.833 200.5,204C 192.939,206.694 188.606,204.027 187.5,196C 187.542,194.033 188.042,192.199 189,190.5C 210.062,169.271 231.228,148.271 252.5,127.5 Z"/></g>
<g><path style="opacity:0.953" fill="#000000" d="M 167.5,255.5 C 179.171,255.333 190.838,255.5 202.5,256C 206.819,257.123 208.819,259.956 208.5,264.5C 208.819,269.044 206.819,271.877 202.5,273C 191.5,273.333 180.5,273.667 169.5,274C 169,274.5 168.5,275 168,275.5C 167.333,304.833 167.333,334.167 168,363.5C 168.5,364.667 169.333,365.5 170.5,366C 227.541,366.829 284.541,366.662 341.5,365.5C 342.192,364.975 342.692,364.308 343,363.5C 343.667,334.167 343.667,304.833 343,275.5C 342.5,275 342,274.5 341.5,274C 330.5,273.667 319.5,273.333 308.5,273C 304.422,271.712 302.088,268.878 301.5,264.5C 302.088,260.122 304.422,257.288 308.5,256C 320.167,255.333 331.833,255.333 343.5,256C 351.469,257.966 356.969,262.799 360,270.5C 360.667,303.167 360.667,335.833 360,368.5C 357.732,376.435 352.565,381.268 344.5,383C 285.167,383.667 225.833,383.667 166.5,383C 158.435,381.268 153.268,376.435 151,368.5C 150.333,335.833 150.333,303.167 151,270.5C 154.206,262.786 159.706,257.786 167.5,255.5 Z"/></g>
</svg>
