<?xml version="1.0" encoding="UTF-8"?>
<!DOCTYPE svg PUBLIC "-//W3C//DTD SVG 1.1//EN" "http://www.w3.org/Graphics/SVG/1.1/DTD/svg11.dtd">
<svg xmlns="http://www.w3.org/2000/svg" version="1.1" width="512px" height="512px" style="shape-rendering:geometricPrecision; text-rendering:geometricPrecision; image-rendering:optimizeQuality; fill-rule:evenodd; clip-rule:evenodd" xmlns:xlink="http://www.w3.org/1999/xlink">
<g><path style="opacity:0.964" fill="#000000" d="M 234.5,111.5 C 307.852,107.889 371.185,131.056 424.5,181C 442.323,197.809 457.49,216.643 470,237.5C 475.406,252.773 474.073,267.439 466,281.5C 428.867,335.95 378.7,372.784 315.5,392C 236.011,410.625 164.678,394.292 101.5,343C 81.5515,326.721 64.0515,308.221 49,287.5C 35.4842,269.008 34.1509,249.675 45,229.5C 82.133,175.05 132.3,138.216 195.5,119C 208.504,115.765 221.504,113.265 234.5,111.5 Z M 253.5,143.5 C 303.022,144.447 347.022,160.281 385.5,191C 405.116,206.946 422.282,225.113 437,245.5C 441.667,252.167 441.667,258.833 437,265.5C 405.913,309.255 365.08,340.088 314.5,358C 241.955,377.612 176.955,363.279 119.5,315C 102.605,300.006 87.4383,283.506 74,265.5C 69.3333,258.833 69.3333,252.167 74,245.5C 105.087,201.745 145.92,170.912 196.5,153C 215.252,147.43 234.252,144.264 253.5,143.5 Z M 245.5,208.5 C 285.628,206.461 304.461,225.461 302,265.5C 293.887,293.828 275.054,305.994 245.5,302C 227.056,298.365 215.223,287.532 210,269.5C 203.912,238.302 215.746,217.969 245.5,208.5 Z"/></g>
<g><path style="opacity:0.965" fill="#000000" d="M 241.5,175.5 C 276.588,170.808 304.088,182.808 324,211.5C 336.57,235.504 338.903,260.504 331,286.5C 320.136,314.192 299.969,330.359 270.5,335C 212.488,339.812 180.821,313.312 175.5,255.5C 177.291,211.815 199.291,185.148 241.5,175.5 Z M 245.5,208.5 C 215.746,217.969 203.912,238.302 210,269.5C 215.223,287.532 227.056,298.365 245.5,302C 275.054,305.994 293.887,293.828 302,265.5C 304.461,225.461 285.628,206.461 245.5,208.5 Z"/></g>
</svg>
