<?xml version="1.0" encoding="UTF-8"?>
<svg version="1.1" xmlns="http://www.w3.org/2000/svg" width="512" height="512">
<path d="M0 0 C0.96838806 0.00215515 1.93677612 0.0043103 2.93450928 0.00653076 C17.25143438 0.05761097 31.24098845 0.44399783 45.3125 3.3125 C46.33859375 3.51649414 47.3646875 3.72048828 48.421875 3.93066406 C84.48591484 11.26952525 118.28466576 24.84548191 148.3125 46.3125 C148.94816895 46.76028809 149.58383789 47.20807617 150.23876953 47.66943359 C160.38485649 54.85385205 169.53928436 62.80099578 178.43261719 71.47949219 C180.21736218 73.21973445 182.01726141 74.94282882 183.8203125 76.6640625 C191.42459856 84.00330198 197.98463805 91.86095286 204.3125 100.3125 C205.18303528 101.46136089 206.05412137 102.60980463 206.92578125 103.7578125 C212.67693391 111.35915087 212.67693391 111.35915087 215.3125 115.3125 C215.31614563 114.60363647 215.31979126 113.89477295 215.32354736 113.16442871 C215.36154846 106.45609323 215.41853716 99.74821212 215.49640274 93.04021454 C215.53576903 89.59222114 215.5680099 86.14447896 215.58349609 82.69628906 C215.60165662 78.72428185 215.65165575 74.75297054 215.703125 70.78125 C215.70435364 69.55386108 215.70558228 68.32647217 215.70684814 67.06188965 C215.83770069 59.36016838 216.46671248 53.20791058 222.12890625 47.47265625 C222.70511719 47.11042969 223.28132813 46.74820313 223.875 46.375 C224.45378906 45.99472656 225.03257812 45.61445312 225.62890625 45.22265625 C231.24811227 42.18489523 238.64172797 42.31683308 244.703125 43.9609375 C249.70949234 46.19660536 252.72250522 49.52156545 255.3125 54.3125 C256.49027877 57.84583631 256.46128096 60.67711717 256.48950195 64.4074707 C256.49935875 65.48630272 256.49935875 65.48630272 256.50941467 66.58692932 C256.52914159 68.97071446 256.5408162 71.35443624 256.55078125 73.73828125 C256.55485678 74.55653067 256.5589323 75.37478008 256.56313133 76.21782494 C256.58400126 80.55870688 256.59829232 84.89955725 256.60766602 89.24047852 C256.6186613 93.6907446 256.65297753 98.14050108 256.69283772 102.59058857 C256.71920642 106.03880126 256.72737619 109.48689704 256.73094749 112.93520164 C256.73577073 114.57319725 256.74726037 116.21118918 256.76598549 117.84908485 C256.97866056 137.70512166 251.66419454 154.5012266 237.65625 169.1328125 C222.61269342 183.12332012 205.33785307 186.79282983 185.45703125 186.74609375 C183.74313655 186.75066442 182.02924367 186.7559726 180.31535339 186.76197815 C176.74246723 186.77086291 173.16980519 186.76853694 169.59692383 186.75854492 C165.03413498 186.74702299 160.47211638 186.7673393 155.9094286 186.79646206 C152.37736667 186.81485777 148.84548857 186.81452556 145.31339073 186.80882454 C143.6313843 186.80867194 141.94936492 186.81466512 140.26740456 186.82711601 C123.99616022 186.93068252 123.99616022 186.93068252 117.3125 182.3125 C112.47178687 177.4258598 110.3125 172.11262746 110.3125 165.3125 C110.97786901 159.34712271 113.16729338 154.64959051 117.3125 150.3125 C124.3806574 145.70906141 130.71564967 145.71127258 139 145.703125 C140.29824707 145.68658875 141.59649414 145.67005249 142.93408203 145.65301514 C146.36005593 145.60959492 149.78577504 145.58939964 153.2119751 145.57427979 C156.71829132 145.55461629 160.224336 145.51265727 163.73046875 145.47265625 C170.59104283 145.3976297 177.45160638 145.34717226 184.3125 145.3125 C182.71898326 142.90782394 181.12368331 140.5043636 179.52734375 138.1015625 C179.07919312 137.42488525 178.63104248 136.74820801 178.16931152 136.05102539 C174.77243747 130.94249993 171.21779527 126.04716725 167.3125 121.3125 C166.49136719 120.30703125 165.67023438 119.3015625 164.82421875 118.265625 C130.06866969 76.15397429 78.91195508 49.1964692 24.75390625 42.70703125 C-28.65094063 37.94279706 -83.80713253 50.02028923 -126.6875 83.3125 C-127.84867736 84.18050719 -129.01147156 85.04635518 -130.17578125 85.91015625 C-135.46487737 89.86270053 -140.53174195 93.86317421 -145.08203125 98.671875 C-146.86025491 100.48903787 -148.7465045 102.10847237 -150.6875 103.75 C-154.77629235 107.28943446 -158.2353026 111.15953604 -161.6875 115.3125 C-162.35265625 116.08980469 -163.0178125 116.86710937 -163.703125 117.66796875 C-166.08972341 120.50527369 -168.40716256 123.38972805 -170.6875 126.3125 C-171.13222656 126.87984863 -171.57695312 127.44719727 -172.03515625 128.03173828 C-191.81509329 153.64510383 -204.0102198 183.85942344 -210.6875 215.3125 C-210.86684082 216.12460938 -211.04618164 216.93671875 -211.23095703 217.7734375 C-222.23272099 269.6904011 -209.08802944 326.9783177 -181.33398438 371.48291016 C-178.62813925 375.56734026 -175.69125589 379.44366241 -172.6875 383.3125 C-171.81949281 384.47367736 -170.95364482 385.63647156 -170.08984375 386.80078125 C-166.13729947 392.08987737 -162.13682579 397.15674195 -157.328125 401.70703125 C-155.51096213 403.48525491 -153.89152763 405.3715045 -152.25 407.3125 C-148.71056554 411.40129235 -144.84046396 414.8603026 -140.6875 418.3125 C-139.91019531 418.97765625 -139.13289063 419.6428125 -138.33203125 420.328125 C-135.49472631 422.71472341 -132.61027195 425.03216256 -129.6875 427.3125 C-129.12015137 427.75722656 -128.55280273 428.20195312 -127.96826172 428.66015625 C-89.00240981 458.75155896 -40.46713914 471.76617837 8.203125 471.26171875 C9.95846558 471.24588745 9.95846558 471.24588745 11.74926758 471.22973633 C14.03580355 471.20214928 16.32222171 471.15967134 18.6081543 471.1003418 C25.50943153 471.00092428 30.13903136 471.35932843 35.39453125 476.25 C35.96558594 476.930625 36.53664063 477.61125 37.125 478.3125 C37.70894531 478.993125 38.29289062 479.67375 38.89453125 480.375 C42.63152799 485.4811994 42.0364783 492.30487242 41.3125 498.3125 C38.69866514 504.80041154 34.62728941 508.55695553 28.3125 511.3125 C23.53218385 512.6229299 18.70857549 512.49120423 13.7890625 512.515625 C12.85920532 512.52263931 11.92934814 512.52965363 10.97131348 512.53688049 C7.95999337 512.55441842 4.94886941 512.56073938 1.9375 512.5625 C0.91396423 512.56317474 -0.10957153 512.56384949 -1.16412354 512.56454468 C-15.91749656 512.54903373 -30.17226625 512.16401002 -44.6875 509.3125 C-45.58307617 509.15152832 -46.47865234 508.99055664 -47.40136719 508.82470703 C-96.09095832 500.01590196 -141.11629928 476.5726479 -176.6875 442.3125 C-177.34685547 441.68037598 -178.00621094 441.04825195 -178.68554688 440.39697266 C-188.17380305 431.25252521 -196.9137044 421.95515991 -204.6875 411.3125 C-205.54556152 410.16144983 -206.40363451 409.01040823 -207.26171875 407.859375 C-213.29927396 399.66974019 -218.68207302 391.16711724 -223.6875 382.3125 C-224.0896875 381.60528809 -224.491875 380.89807617 -224.90625 380.16943359 C-237.92275099 357.04989063 -246.656052 331.90080247 -252 305.9375 C-252.22103394 304.87172729 -252.22103394 304.87172729 -252.4465332 303.78442383 C-255.43294017 288.14208949 -256.06230954 272.50573907 -256 256.625 C-255.99817719 255.65760895 -255.99635437 254.6902179 -255.99447632 253.69351196 C-255.94904826 239.36059023 -255.44016072 225.41476083 -252.6875 211.3125 C-252.44604248 209.96696045 -252.44604248 209.96696045 -252.19970703 208.59423828 C-243.38971851 159.90656876 -219.94643453 114.88244092 -185.6875 79.3125 C-185.05537598 78.65314453 -184.42325195 77.99378906 -183.77197266 77.31445312 C-174.62752521 67.82619695 -165.33015991 59.0862956 -154.6875 51.3125 C-153.53644983 50.45443848 -152.38540823 49.59636549 -151.234375 48.73828125 C-143.04474019 42.70072604 -134.54211724 37.31792698 -125.6875 32.3125 C-124.98028809 31.9103125 -124.27307617 31.508125 -123.54443359 31.09375 C-100.42489063 18.07724901 -75.27580247 9.343948 -49.3125 4 C-48.24672729 3.77896606 -48.24672729 3.77896606 -47.15942383 3.5534668 C-31.51752803 0.56714355 -15.88042167 -0.06382614 0 0 Z " fill="#000000" transform="translate(255.6875,-0.3125)"/>
<path d="M0 0 C4.89872999 2.85759249 7.79346527 7.1303958 9.5625 12.4375 C9.66327493 14.71470444 9.70191065 16.99479572 9.70967102 19.2742157 C9.71334771 19.97350545 9.7170244 20.67279521 9.7208125 21.39327556 C9.73184708 23.74225296 9.7356928 26.09118611 9.73950195 28.44018555 C9.74576683 30.12220907 9.75241365 31.80423121 9.75941467 33.48625183 C9.78045631 39.01556433 9.79081779 44.54487711 9.80078125 50.07421875 C9.8048289 51.97812222 9.80894582 53.88202555 9.81313133 55.78592873 C9.83218396 64.73149559 9.84641432 73.6770542 9.8547433 82.62263745 C9.86451359 92.9456467 9.89082738 103.2684414 9.93124419 113.59137505 C9.96141676 121.57196346 9.9762133 129.55249042 9.97952431 137.53313476 C9.98187369 142.29873885 9.99081936 147.06411375 10.01598549 151.8296566 C10.03929089 156.3153728 10.04348955 160.80070933 10.03322411 165.28647041 C10.03272922 166.9295465 10.03903579 168.57264142 10.05278015 170.2156601 C10.13832389 181.05118895 9.5572582 188.19318304 2.05351257 196.44769287 C0.64053687 197.88119569 -0.78335873 199.30398952 -2.21606445 200.71777344 C-2.99544373 201.50255569 -3.774823 202.28733795 -4.57781982 203.09590149 C-7.14234853 205.67288021 -9.72103533 208.23513687 -12.30078125 210.796875 C-14.0949925 212.59124132 -15.88853626 214.38627529 -17.68144226 216.1819458 C-21.43520956 219.93709541 -25.19561546 223.68540967 -28.96166992 227.42822266 C-33.30404495 231.74398302 -37.63384674 236.07204856 -41.95705825 240.40699935 C-46.131845 244.59259684 -50.31517069 248.76957423 -54.50237083 252.94275665 C-56.27660414 254.71248234 -58.04876243 256.4842909 -59.8187809 258.25823212 C-62.29549377 260.73786344 -64.78172148 263.20754589 -67.27075195 265.67480469 C-67.99671066 266.40526505 -68.72266937 267.1357254 -69.47062683 267.88832092 C-75.25526422 273.58936381 -80.74908531 277.95149063 -89.10546875 278.53515625 C-96.1281998 278.24107204 -101.5999557 275.39022393 -106.4375 270.4375 C-109.93111645 265.13684056 -110.97450308 259.46502309 -110.140625 253.2109375 C-107.32664271 242.44935659 -98.22682949 235.99535515 -89.28802395 230.39437103 C-65.55256451 215.45092639 -36.97323192 193.98126917 -30.38193512 165.19160461 C-22.05741004 123.55741321 -26.44248307 77.62862074 -29.332901 35.56838989 C-29.43226266 34.05083661 -29.53131501 32.53326305 -29.6300354 31.01566792 C-29.81178423 28.22489617 -30.02299689 25.43874177 -30.25386047 22.65165234 C-30.75065739 15.26660992 -30.5854803 10.66939568 -26.4375 4.4375 C-24.62109375 2.59765625 -24.62109375 2.59765625 -22.875 1.5 C-22.29621094 1.11972656 -21.71742188 0.73945312 -21.12109375 0.34765625 C-14.98998289 -2.96684219 -6.30251123 -2.81448021 0 0 Z " fill="#000000" transform="translate(266.4375,77.5625)"/>
<path d="M0 0 C4.86884523 4.2892208 9.02898707 8.62692146 9.87890625 15.30859375 C10.50012583 26.87129363 3.76524364 33.94671156 -3.5 42.078125 C-3.99322754 42.62629883 -4.48645508 43.17447266 -4.99462891 43.73925781 C-6.24081369 45.15956463 -7.41819307 46.63953006 -8.5859375 48.125 C-11.99080274 52.28815401 -16.09065871 53.44366859 -21.25 54.1875 C-27.72169105 54.65392818 -32.55601106 52.89589701 -37.6875 49 C-42.49286969 44.19463031 -44.34941247 39.09319536 -44.375 32.3125 C-43.77479659 25.60587933 -40.57501115 21.36144957 -36.375 16.3125 C-35.66601562 15.40886719 -34.95703125 14.50523437 -34.2265625 13.57421875 C-25.11957495 2.08946824 -15.38882475 -7.69441238 0 0 Z " fill="#000000" transform="translate(457.375,378.6875)"/>
<path d="M0 0 C4.67802781 2.65689206 8.72995884 7.12612099 10.30639648 12.34033203 C11.94621549 20.32373266 10.27353331 27.91807204 8.125 35.625 C7.88910156 36.56214844 7.65320313 37.49929688 7.41015625 38.46484375 C5.30819334 46.1720411 2.0643721 52.72906897 -4.9375 57 C-10.58126273 59.41721386 -16.69386864 59.57286675 -22.5546875 57.8046875 C-28.37559255 55.19077165 -31.89809623 51.46131302 -34.5625 45.625 C-36.31597311 37.6546677 -34.61423995 30.73541076 -32.5625 23 C-32.31822266 22.00613281 -32.07394531 21.01226562 -31.82226562 19.98828125 C-29.97221146 12.89718757 -27.78470625 6.35152773 -21.92578125 1.625 C-14.5095394 -1.90537629 -7.7888708 -3.30212583 0 0 Z " fill="#000000" transform="translate(497.25,287.5)"/>
<path d="M0 0 C5.37930292 3.03749345 9.25583972 7.30474803 11.64453125 13.0234375 C12.42379737 19.36630128 12.42544941 25.7111691 9.0625 31.30078125 C6.15192287 34.83677165 2.63309205 36.84879582 -1.35546875 39.0234375 C-2.02545898 39.39178711 -2.69544922 39.76013672 -3.38574219 40.13964844 C-5.6968092 41.39629741 -8.02225764 42.62093303 -10.35546875 43.8359375 C-11.1026416 44.23353271 -11.84981445 44.63112793 -12.61962891 45.04077148 C-18.60880377 48.06021026 -24.30483736 49.6570889 -31.02734375 48.60546875 C-37.85497659 46.07719117 -42.50093256 43.22749167 -45.62890625 36.4375 C-47.38722466 30.59534529 -47.10532444 24.50733448 -45.35546875 18.7109375 C-36.5011241 6.81291188 -14.82275882 -6.14542239 0 0 Z " fill="#000000" transform="translate(380.35546875,442.9765625)"/>
</svg>
