<svg width="60" height="60" viewBox="0 0 60 60" fill="none" xmlns="http://www.w3.org/2000/svg">
<path d="M38.2601 57.083C42.8492 55.9315 51.4841 52.9609 55.8033 46.2391C60.1427 39.4882 59.2529 30.4242 58.3875 25.7825C53.7983 26.934 45.1634 29.9046 40.8442 36.6264C36.503 43.3802 37.3947 52.4413 38.2601 57.083Z" fill="#FFD501"/>
<path d="M35.1028 17.6046C33.0952 9.32453 25.3805 3.34934 21.2389 0.667725C18.7899 4.94836 14.6659 13.796 16.6764 22.0773C18.6943 30.4013 26.404 36.3554 30.5429 39.0255C32.9915 34.7431 37.1144 25.8907 35.1028 17.6046Z" fill="#FFD501"/>
<path d="M0.247803 38.4953C1.39929 43.0844 4.36986 51.7193 11.0916 56.0386C17.8251 60.3648 26.8518 59.4936 31.5032 58.6283L31.2506 57.5455C29.9354 52.7886 26.9459 45.0902 20.7044 41.0794C13.9506 36.7383 4.88947 37.6299 0.247803 38.4953Z" fill="#FFD501"/>
</svg>
